<svg width="80" height="27" viewBox="0 0 80 27" fill="none" xmlns="http://www.w3.org/2000/svg">
<path fill-rule="evenodd" clip-rule="evenodd" d="M11.4296 3.20935C11.7909 3.34484 12.0816 3.46621 12.3018 3.57348V0.880667C11.9348 0.762115 11.5354 0.64921 11.1036 0.541949C10.6717 0.434688 10.2243 0.34013 9.76138 0.258273C9.29846 0.176415 8.8285 0.112906 8.35147 0.0677436C7.87444 0.022581 7.41012 0 6.95849 0C6.54638 0 6.1117 0.0169357 5.65443 0.0508077C5.19715 0.0846797 4.74553 0.146777 4.29955 0.237103C3.85357 0.327428 3.42877 0.454446 3.02513 0.618161C2.62149 0.781875 2.26583 0.994983 1.95816 1.25749C1.65049 1.52 1.40634 1.83754 1.22569 2.21014C1.04504 2.58273 0.954712 3.02588 0.954712 3.5396C0.954712 3.97429 1.03939 4.35676 1.20875 4.68701C1.37811 5.01726 1.60957 5.30799 1.90312 5.55921C2.19668 5.81043 2.53822 6.02777 2.92774 6.21124C3.31727 6.39472 3.73079 6.55561 4.1683 6.69392C4.60581 6.83223 5.05602 6.95219 5.51894 7.0538C5.98186 7.15542 6.43206 7.24998 6.86958 7.33748C7.30709 7.42498 7.7206 7.51248 8.11013 7.59999C8.49966 7.68749 8.8412 7.78346 9.13475 7.8879C9.42831 7.99234 9.65977 8.11371 9.82913 8.25202C9.99849 8.39033 10.0832 8.55263 10.0832 8.73893C10.0832 8.85748 10.0408 8.98167 9.95615 9.11152C9.87146 9.24136 9.71058 9.36132 9.47347 9.47141C9.23637 9.58149 8.90753 9.67181 8.48696 9.74238C8.06638 9.81295 7.52302 9.84823 6.85687 9.84823C5.72781 9.84823 4.66791 9.72686 3.67716 9.48411C2.6864 9.24136 1.80433 8.90547 1.03092 8.47642V11.2539C1.78175 11.5362 2.64689 11.7719 3.62635 11.961C4.60582 12.1501 5.67136 12.2447 6.823 12.2447C7.26334 12.2447 7.72766 12.2305 8.21598 12.2023C8.7043 12.1741 9.18697 12.1148 9.664 12.0245C10.141 11.9342 10.5969 11.8057 11.0316 11.6392C11.4663 11.4727 11.8487 11.2511 12.179 10.9745C12.5092 10.6978 12.7731 10.3591 12.9707 9.95831C13.1683 9.55749 13.2671 9.07765 13.2671 8.51876C13.2671 8.08407 13.1824 7.69737 13.0131 7.35865C12.8437 7.01993 12.6123 6.72073 12.3187 6.46105C12.0251 6.20136 11.6836 5.97414 11.2941 5.77938C10.9046 5.58461 10.491 5.41384 10.0535 5.26707C9.61601 5.12029 9.16439 4.99186 8.69865 4.88177C8.23291 4.77169 7.7813 4.67008 7.34378 4.57693C6.90627 4.48378 6.49275 4.39346 6.10323 4.30595C5.7137 4.21845 5.37216 4.1253 5.0786 4.02651C4.78505 3.92772 4.55359 3.81481 4.38423 3.68779C4.21487 3.56077 4.13019 3.41259 4.13019 3.24323C4.13019 3.19242 4.14007 3.13597 4.15983 3.07387C4.17959 3.01177 4.22334 2.94967 4.29109 2.88757C4.35883 2.82547 4.45621 2.76479 4.58323 2.70551C4.71025 2.64623 4.88243 2.59402 5.09977 2.54885C5.31712 2.50369 5.58527 2.467 5.90423 2.43877C6.22319 2.41054 6.60848 2.39643 7.06011 2.39643C7.62464 2.39643 8.17505 2.43736 8.71136 2.51922C9.24766 2.60107 9.74444 2.70269 10.2017 2.82406C10.659 2.94544 11.0683 3.07387 11.4296 3.20935ZM29.0598 5.8725C29.2292 5.38418 29.3139 4.84929 29.3139 4.26782C29.3139 3.68635 29.2292 3.15288 29.0598 2.66738C28.8905 2.18188 28.6181 1.76272 28.2427 1.40989C27.8673 1.05705 27.3804 0.783259 26.7819 0.588496C26.1835 0.393732 25.4553 0.296351 24.5972 0.296351H16.2393V11.9313H19.381V8.25623H24.5972C25.4553 8.25623 26.1835 8.15743 26.7819 7.95985C27.3804 7.76226 27.8673 7.48706 28.2427 7.13422C28.6181 6.78139 28.8905 6.36082 29.0598 5.8725ZM26.1384 4.3187C26.1384 4.04772 26.1003 3.81486 26.0241 3.62009C25.9479 3.42533 25.8223 3.26585 25.6473 3.14166C25.4723 3.01746 25.2437 2.92572 24.9614 2.86645C24.6791 2.80717 24.3319 2.77753 23.9198 2.77753H19.381V5.77519H23.9198C24.3319 5.77519 24.6791 5.7512 24.9614 5.70321C25.2437 5.65523 25.4723 5.57337 25.6473 5.45764C25.8223 5.34191 25.9479 5.1909 26.0241 5.0046C26.1003 4.81831 26.1384 4.58968 26.1384 4.3187ZM45.005 9.89901C45.1236 9.56593 45.1829 9.17359 45.1829 8.72196C45.1829 8.28163 45.1236 7.89634 45.005 7.56609C44.8865 7.23584 44.7002 6.9564 44.4462 6.72776C44.1921 6.49913 43.8633 6.31848 43.4596 6.18581C43.056 6.05315 42.5719 5.96706 42.0074 5.92754C42.809 5.78076 43.3961 5.4858 43.7687 5.04264C44.1413 4.59948 44.3276 3.99967 44.3276 3.2432C44.3276 2.8198 44.2726 2.45286 44.1625 2.14236C44.0524 1.83187 43.9 1.56655 43.7052 1.34638C43.5104 1.12621 43.2818 0.948384 43.0193 0.812896C42.7568 0.677408 42.4731 0.57156 42.1683 0.495348C41.8634 0.419136 41.5431 0.366918 41.2072 0.338691C40.8713 0.310464 40.5368 0.296351 40.2037 0.296351H31.9136V11.9313H40.3561C40.7908 11.9313 41.2114 11.9144 41.6179 11.8805C42.0243 11.8466 42.4068 11.786 42.7653 11.6984C43.1237 11.6109 43.4512 11.4924 43.7475 11.3428C44.0439 11.1932 44.298 10.9984 44.5097 10.7585C44.7214 10.5186 44.8865 10.2321 45.005 9.89901ZM41.2622 3.7428C41.2622 3.59602 41.2396 3.4563 41.1944 3.32364C41.1493 3.19097 41.0674 3.07383 40.9489 2.97222C40.8303 2.8706 40.6694 2.78874 40.4662 2.72664C40.263 2.66455 40.0033 2.6335 39.6871 2.6335H35.0552V4.81823H39.6871C40.0033 4.81823 40.263 4.79 40.4662 4.73355C40.6694 4.6771 40.8303 4.60088 40.9489 4.50491C41.0674 4.40894 41.1493 4.29463 41.1944 4.16196C41.2396 4.0293 41.2622 3.88958 41.2622 3.7428ZM41.8549 7.71861C41.9453 7.8795 41.9904 8.09261 41.9904 8.35794C41.9904 8.62327 41.9453 8.83638 41.8549 8.99727C41.7646 9.15816 41.6235 9.28377 41.4315 9.3741C41.2396 9.46442 40.9912 9.5237 40.6864 9.55192C40.3815 9.58015 40.0174 9.59426 39.594 9.59426H35.0552V7.13009H39.594C40.0174 7.13009 40.3815 7.1442 40.6864 7.17243C40.9912 7.20065 41.2396 7.25852 41.4315 7.34602C41.6235 7.43352 41.7646 7.55772 41.8549 7.71861Z" fill="#FF6700"/>
<path fill-rule="evenodd" clip-rule="evenodd" d="M53.1435 20.9456C53.1435 21.9192 52.9648 22.7786 52.6072 23.524C52.2497 24.2693 51.7382 24.8922 51.0726 25.3928C50.407 25.8933 49.5998 26.2715 48.651 26.5273C47.7021 26.783 46.6364 26.9109 45.4538 26.9109C44.2712 26.9109 43.2027 26.783 42.2483 26.5273C41.294 26.2715 40.4813 25.8933 39.8102 25.3928C39.1391 24.8922 38.6221 24.2693 38.2591 23.524C37.896 22.7786 37.7145 21.9192 37.7145 20.9456C37.7145 19.972 37.896 19.1125 38.2591 18.3672C38.6221 17.6219 39.1391 16.9989 39.8102 16.4984C40.4813 15.9978 41.294 15.6197 42.2483 15.3639C43.2027 15.1081 44.2712 14.9802 45.4538 14.9802C46.6364 14.9802 47.7021 15.1081 48.651 15.3639C49.5998 15.6197 50.407 15.9978 51.0726 16.4984C51.7382 16.9989 52.2497 17.6219 52.6072 18.3672C52.9648 19.1125 53.1435 19.972 53.1435 20.9456ZM14.4142 26.6057L9.03465 20.7888L14.1419 15.269H10.4703L7.19472 18.8169L3.93564 15.269H0.264026L5.37129 20.7888L0 26.6057H3.66337L7.19472 22.7855L10.7426 26.6057H14.4142ZM16.4192 15.269V26.6057H19.4802V15.269H16.4192ZM32.137 24.4605H25.8168L24.7525 26.6057H21.3366L27.269 15.269H30.6848L36.6172 26.6057H33.2013L32.137 24.4605ZM31.0561 22.2493H26.9142L28.9934 18.0743L31.0561 22.2493ZM49.8474 19.679C49.9821 20.0998 50.0495 20.5219 50.0495 20.9455C50.0495 21.369 49.9821 21.7912 49.8474 22.212C49.7126 22.6328 49.4733 23.0109 49.1295 23.3465C48.7858 23.682 48.3168 23.9543 47.7228 24.1633C47.1287 24.3723 46.3724 24.4768 45.4538 24.4768C44.8377 24.4768 44.2959 24.4287 43.8284 24.3324C43.3608 24.2362 42.9566 24.1042 42.6155 23.9364C42.2745 23.7686 41.9885 23.572 41.7574 23.3465C41.5264 23.121 41.3421 22.8776 41.2046 22.6163C41.0671 22.355 40.9695 22.0813 40.9117 21.7953C40.854 21.5093 40.8251 21.226 40.8251 20.9455C40.8251 20.6705 40.854 20.3913 40.9117 20.108C40.9695 19.8247 41.0671 19.5525 41.2046 19.2912C41.3421 19.0299 41.5264 18.7851 41.7574 18.5569C41.9885 18.3286 42.2745 18.1292 42.6155 17.9587C42.9566 17.7882 43.3608 17.6548 43.8284 17.5585C44.2959 17.4623 44.8377 17.4141 45.4538 17.4141C46.3724 17.4141 47.1287 17.5186 47.7228 17.7277C48.3168 17.9367 48.7858 18.209 49.1295 18.5445C49.4733 18.88 49.7126 19.2582 49.8474 19.679ZM70.3466 26.6057V18.6436L66.1386 26.6057H63.2014L58.9934 18.6436V26.6057H55.9324V15.269H60.0908L64.67 23.8499L69.2492 15.269H73.3911V26.6057H70.3466ZM76.9389 15.269V26.6057H80V15.269H76.9389Z" fill="#333333"/>
</svg>
