<svg width="107" height="36" viewBox="0 0 107 36" fill="none" xmlns="http://www.w3.org/2000/svg">
<path fill-rule="evenodd" clip-rule="evenodd" d="M15.1691 4.25938C15.6486 4.4392 16.0344 4.60028 16.3266 4.74264V1.1688C15.8396 1.01146 15.3096 0.861617 14.7364 0.719262C14.1632 0.576908 13.5695 0.451413 12.9551 0.342773C12.3407 0.234134 11.717 0.149847 11.0839 0.0899078C10.4508 0.029969 9.83456 0 9.23517 0C8.68823 0 8.11132 0.0224767 7.50444 0.0674308C6.89756 0.112385 6.29818 0.1948 5.70629 0.314677C5.11439 0.434555 4.5506 0.60313 4.0149 0.820409C3.47919 1.03769 3.00718 1.32052 2.59885 1.66891C2.19052 2.01731 1.86648 2.43875 1.62672 2.93324C1.38697 3.42774 1.26709 4.01588 1.26709 4.69768C1.26709 5.27459 1.37947 5.78219 1.60424 6.2205C1.82901 6.6588 2.1362 7.04465 2.5258 7.37806C2.9154 7.71147 3.36868 7.99992 3.88565 8.24342C4.40263 8.48692 4.95143 8.70045 5.53209 8.88401C6.11275 9.06758 6.71025 9.22679 7.32463 9.36165C7.939 9.49651 8.53651 9.62201 9.11716 9.73814C9.69782 9.85427 10.2466 9.9704 10.7636 10.0865C11.2806 10.2027 11.7339 10.33 12.1235 10.4686C12.5131 10.6072 12.8202 10.7683 13.045 10.9519C13.2698 11.1355 13.3822 11.3509 13.3822 11.5981C13.3822 11.7554 13.326 11.9203 13.2136 12.0926C13.1012 12.2649 12.8877 12.4241 12.573 12.5702C12.2583 12.7163 11.8219 12.8362 11.2637 12.9299C10.7055 13.0235 9.9844 13.0703 9.10031 13.0703C7.60183 13.0703 6.19517 12.9093 4.88026 12.5871C3.56535 12.2649 2.39469 11.8191 1.36824 11.2497V14.9359C2.36472 15.3105 3.51291 15.6234 4.81283 15.8743C6.11275 16.1253 7.52691 16.2508 9.05535 16.2508C9.63976 16.2508 10.256 16.2321 10.9041 16.1946C11.5522 16.1572 12.1928 16.0785 12.8259 15.9586C13.459 15.8388 14.064 15.6683 14.6409 15.4473C15.2178 15.2263 15.7254 14.9322 16.1637 14.5651C16.602 14.1979 16.9523 13.7484 17.2145 13.2164C17.4767 12.6845 17.6078 12.0476 17.6078 11.3059C17.6078 10.729 17.4954 10.2158 17.2707 9.76623C17.0459 9.31669 16.7387 8.9196 16.3491 8.57495C15.9595 8.23031 15.5062 7.92874 14.9893 7.67026C14.4723 7.41177 13.9235 7.18513 13.3428 6.99033C12.7622 6.79553 12.1628 6.62508 11.5447 6.47898C10.9266 6.33288 10.3272 6.19802 9.74652 6.07439C9.16586 5.95077 8.61705 5.83089 8.10008 5.71476C7.58311 5.59863 7.12983 5.47501 6.74023 5.34389C6.35062 5.21278 6.04344 5.06293 5.81867 4.89436C5.5939 4.72578 5.48152 4.52911 5.48152 4.30434C5.48152 4.2369 5.49463 4.16198 5.52085 4.07957C5.54708 3.99715 5.60514 3.91474 5.69505 3.83232C5.78496 3.7499 5.9142 3.66936 6.08278 3.59069C6.25135 3.51202 6.47987 3.44272 6.76832 3.38278C7.05678 3.32284 7.41266 3.27414 7.83598 3.23668C8.2593 3.19922 8.77064 3.18049 9.37003 3.18049C10.1193 3.18049 10.8498 3.23481 11.5615 3.34345C12.2733 3.45209 12.9326 3.58695 13.5395 3.74803C14.1464 3.90912 14.6896 4.07957 15.1691 4.25938ZM38.5676 7.79388C38.7924 7.14579 38.9047 6.4359 38.9047 5.66419C38.9047 4.89248 38.7924 4.18446 38.5676 3.54012C38.3428 2.89578 37.9813 2.33948 37.4831 1.87121C36.9848 1.40293 36.3386 1.03956 35.5444 0.781074C34.7502 0.522588 33.7837 0.393347 32.6449 0.393347H21.5525V15.835H25.722V10.9575H32.6449C33.7837 10.9575 34.7502 10.8264 35.5444 10.5642C36.3386 10.3019 36.9848 9.93669 37.4831 9.46841C37.9813 9.00014 38.3428 8.44197 38.5676 7.79388ZM34.6903 5.73162C34.6903 5.37199 34.6397 5.06293 34.5386 4.80445C34.4374 4.54596 34.2707 4.33431 34.0385 4.16947C33.8062 4.00464 33.5028 3.88289 33.1282 3.80422C32.7535 3.72555 32.2928 3.68622 31.7458 3.68622H25.722V7.66464H31.7458C32.2928 7.66464 32.7535 7.6328 33.1282 7.56911C33.5028 7.50543 33.8062 7.39679 34.0385 7.2432C34.2707 7.0896 34.4374 6.88919 34.5386 6.64194C34.6397 6.39469 34.6903 6.09125 34.6903 5.73162ZM59.7296 13.1378C59.887 12.6957 59.9656 12.175 59.9656 11.5756C59.9656 10.9912 59.887 10.4799 59.7296 10.0416C59.5723 9.60327 59.325 9.23241 58.9879 8.92897C58.6507 8.62553 58.2143 8.38577 57.6786 8.2097C57.1429 8.03363 56.5004 7.91938 55.7512 7.86693C56.8151 7.67213 57.5943 7.28066 58.0888 6.69251C58.5833 6.10436 58.8306 5.30831 58.8306 4.30434C58.8306 3.74241 58.7575 3.25541 58.6114 2.84333C58.4653 2.43125 58.263 2.07912 58.0045 1.78692C57.746 1.49472 57.4426 1.25871 57.0942 1.07889C56.7458 0.899077 56.3693 0.758597 55.9647 0.657451C55.5602 0.556304 55.135 0.487001 54.6892 0.449539C54.2434 0.412077 53.7995 0.393347 53.3574 0.393347H42.3549V15.835H53.5597C54.1366 15.835 54.6948 15.8125 55.2342 15.7676C55.7737 15.7226 56.2813 15.6421 56.7571 15.526C57.2328 15.4098 57.6674 15.2525 58.0607 15.0539C58.4541 14.8554 58.7912 14.5969 59.0722 14.2785C59.3531 13.9601 59.5723 13.5798 59.7296 13.1378ZM54.7622 4.96741C54.7622 4.7726 54.7323 4.58717 54.6723 4.4111C54.6124 4.23503 54.5037 4.07957 54.3464 3.9447C54.1891 3.80984 53.9755 3.7012 53.7058 3.61879C53.4361 3.53637 53.0914 3.49517 52.6719 3.49517H46.5244V6.39469H52.6719C53.0914 6.39469 53.4361 6.35723 53.7058 6.28231C53.9755 6.20738 54.1891 6.10624 54.3464 5.97887C54.5037 5.8515 54.6124 5.69978 54.6723 5.52371C54.7323 5.34764 54.7622 5.16221 54.7622 4.96741ZM55.5489 10.2439C55.6688 10.4574 55.7287 10.7402 55.7287 11.0924C55.7287 11.4445 55.6688 11.7273 55.5489 11.9409C55.429 12.1544 55.2417 12.3211 54.987 12.441C54.7323 12.5609 54.4026 12.6395 53.998 12.677C53.5934 12.7145 53.1102 12.7332 52.5482 12.7332H46.5244V9.46279H52.5482C53.1102 9.46279 53.5934 9.48152 53.998 9.51899C54.4026 9.55645 54.7323 9.63324 54.987 9.74938C55.2417 9.86551 55.429 10.0303 55.5489 10.2439Z" fill="#FF6700"/>
<path fill-rule="evenodd" clip-rule="evenodd" d="M70.5309 27.7984C70.5309 29.0906 70.2937 30.2312 69.8192 31.2204C69.3446 32.2096 68.6657 33.0363 67.7824 33.7006C66.8991 34.365 65.8278 34.8668 64.5685 35.2063C63.3092 35.5458 61.8948 35.7155 60.3252 35.7155C58.7557 35.7155 57.3376 35.5458 56.071 35.2063C54.8045 34.8668 53.7259 34.365 52.8352 33.7006C51.9446 33.0363 51.2584 32.2096 50.7766 31.2204C50.2948 30.2312 50.0539 29.0906 50.0539 27.7984C50.0539 26.5063 50.2948 25.3656 50.7766 24.3764C51.2584 23.3873 51.9446 22.5605 52.8352 21.8962C53.7259 21.2319 54.8045 20.73 56.071 20.3905C57.3376 20.0511 58.7557 19.8813 60.3252 19.8813C61.8948 19.8813 63.3092 20.0511 64.5685 20.3905C65.8278 20.73 66.8991 21.2319 67.7824 21.8962C68.6657 22.5605 69.3446 23.3873 69.8192 24.3764C70.2937 25.3656 70.5309 26.5063 70.5309 27.7984ZM19.1302 35.3103L11.9906 27.5904L18.7688 20.2646H13.8959L9.54867 24.9732L5.2233 20.2646H0.35041L7.12865 27.5904L0 35.3103H4.86194L9.54867 30.2403L14.2573 35.3103H19.1302ZM21.7911 20.2646V35.3103H25.8537V20.2646H21.7911ZM42.6514 32.4633H34.2635L32.8509 35.3103H28.3175L36.1908 20.2646H40.7242L48.5975 35.3103H44.064L42.6514 32.4633ZM41.217 29.5286H35.7199L38.4794 23.9877L41.217 29.5286ZM66.1563 26.1175C66.3351 26.676 66.4246 27.2363 66.4246 27.7984C66.4246 28.3605 66.3351 28.9208 66.1563 29.4793C65.9774 30.0378 65.6599 30.5396 65.2036 30.985C64.7473 31.4303 64.125 31.7916 63.3366 32.069C62.5482 32.3464 61.5444 32.4852 60.3252 32.4852C59.5076 32.4852 58.7886 32.4213 58.168 32.2935C57.5475 32.1658 57.011 31.9906 56.5583 31.7679C56.1057 31.5452 55.7261 31.2843 55.4195 30.985C55.1129 30.6856 54.8683 30.3626 54.6858 30.0159C54.5033 29.6691 54.3738 29.3059 54.2971 28.9263C54.2204 28.5467 54.1821 28.1707 54.1821 27.7984C54.1821 27.4334 54.2204 27.0629 54.2971 26.687C54.3738 26.311 54.5033 25.9496 54.6858 25.6029C54.8683 25.2561 55.1129 24.9313 55.4195 24.6283C55.7261 24.3253 56.1057 24.0607 56.5583 23.8344C57.011 23.6081 57.5475 23.4311 58.168 23.3033C58.7886 23.1756 59.5076 23.1117 60.3252 23.1117C61.5444 23.1117 62.5482 23.2504 63.3366 23.5278C64.125 23.8052 64.7473 24.1666 65.2036 24.6119C65.6599 25.0572 65.9774 25.5591 66.1563 26.1175ZM93.3623 35.3103V24.7433L87.7777 35.3103H83.8793L78.2947 24.7433V35.3103H74.2321V20.2646H79.7511L85.8285 31.6529L91.9059 20.2646H97.403V35.3103H93.3623ZM102.112 20.2646V35.3103H106.174V20.2646H102.112Z" fill="#333333"/>
</svg>
