<?xml version="1.0" encoding="UTF-8"?>
<svg width="541px" height="134px" viewBox="0 0 541 134" version="1.1" xmlns="http://www.w3.org/2000/svg" xmlns:xlink="http://www.w3.org/1999/xlink">
    <!-- Generator: Sketch 60 (88103) - https://sketch.com -->
    <title>xiaxia</title>
    <desc>Created with Sketch.</desc>
    <defs>
        <linearGradient x1="100%" y1="82.0890027%" x2="0%" y2="82.0890027%" id="linearGradient-1">
            <stop stop-color="#FFAA59" offset="0%"></stop>
            <stop stop-color="#FF722D" offset="100%"></stop>
        </linearGradient>
    </defs>
    <g id="Все-страницы" stroke="none" stroke-width="1" fill="none" fill-rule="evenodd">
        <g id="xiaxia" fill-rule="nonzero">
            <path d="M32.96,132 L49.6,109.28 L65.12,132 L99.84,132 L66.72,87.52 L98.72,45.28 L66.56,45.28 L50.56,67.2 L35.2,45.28 L0.96,45.28 L32.96,88.64 L0,132 L32.96,132 Z M139.4,131.72 L139.4,45 L109,45 L109,131.72 L139.4,131.72 Z M186.56,133.44 C199.253333,133.44 207.786667,129.226667 212.16,120.8 L212.16,120.8 L212.16,132 L240.48,132 L240.48,83.84 C240.48,70.2933333 236.693333,60.24 229.12,53.68 C221.546667,47.12 210.56,43.84 196.16,43.84 C189.226667,43.84 182.32,44.72 175.44,46.48 C168.56,48.24 162.72,50.72 157.92,53.92 L157.92,53.92 L168.16,74.56 C171.146667,72.2133333 174.773333,70.3733333 179.04,69.04 C183.306667,67.7066667 187.52,67.04 191.68,67.04 C203.413333,67.04 209.546667,71.6266667 210.08,80.8 L210.08,80.8 L192.8,80.8 C179.68,80.8 169.973333,83.0666667 163.68,87.6 C157.386667,92.1333333 154.24,98.5066667 154.24,106.72 C154.24,111.84 155.493333,116.4 158,120.4 C160.506667,124.4 164.213333,127.573333 169.12,129.92 C174.026667,132.266667 179.84,133.44 186.56,133.44 Z M195.04,114.24 C191.52,114.24 188.746667,113.44 186.72,111.84 C184.693333,110.24 183.68,108.106667 183.68,105.44 C183.68,99.5733333 188.106667,96.64 196.96,96.64 L196.96,96.64 L210.08,96.64 L210.08,104.16 C208.906667,107.466667 206.986667,109.973333 204.32,111.68 C201.653333,113.386667 198.56,114.24 195.04,114.24 Z M332.56,132 L349.2,109.28 L364.72,132 L399.44,132 L366.32,87.52 L398.32,45.28 L366.16,45.28 L350.16,67.2 L334.8,45.28 L300.56,45.28 L332.56,88.64 L299.6,132 L332.56,132 Z M439.4,131.72 L439.4,45 L409,45 L409,131.72 L439.4,131.72 Z M486.16,133.44 C498.853333,133.44 507.386667,129.226667 511.76,120.8 L511.76,120.8 L511.76,132 L540.08,132 L540.08,83.84 C540.08,70.2933333 536.293333,60.24 528.72,53.68 C521.146667,47.12 510.16,43.84 495.76,43.84 C488.826667,43.84 481.92,44.72 475.04,46.48 C468.16,48.24 462.32,50.72 457.52,53.92 L457.52,53.92 L467.76,74.56 C470.746667,72.2133333 474.373333,70.3733333 478.64,69.04 C482.906667,67.7066667 487.12,67.04 491.28,67.04 C503.013333,67.04 509.146667,71.6266667 509.68,80.8 L509.68,80.8 L492.4,80.8 C479.28,80.8 469.573333,83.0666667 463.28,87.6 C456.986667,92.1333333 453.84,98.5066667 453.84,106.72 C453.84,111.84 455.093333,116.4 457.6,120.4 C460.106667,124.4 463.813333,127.573333 468.72,129.92 C473.626667,132.266667 479.44,133.44 486.16,133.44 Z M494.64,114.24 C491.12,114.24 488.346667,113.44 486.32,111.84 C484.293333,110.24 483.28,108.106667 483.28,105.44 C483.28,99.5733333 487.706667,96.64 496.56,96.64 L496.56,96.64 L509.68,96.64 L509.68,104.16 C508.506667,107.466667 506.586667,109.973333 503.92,111.68 C501.253333,113.386667 498.16,114.24 494.64,114.24 Z" id="xiaxia.ru" fill="#1D2022"></path>
            <path d="M278.56,71 C283.893333,71 288.266667,72.6533333 291.68,75.96 C295.093333,79.2666667 296.8,83.5866667 296.8,88.92 C296.8,94.1466667 295.066667,98.4666667 291.6,101.88 C288.133333,105.293333 283.786667,107 278.56,107 C273.44,107 269.12,105.293333 265.6,101.88 C262.08,98.4666667 260.32,94.1466667 260.32,88.92 C260.32,83.5866667 262.053333,79.2666667 265.52,75.96 C268.986667,72.6533333 273.333333,71 278.56,71 Z M124.24,0 C129.573333,0 133.946667,1.65333333 137.36,4.96 C140.773333,8.26666667 142.48,12.5866667 142.48,17.92 C142.48,23.1466667 140.746667,27.4666667 137.28,30.88 C133.813333,34.2933333 129.466667,36 124.24,36 C119.12,36 114.8,34.2933333 111.28,30.88 C107.76,27.4666667 106,23.1466667 106,17.92 C106,12.5866667 107.733333,8.26666667 111.2,4.96 C114.666667,1.65333333 119.013333,0 124.24,0 Z M424.24,0 C429.573333,0 433.946667,1.65333333 437.36,4.96 C440.773333,8.26666667 442.48,12.5866667 442.48,17.92 C442.48,23.1466667 440.746667,27.4666667 437.28,30.88 C433.813333,34.2933333 429.466667,36 424.24,36 C419.12,36 414.8,34.2933333 411.28,30.88 C407.76,27.4666667 406,23.1466667 406,17.92 C406,12.5866667 407.733333,8.26666667 411.2,4.96 C414.666667,1.65333333 419.013333,0 424.24,0 Z" id="Combined-Shape" fill="url(#linearGradient-1)"></path>
        </g>
    </g>
</svg>