<svg width="20" height="20" viewBox="0 0 20 20" fill="none" xmlns="http://www.w3.org/2000/svg">
<path d="M14.9637 12.6066L12.357 10L14.9637 7.39337C15.6041 6.75297 15.5904 5.69089 14.9497 5.05025C14.3091 4.40961 13.247 4.39594 12.6066 5.03635L10 7.64298L7.39337 5.03635C6.75297 4.39594 5.69089 4.40961 5.05025 5.05025C4.40961 5.69089 4.39594 6.75297 5.03635 7.39337L7.64298 10L5.03635 12.6066C4.39594 13.247 4.40961 14.3091 5.05025 14.9497C5.69089 15.5904 6.75297 15.6041 7.39337 14.9637L10 12.357L12.6066 14.9637C13.247 15.6041 14.3091 15.5904 14.9497 14.9497C15.5904 14.3091 15.6041 13.247 14.9637 12.6066Z" fill="#B8B4B4"/>
</svg>
