<svg width="10" height="14" viewBox="0 0 10 14" fill="none" xmlns="http://www.w3.org/2000/svg">
<path fill-rule="evenodd" clip-rule="evenodd" d="M0 4.90885C0 2.20212 2.24304 0 4.99979 0C7.75668 0 9.99972 2.20212 10 4.90885C10 5.61487 9.85295 6.28896 9.56273 6.91256C8.31223 9.59841 5.91547 12.4337 5.21078 13.2385C5.15796 13.2987 5.08096 13.3333 4.99993 13.3333C4.9189 13.3333 4.8419 13.2987 4.78908 13.2385C4.08412 12.4335 1.68735 9.59814 0.437266 6.91256C0.147192 6.28896 0 5.61487 0 4.90885ZM2.4026 4.90871C2.4026 6.31461 3.56777 7.45852 4.99979 7.45852C6.43196 7.45852 7.59712 6.31461 7.59698 4.90871C7.59698 3.50267 6.43182 2.35877 4.99979 2.35877C3.56777 2.35877 2.4026 3.50267 2.4026 4.90871Z" fill="#FF7914"/>
</svg>
