<svg width="9" height="14" viewBox="0 0 9 14" fill="none" xmlns="http://www.w3.org/2000/svg">
<path d="M8.00348 4.80154C7.96491 4.71939 7.88183 4.66668 7.79031 4.66668H5.00208L7.75383 0.358176C7.79971 0.286316 7.80252 0.195316 7.76114 0.120887C7.71972 0.0462109 7.64064 0 7.555 0H3.79031C3.70114 0 3.61971 0.0499297 3.57973 0.129035L0.0503236 7.12903C0.0138438 7.20114 0.017842 7.287 0.0606636 7.35582C0.103733 7.42465 0.179257 7.46665 0.260902 7.46665H2.68042L0.0439541 13.6761C-0.000990693 13.7823 0.0390184 13.9055 0.138062 13.9657C0.176169 13.9888 0.218522 14 0.260654 14C0.328182 14 0.394771 13.9713 0.440902 13.9171L7.97031 5.05047C8.02934 4.98097 8.04206 4.88389 8.00348 4.80154Z" fill="#FF4300"/>
</svg>
