<svg width="56" height="31" viewBox="0 0 56 31" fill="none" xmlns="http://www.w3.org/2000/svg">
<g filter="url(#filter0_d)">
<path fill-rule="evenodd" clip-rule="evenodd" d="M27.2472 5.02539H45.1454C45.2675 5.02539 45.3857 5.03995 45.5014 5.06107L35.4777 10.8238L27.0035 5.04987C27.023 5.04748 27.0423 5.04481 27.0617 5.04214L27.0617 5.04214C27.1227 5.03377 27.1836 5.02539 27.2472 5.02539ZM13.6917 18.6496V16.1603H21.679L21.5816 16.9678L21.5637 17.1168V17.2665C21.5637 17.7496 21.6438 18.2139 21.7873 18.6496H13.6917ZM10.9942 13.7747H21.967L22.2686 11.2848H10.9942V13.7747ZM22.8115 6.79483L22.6571 8.06923H8.57373V5.57931H23.0352C22.9073 5.96443 22.8285 6.37163 22.8115 6.79483ZM26.0022 19.2163H43.9001C44.9769 19.2163 45.8496 18.344 45.8507 17.267L47.0956 6.97435C47.0956 6.89012 47.084 6.80921 47.0724 6.72843C47.071 6.71883 47.0696 6.70923 47.0683 6.69963L36.0616 13.0542C36.0541 13.0593 36.0465 13.0629 36.0389 13.0665C36.0334 13.0692 36.0279 13.0718 36.0225 13.075C36.0135 13.0805 36.0045 13.0852 35.9955 13.0899C35.9908 13.0923 35.9861 13.0948 35.9814 13.0974C35.9083 13.1348 35.8336 13.1648 35.7573 13.1846C35.7507 13.1863 35.7446 13.1874 35.7382 13.1886C35.7366 13.1889 35.7349 13.1892 35.7332 13.1896C35.6494 13.2096 35.5645 13.2215 35.4801 13.2215H35.4785H35.4777C35.3936 13.2215 35.3085 13.2094 35.2246 13.1896C35.2164 13.188 35.2089 13.1867 35.2006 13.1846C35.1241 13.1646 35.0494 13.1347 34.9765 13.0974C34.9725 13.0953 34.9685 13.0932 34.9645 13.0912C34.9546 13.086 34.9448 13.0809 34.9353 13.075C34.93 13.0719 34.9245 13.0693 34.9191 13.0667C34.9113 13.063 34.9036 13.0593 34.8963 13.0542L25.6577 6.79307V5.85227C25.5064 6.06683 25.4005 6.31387 25.3444 6.57979C25.3438 6.57935 25.3433 6.57891 25.3428 6.57849C25.3418 6.57769 25.3409 6.57696 25.3398 6.57643C25.3383 6.58292 25.3379 6.58971 25.3376 6.59648C25.3372 6.60274 25.3369 6.609 25.3357 6.61499C25.3136 6.73147 25.2987 6.85067 25.2987 6.97387L24.7774 11.2843L24.7168 11.7851L24.0536 17.2665C24.0536 17.4014 24.0673 17.5329 24.0934 17.6608C24.0954 17.671 24.0989 17.6807 24.1024 17.6905C24.1053 17.6985 24.1083 17.7067 24.1104 17.7152C24.1357 17.8227 24.1654 17.9286 24.2078 18.0281C24.2102 18.0334 24.2132 18.0382 24.2161 18.043C24.2191 18.0481 24.2221 18.053 24.2245 18.0584C24.2717 18.1638 24.3253 18.2659 24.3896 18.3609C24.3904 18.3622 24.3915 18.3634 24.3927 18.3647C24.3939 18.3659 24.395 18.3672 24.3958 18.3684C24.4651 18.4692 24.5432 18.5638 24.6294 18.6497V18.6502C24.9817 19.0001 25.4665 19.2163 26.0022 19.2163Z" fill="url(#paint0_linear)"/>
</g>
<defs>
<filter id="filter0_d" x="0.57373" y="0.0253906" width="54.5219" height="30.1909" filterUnits="userSpaceOnUse" color-interpolation-filters="sRGB">
<feFlood flood-opacity="0" result="BackgroundImageFix"/>
<feColorMatrix in="SourceAlpha" type="matrix" values="0 0 0 0 0 0 0 0 0 0 0 0 0 0 0 0 0 0 127 0"/>
<feOffset dy="3"/>
<feGaussianBlur stdDeviation="4"/>
<feColorMatrix type="matrix" values="0 0 0 0 1 0 0 0 0 0.505882 0 0 0 0 0.0941176 0 0 0 0.5 0"/>
<feBlend mode="normal" in2="BackgroundImageFix" result="effect1_dropShadow"/>
<feBlend mode="normal" in="SourceGraphic" in2="effect1_dropShadow" result="shape"/>
</filter>
<linearGradient id="paint0_linear" x1="8.57373" y1="5.02539" x2="8.57373" y2="19.2163" gradientUnits="userSpaceOnUse">
<stop stop-color="#ffffff"/>
<stop offset="1" stop-color="#ffffff"/>
</linearGradient>
</defs>
</svg>
