<svg width="16" height="16" viewBox="0 0 16 16" fill="none" xmlns="http://www.w3.org/2000/svg">
<path fill-rule="evenodd" clip-rule="evenodd" d="M8 0C3.58172 0 0 3.58172 0 8C0 12.4183 3.58172 16 8 16C12.4183 16 16 12.4183 16 8C16 3.58172 12.4183 0 8 0ZM7.05882 4.70588C7.05882 4.18609 7.4802 3.76471 8 3.76471C8.5198 3.76471 8.94118 4.18609 8.94118 4.70588V7.05882H11.2941C11.8139 7.05882 12.2353 7.4802 12.2353 8C12.2353 8.5198 11.8139 8.94118 11.2941 8.94118H8.94118V11.2941C8.94118 11.8139 8.5198 12.2353 8 12.2353C7.4802 12.2353 7.05882 11.8139 7.05882 11.2941V8.94118H4.70588C4.18609 8.94118 3.76471 8.5198 3.76471 8C3.76471 7.4802 4.18609 7.05882 4.70588 7.05882H7.05882V4.70588Z" fill="white"/>
<mask id="mask0" mask-type="alpha" maskUnits="userSpaceOnUse" x="0" y="0" width="16" height="16">
<path fill-rule="evenodd" clip-rule="evenodd" d="M8 0C3.58172 0 0 3.58172 0 8C0 12.4183 3.58172 16 8 16C12.4183 16 16 12.4183 16 8C16 3.58172 12.4183 0 8 0ZM7.05882 4.70588C7.05882 4.18609 7.4802 3.76471 8 3.76471C8.5198 3.76471 8.94118 4.18609 8.94118 4.70588V7.05882H11.2941C11.8139 7.05882 12.2353 7.4802 12.2353 8C12.2353 8.5198 11.8139 8.94118 11.2941 8.94118H8.94118V11.2941C8.94118 11.8139 8.5198 12.2353 8 12.2353C7.4802 12.2353 7.05882 11.8139 7.05882 11.2941V8.94118H4.70588C4.18609 8.94118 3.76471 8.5198 3.76471 8C3.76471 7.4802 4.18609 7.05882 4.70588 7.05882H7.05882V4.70588Z" fill="white"/>
</mask>
<g mask="url(#mask0)">
</g>
</svg>
