<svg width="40" height="40" viewBox="0 0 40 40" fill="none" xmlns="http://www.w3.org/2000/svg">
<path fill-rule="evenodd" clip-rule="evenodd" d="M20 40C31.0457 40 40 31.0457 40 20C40 8.9543 31.0457 0 20 0C8.9543 0 0 8.9543 0 20C0 31.0457 8.9543 40 20 40Z" fill="#E3E8EB"/>
<path d="M30.6511 18.0851H30.6101L14.6288 18.0933L19.6774 13.0336C19.9246 12.7865 20.0602 12.4519 20.0602 12.1007C20.0602 11.7495 19.9246 11.4172 19.6774 11.1696L18.8919 10.3836C18.6448 10.1366 18.3157 10 17.9646 10C17.6134 10 17.284 10.1356 17.037 10.3826L8.38278 19.0361C8.13478 19.2841 7.99917 19.6144 8.00014 19.9659C7.99917 20.3192 8.13478 20.6498 8.38278 20.8974L17.037 29.5516C17.284 29.7984 17.6132 29.9342 17.9646 29.9342C18.3157 29.9342 18.6448 29.7982 18.8919 29.5516L19.6774 28.7657C19.9246 28.519 20.0602 28.1897 20.0602 27.8384C20.0602 27.4874 19.9246 27.1754 19.6774 26.9286L14.5719 21.8406H30.669C31.3923 21.8406 32.0001 21.2172 32.0001 20.4942V19.3826C32.0001 18.6597 31.3744 18.0851 30.6511 18.0851Z" fill="white"/>
</svg>
