<svg width="14" height="12" viewBox="0 0 14 12" fill="none" xmlns="http://www.w3.org/2000/svg">
<path id="samvivoz" fill-rule="evenodd" clip-rule="evenodd" d="M13.4639 0C13.604 0 13.7256 0.0513522 13.828 0.153717C13.9305 0.256421 13.9817 0.377717 13.9816 0.517972V8.80345C13.9816 8.88422 13.971 8.95578 13.9492 9.01776C13.9276 9.07982 13.8912 9.12967 13.8399 9.16751C13.7886 9.20534 13.7443 9.23634 13.7064 9.2606C13.6686 9.28486 13.6053 9.30096 13.5163 9.30909C13.4274 9.31723 13.3666 9.32267 13.3342 9.32539C13.3018 9.32791 13.233 9.32791 13.1278 9.32539C13.0227 9.32267 12.962 9.32131 12.9459 9.32131C12.9459 9.89293 12.7437 10.3812 12.339 10.7858C11.9344 11.1903 11.4465 11.3926 10.8746 11.3926C10.3028 11.3926 9.81454 11.1903 9.4101 10.7858C9.0056 10.3811 8.80328 9.89293 8.80328 9.32131H5.69616C5.69616 9.89293 5.49398 10.3812 5.08937 10.7858C4.68484 11.1903 4.19666 11.3926 3.62489 11.3926C3.05308 11.3926 2.56495 11.1903 2.16034 10.7858C1.75587 10.3811 1.55355 9.89293 1.55355 9.32131H1.03574C1.01953 9.32131 0.958887 9.32267 0.853603 9.32539C0.748433 9.32791 0.679709 9.32791 0.647316 9.32539C0.614923 9.32267 0.554275 9.31723 0.465287 9.30909C0.3763 9.30096 0.312931 9.28483 0.275097 9.2606C0.237377 9.23626 0.192854 9.20534 0.141644 9.16751C0.0902915 9.12967 0.0539312 9.07982 0.0323077 9.01776C0.0107126 8.95581 0 8.88425 0 8.80345C0 8.66319 0.0512672 8.5417 0.153745 8.43942C0.256279 8.3368 0.377632 8.28559 0.51783 8.28559V5.69644C0.51783 5.65322 0.51647 5.55891 0.513749 5.41318C0.51117 5.26751 0.51117 5.16498 0.513749 5.10569C0.516441 5.04632 0.5233 4.95328 0.534012 4.82646C0.544696 4.69958 0.562324 4.59991 0.586555 4.52702C0.610842 4.45432 0.648619 4.37185 0.69983 4.28032C0.751182 4.18855 0.811802 4.1077 0.881887 4.03758L2.48401 2.43549C2.58646 2.33298 2.72263 2.24683 2.89256 2.1766C3.06246 2.10649 3.22031 2.07143 3.36598 2.07143H4.66064V0.517887C4.66064 0.37766 4.71191 0.256223 4.81436 0.153717C4.91678 0.0513522 5.03821 0 5.17844 0H13.4639ZM3.62478 10.3571C3.90526 10.3571 4.14808 10.2544 4.35295 10.0495C4.55802 9.84466 4.66053 9.60182 4.66053 9.32136C4.66053 9.04088 4.55802 8.79792 4.35295 8.593C4.14805 8.38807 3.90526 8.28556 3.62478 8.28556C3.34424 8.28556 3.10148 8.38815 2.89653 8.593C2.69166 8.79792 2.58909 9.04088 2.58909 9.32136C2.58909 9.60182 2.69154 9.84466 2.89653 10.0495C3.10151 10.2545 3.34427 10.3571 3.62478 10.3571ZM4.66053 5.1785H1.55343V4.93585C1.55343 4.86571 1.57766 4.80636 1.62621 4.75779L3.20402 3.18004C3.25253 3.13147 3.31196 3.10726 3.38208 3.10726H4.66053V5.1785ZM10.8746 10.3571C11.155 10.3571 11.3978 10.2544 11.6027 10.0495C11.8078 9.84466 11.9103 9.60182 11.9103 9.32136C11.9103 9.04088 11.8076 8.79804 11.6027 8.593C11.3978 8.38807 11.155 8.28556 10.8746 8.28556C10.594 8.28556 10.3511 8.38815 10.1462 8.593C9.94127 8.79792 9.83877 9.04088 9.83877 9.32136C9.83877 9.60182 9.9413 9.84466 10.1462 10.0495C10.3511 10.2545 10.594 10.3571 10.8746 10.3571Z" fill="#14D75D"/>
</svg>
