<svg width="44" height="45" viewBox="0 0 44 45" fill="none" xmlns="http://www.w3.org/2000/svg">
<g filter="url(#filter0_d)">
<path fill-rule="evenodd" clip-rule="evenodd" d="M35.3444 11.9807L35.3527 12.014C36.1844 15.812 36.1844 19.6636 35.3527 23.4617L35.3444 23.495C34.6717 26.2146 31.6388 29.1329 28.8536 29.74L28.8222 29.7465C26.5701 30.1762 24.3015 30.3906 22.0338 30.3906C21.3663 30.3906 20.6988 30.3698 20.0317 30.3324L16.9559 33.5297C16.1944 34.3226 14.8554 33.7829 14.8554 32.6842V29.6483C12.1742 28.8826 9.36714 26.0984 8.72222 23.4949L8.71483 23.4616C7.88314 19.6636 7.88314 15.812 8.71483 12.014L8.72222 11.9807C9.39588 9.26109 12.4288 6.34281 15.213 5.73568L15.2454 5.72921C19.7494 4.8698 24.3172 4.8698 28.8222 5.72921L28.8536 5.73568C31.6388 6.34281 34.6717 9.26109 35.3444 11.9807ZM28.337 27.2985C30.1667 26.8909 32.4695 24.6851 32.9187 22.9109C33.668 19.4779 33.668 15.9977 32.9187 12.5646C32.4695 10.7904 30.1676 8.58456 28.337 8.17704C24.1546 7.38139 19.913 7.38139 15.7296 8.17704C13.8999 8.58456 11.598 10.7904 11.148 12.5646C10.3994 15.9976 10.3994 19.4778 11.148 22.9108C11.598 24.685 13.8999 26.8908 15.7296 27.2984L15.731 27.2986C15.8126 27.3146 15.8719 27.3852 15.8719 27.4683V32.4974C15.8719 32.7487 16.1787 32.8726 16.3534 32.6905L18.7422 30.2389L20.988 27.9335C21.0214 27.8991 21.0675 27.8805 21.1155 27.8818C23.5274 27.9486 25.9417 27.7539 28.337 27.2985ZM25.7462 25.156L25.7462 25.1559C25.5618 25.1051 25.3843 25.0562 25.2156 24.9862C22.6359 23.9159 20.2617 22.5351 18.3811 20.4185C17.3117 19.2149 16.4746 17.856 15.767 16.4179C15.4662 15.8064 15.2077 15.1734 14.9497 14.5416L14.8605 14.3232C14.5977 13.6811 14.9848 13.0178 15.3924 12.534C15.7749 12.08 16.2671 11.7326 16.8001 11.4765C17.2161 11.2766 17.6265 11.3919 17.9303 11.7445C18.5872 12.5069 19.1905 13.3082 19.6791 14.192C19.9795 14.7355 19.8971 15.3999 19.3526 15.7698C19.2463 15.8421 19.1475 15.9244 19.0489 16.0067L19.0488 16.0067L19.0486 16.0069C19.0245 16.027 19.0005 16.047 18.9764 16.0668C18.8683 16.1558 18.7666 16.2458 18.6924 16.3663C18.557 16.5867 18.5505 16.8468 18.6377 17.0865C19.3092 18.9317 20.4409 20.3666 22.2982 21.1394L22.3776 21.1727C22.6488 21.2872 22.9243 21.4034 23.2362 21.3671C23.6072 21.3237 23.8159 21.0451 24.0258 20.7648C24.1403 20.6119 24.2552 20.4585 24.397 20.3425C24.7898 20.0214 25.2917 20.0172 25.7147 20.2849C26.1378 20.5527 26.5481 20.8402 26.9558 21.1307L27.0382 21.1894L27.0383 21.1894L27.0383 21.1894L27.0383 21.1895C27.4107 21.4545 27.7799 21.7172 28.1236 22.0199C28.4786 22.3326 28.6008 22.7427 28.401 23.1669C28.035 23.9439 27.5026 24.5903 26.7344 25.0029C26.5861 25.0825 26.418 25.1253 26.2483 25.1685C26.1699 25.1884 26.0912 25.2085 26.0139 25.2323C25.9233 25.2048 25.834 25.1802 25.7463 25.156L25.7463 25.156L25.7462 25.156ZM28.7805 16.2579C28.1866 12.922 25.4151 10.6826 22.0408 10.5881C22.0218 10.588 22.0029 10.5877 21.9839 10.5874C21.9375 10.5866 21.8912 10.5859 21.845 10.5885C21.6057 10.6013 21.3937 10.8014 21.4385 11.0526C21.4889 11.3357 21.7735 11.3644 22.0081 11.3881L22.0487 11.3922C22.1673 11.4047 22.2863 11.415 22.4053 11.4252L22.4054 11.4252C22.669 11.448 22.9326 11.4708 23.1919 11.5171C25.6939 11.9633 27.6983 14.0429 28.0476 16.5565C28.1004 16.9364 28.1264 17.3201 28.1524 17.7035L28.1524 17.7039C28.159 17.801 28.1656 17.8981 28.1726 17.9952C28.1902 18.2377 28.3119 18.464 28.5824 18.4608C28.8442 18.4577 28.9817 18.2271 28.9627 17.9844L28.9463 17.7711C28.9078 17.2646 28.8692 16.7563 28.7805 16.2579ZM27.1688 17.2356C27.1674 17.2463 27.1661 17.2606 27.1647 17.2775C27.1603 17.3275 27.154 17.4004 27.1356 17.4702C27.046 17.8089 26.5324 17.8514 26.4142 17.5094C26.3791 17.408 26.3739 17.2926 26.3737 17.1833C26.3725 16.4686 26.2171 15.7547 25.8567 15.1329C25.4863 14.4938 24.9203 13.9565 24.2564 13.6314C23.855 13.4348 23.4208 13.3127 22.9809 13.2399C22.8612 13.2201 22.7406 13.2051 22.6201 13.1902L22.62 13.1901C22.547 13.1811 22.4739 13.172 22.401 13.1619C22.1668 13.1293 22.0418 12.9801 22.0529 12.7494C22.0632 12.5331 22.2213 12.3776 22.4569 12.3909C23.2313 12.4349 23.9793 12.6022 24.6677 12.9668C26.0677 13.7082 26.8674 14.8785 27.1008 16.4411C27.1046 16.4664 27.1092 16.4917 27.1138 16.517C27.1221 16.5622 27.1303 16.6075 27.1337 16.6531C27.143 16.7764 27.1499 16.8998 27.1578 17.0426L27.1579 17.0428C27.1612 17.1031 27.1648 17.1669 27.1688 17.2356ZM24.6075 16.7439C24.6366 17.0028 24.7877 17.159 25.07 17.1539C25.1985 17.1453 25.3303 17.0561 25.3716 16.8781C25.3949 16.7774 25.3853 16.6666 25.3761 16.561L25.3752 16.5506C25.2418 15.0105 24.3068 14.3342 22.9985 14.2397C22.7892 14.2246 22.6028 14.3741 22.5708 14.5657C22.5355 14.7762 22.6596 14.9578 22.8839 15.0128C22.9808 15.0366 23.0794 15.0456 23.1782 15.0546C23.2903 15.0648 23.4026 15.075 23.5127 15.1068C23.6757 15.1538 23.8313 15.2268 23.9686 15.3268C24.2595 15.5387 24.4433 15.8592 24.5282 16.205C24.5652 16.3561 24.5822 16.5126 24.5992 16.6684C24.6019 16.6936 24.6046 16.7188 24.6075 16.7439Z" fill="url(#paint0_linear)"/>
</g>
<defs>
<filter id="filter0_d" x="0.0910645" y="0.0846558" width="43.8854" height="44.8224" filterUnits="userSpaceOnUse" color-interpolation-filters="sRGB">
<feFlood flood-opacity="0" result="BackgroundImageFix"/>
<feColorMatrix in="SourceAlpha" type="matrix" values="0 0 0 0 0 0 0 0 0 0 0 0 0 0 0 0 0 0 127 0"/>
<feOffset dy="3"/>
<feGaussianBlur stdDeviation="4"/>
<feColorMatrix type="matrix" values="0 0 0 0 0.529412 0 0 0 0 0.247059 0 0 0 0 0.721569 0 0 0 0.5 0"/>
<feBlend mode="normal" in2="BackgroundImageFix" result="effect1_dropShadow"/>
<feBlend mode="normal" in="SourceGraphic" in2="effect1_dropShadow" result="shape"/>
</filter>
<linearGradient id="paint0_linear" x1="8.09106" y1="5.08466" x2="8.09106" y2="33.9071" gradientUnits="userSpaceOnUse">
<stop stop-color="#B568D9"/>
<stop offset="1" stop-color="#7E37B1"/>
</linearGradient>
</defs>
</svg>
