<svg width="22" height="22" viewBox="0 0 22 22" fill="none" xmlns="http://www.w3.org/2000/svg">
<path fill-rule="evenodd" clip-rule="evenodd" d="M20.7659 6.13245L5.4696 4.66549C5.38569 4.65534 5.30672 4.65534 5.22774 4.66041L4.61569 1.61482C4.60089 1.55391 4.58608 1.493 4.5614 1.44224C4.46762 1.19859 4.27018 1.00062 4.00858 0.919409L1.09147 0.0361866C0.642302 -0.100865 0.168457 0.163086 0.0351878 0.630078C-0.0980812 1.09199 0.158585 1.57929 0.612687 1.71634L3.04608 2.45236L5.97306 16.9595C6.02736 17.3859 6.38274 17.7159 6.8171 17.7159L19.4036 17.7108C19.8725 17.7108 20.2526 17.3199 20.2526 16.8377C20.2526 16.3555 19.8725 15.9646 19.4036 15.9646L7.51306 15.9697L7.10832 13.9647H19.6257C20.2822 13.9647 20.8498 13.518 20.9683 12.9038L21.9802 7.66033C22.1134 6.90908 21.5606 6.20859 20.7659 6.13245ZM9.23569 22C10.1734 22 10.9336 21.2182 10.9336 20.2539C10.9336 19.2895 10.1734 18.5077 9.23569 18.5077C8.29794 18.5077 7.53774 19.2895 7.53774 20.2539C7.53774 21.2182 8.29794 22 9.23569 22ZM19.0482 20.2539C19.0482 21.2182 18.288 22 17.3503 22C16.4125 22 15.6523 21.2182 15.6523 20.2539C15.6523 19.2895 16.4125 18.5077 17.3503 18.5077C18.288 18.5077 19.0482 19.2895 19.0482 20.2539Z" fill="white"/>
</svg>
