<svg width="14" height="15" viewBox="0 0 14 15" fill="none" xmlns="http://www.w3.org/2000/svg">
<path d="M13.98 3.40872C13.8807 2.4943 13.4216 1.67301 12.6874 1.0962L12.265 0.764214C11.6378 0.271379 10.8478 0 10.0404 0C8.96369 0 7.95913 0.4644 7.28429 1.2742L0.78893 9.06795C0.193874 9.78176 -0.0792498 10.678 0.0199399 11.5914C0.11913 12.5047 0.578761 13.3259 1.31412 13.9038L1.73657 14.2358C2.36368 14.7286 3.1536 15 3.96077 15C4.0854 15 4.21147 14.9935 4.33548 14.9808C5.27046 14.8851 6.11234 14.4439 6.70359 13.7414C6.70557 13.7391 6.70673 13.7378 11.0856 8.4843C11.8655 7.5484 11.7159 6.17086 10.7521 5.41355L10.5307 5.23969C10.1325 4.92674 9.63076 4.75441 9.11818 4.75441C8.43457 4.75441 7.79674 5.04932 7.36822 5.56348L2.99439 10.8114C2.70861 11.1544 2.76342 11.6593 3.11666 11.9368C3.26284 12.0517 3.44679 12.1149 3.63458 12.1149C3.88474 12.1149 4.11841 12.0068 4.27571 11.8182L8.64945 6.5702C8.76386 6.43296 8.93428 6.35424 9.11694 6.35424C9.25576 6.35424 9.38609 6.39902 9.49389 6.48373L9.71535 6.65779C9.83977 6.75555 9.91753 6.89475 9.93437 7.04986C9.95116 7.20497 9.90504 7.3569 9.80432 7.47763L5.43559 12.7196C5.07485 13.1522 4.53787 13.4002 3.9623 13.4002C3.53079 13.4002 3.10856 13.2552 2.77335 12.9918L2.3509 12.6598C1.95778 12.3509 1.71204 11.9118 1.65905 11.4236C1.60603 10.9353 1.752 10.4562 2.07012 10.0745L8.56552 2.28087C8.92626 1.84808 9.4634 1.59984 10.0392 1.59984C10.4708 1.59984 10.8931 1.74486 11.2282 2.00825L11.6506 2.34015C12.4621 2.97781 12.588 4.13759 11.9314 4.9255C11.7929 5.09169 11.7294 5.30022 11.7525 5.5128C11.7756 5.72534 11.8825 5.91647 12.0536 6.05085C12.1998 6.16572 12.3838 6.22901 12.5715 6.22901C12.8217 6.22901 13.0553 6.12086 13.2126 5.93221C13.8068 5.21933 14.0793 4.3231 13.98 3.40872Z" fill="#FF7914"/>
</svg>
