<svg width="14" height="14" viewBox="0 0 14 14" fill="none" xmlns="http://www.w3.org/2000/svg">
<path d="M13.3726 10.342L10.0212 6.99062L13.3726 3.63923C14.1959 2.81586 14.1784 1.45033 13.3547 0.626656C12.531 -0.197022 11.1655 -0.214599 10.3421 0.608777L6.99072 3.96016L3.63934 0.608777C2.81596 -0.214599 1.45044 -0.197022 0.626762 0.626656C-0.196916 1.45033 -0.214494 2.81586 0.608882 3.63923L3.96026 6.99062L0.608882 10.342C-0.214492 11.1654 -0.196916 12.5309 0.626762 13.3546C1.45044 14.1783 2.81597 14.1958 3.63934 13.3725L6.99072 10.0211L10.3421 13.3725C11.1655 14.1958 12.531 14.1783 13.3547 13.3546C14.1784 12.5309 14.1959 11.1654 13.3726 10.342Z" fill="#B8B4B4"/>
</svg>
