<svg width="74" height="54" viewBox="0 0 74 54" fill="none" xmlns="http://www.w3.org/2000/svg">
<path fill-rule="evenodd" clip-rule="evenodd" d="M59.7591 17.2647C67.5101 17.2647 73.8159 23.5755 73.8159 31.3323C73.8159 31.9856 73.7461 33.0528 73.6373 34.32C73.6368 34.3242 73.6367 34.3285 73.6363 34.3327C73.2581 38.7287 72.4114 45.5272 72.3655 45.8949C72.3643 45.9043 72.3626 45.9136 72.3609 45.9228L72.3608 45.9231L72.358 45.9386L72.3541 45.9632C72.3527 45.9716 72.3512 45.98 72.3494 45.9882C72.3453 46.0065 72.3403 46.0244 72.3355 46.0425L72.3298 46.0643L72.3261 46.0782L72.3231 46.0881C72.3158 46.1113 72.3071 46.1337 72.2983 46.156C72.2967 46.1602 72.2952 46.1644 72.2937 46.1687L72.2912 46.1755L72.2881 46.1836C72.2747 46.2153 72.2597 46.2461 72.2434 46.2761L72.2426 46.2778L72.2409 46.2805L72.2404 46.2813C72.2251 46.3093 72.2085 46.3364 72.1909 46.3628C72.1883 46.3668 72.1854 46.3707 72.1825 46.3746L72.1758 46.3837C72.1614 46.404 72.147 46.4242 72.1311 46.4439C72.1264 46.4495 72.1216 46.455 72.1167 46.4605L72.1165 46.4608L72.1082 46.4701C72.0939 46.4864 72.0796 46.5026 72.0646 46.5179L72.056 46.5265L72.0442 46.5377L72.0351 46.5463L72.0173 46.563C72.0091 46.5706 72.0007 46.5781 71.9921 46.5854C71.9831 46.5931 71.9737 46.6005 71.9644 46.6078L71.9568 46.6138L71.9448 46.6231C71.9346 46.6308 71.9244 46.6385 71.9138 46.6459L71.8993 46.6559L71.8883 46.6632L71.8737 46.6726C71.8645 46.6784 71.8551 46.6842 71.8457 46.6899L71.8296 46.6994L71.8098 46.7105L71.7991 46.7163L71.7867 46.7228C71.7712 46.7307 71.7554 46.7382 71.7395 46.7456C71.725 46.7521 71.7107 46.7586 71.6957 46.7645C71.6783 46.7715 71.6605 46.7779 71.6428 46.7839L71.6353 46.7865C71.624 46.7905 71.6127 46.7944 71.6011 46.7978C71.5804 46.804 71.559 46.8092 71.5378 46.8141L71.525 46.8173C71.5177 46.8191 71.5104 46.8209 71.5029 46.8223C71.4755 46.8278 71.4476 46.8317 71.4195 46.835L71.4111 46.8362C71.4076 46.8368 71.4042 46.8373 71.4007 46.8376C71.3655 46.8411 71.3301 46.8432 71.294 46.8432L71.2917 46.8431H66.477C65.9452 50.8763 62.4899 54 58.3171 54C54.1442 54 50.6892 50.8763 50.1575 46.8431H32.8137C32.2822 50.8763 28.8271 54 24.6543 54C20.4813 54 17.0262 50.8763 16.4946 46.8431H11.681L11.6794 46.8432C11.6445 46.8432 11.6093 46.8415 11.5739 46.8381L11.5736 46.838L11.5718 46.8378C11.5397 46.8346 11.5081 46.8295 11.4767 46.8236C11.4746 46.8232 11.4725 46.8229 11.4703 46.8226L11.4637 46.8216C11.4307 46.8148 11.3984 46.8065 11.3664 46.7969L11.3622 46.7958L11.3588 46.7949C11.3306 46.7861 11.3034 46.7757 11.2763 46.7649L11.2689 46.7623C11.2652 46.7611 11.2615 46.7598 11.258 46.7583C11.249 46.7545 11.2401 46.7504 11.2314 46.7461L11.2127 46.7368L11.2003 46.7306C11.1082 46.6851 11.024 46.6271 10.9494 46.5587L10.9378 46.5483C10.9294 46.541 10.9211 46.5337 10.9133 46.5258C10.9121 46.5248 10.9111 46.5236 10.9101 46.5224L10.91 46.5223L10.91 46.5223L10.9072 46.5192C10.7913 46.4012 10.7025 46.2566 10.6501 46.0956C10.6495 46.0932 10.6486 46.0909 10.6477 46.0887L10.646 46.0839C10.6432 46.0749 10.6409 46.0656 10.6387 46.0563L10.6349 46.041C10.6294 46.0207 10.6235 46.0006 10.6193 45.9799C10.6177 45.9719 10.617 45.9637 10.6155 45.9556C10.6105 45.9282 10.6057 45.9006 10.6029 45.8727L10.6022 45.8648L10.602 45.8587C10.6018 45.8545 10.6017 45.8504 10.6013 45.8462C10.5993 45.8188 10.5972 45.7914 10.5972 45.7636L10.5971 45.7608C10.5971 45.7474 10.598 45.7343 10.5989 45.7211L10.6001 45.7012L10.6008 45.6839C10.6011 45.6748 10.6014 45.6657 10.6023 45.6565L10.6027 45.6523L10.6031 45.6484L11.7203 34.1088L11.7206 34.1055L12.4432 26.643H8.7948C8.19749 26.643 7.7135 26.1585 7.7135 25.5608C7.7135 24.9632 8.19749 24.4787 8.7948 24.4787H12.6527L13.9797 10.7725H1.08129C0.483986 10.7725 0 10.288 0 9.69037C0 9.09275 0.483986 8.60825 1.08129 8.60825H14.1893L14.928 0.97781L14.9284 0.975285L14.9287 0.97276C14.9292 0.968053 14.93 0.963469 14.9307 0.958877L14.9307 0.958855C14.9314 0.954869 14.932 0.950875 14.9325 0.946789C14.9361 0.919086 14.9397 0.891528 14.9452 0.864547L14.9466 0.859209L14.9479 0.85387C15.0545 0.357823 15.4951 0 16.003 0.000144284L16.0046 0H28.9801C29.5755 0 30.0614 0.484793 30.0614 1.08213C30.0614 1.67802 29.5755 2.16425 28.9801 2.16425H16.9859L16.362 8.60825H27.5383C28.1356 8.60825 28.6196 9.09275 28.6196 9.69037C28.6196 10.288 28.1356 10.7725 27.5383 10.7725H16.1523L14.8254 24.4787H21.7697C22.367 24.4787 22.851 24.9632 22.851 25.5608C22.851 26.1585 22.367 26.643 21.7697 26.643H14.6157L13.9873 33.1354H51.5599L52.1028 26.8965L52.1034 26.8909L54.2553 2.16425H33.3052C32.7084 2.16425 32.2239 1.67802 32.2239 1.08213C32.2239 0.484793 32.7084 0 33.3052 0H55.4171H55.4204H55.4339C55.4414 0 55.4487 0.000496159 55.4561 0.000993857L55.4561 0.000994966L55.4561 0.000995358C55.4613 0.00134588 55.4665 0.00169692 55.4717 0.00187569L55.4906 0.00237266C55.5031 0.00262917 55.5157 0.00288567 55.5284 0.00403994L55.5328 0.00461707L55.5372 0.00519421C55.5506 0.00639997 55.5639 0.00843848 55.5771 0.0104873L55.5898 0.0124084L55.604 0.0144323C55.6181 0.0163998 55.6322 0.0183701 55.6459 0.0210654C55.6552 0.0228846 55.6643 0.0252198 55.6734 0.027565L55.6896 0.0315981L55.6965 0.0332741C55.7151 0.0377515 55.7338 0.0422414 55.752 0.0477579C55.757 0.0493099 55.7619 0.0511124 55.7669 0.0529184C55.7711 0.0544702 55.7753 0.0560246 55.7797 0.0574249C55.8047 0.0657933 55.8297 0.0744503 55.8538 0.0845502L55.8587 0.0868587L55.8636 0.0891672C56.2515 0.256969 56.5155 0.642928 56.5155 1.08083V1.08198L56.5152 1.0892C56.5151 1.11791 56.5146 1.14662 56.5121 1.17577L55.1119 17.2647H59.7591ZM54.9234 19.4292L54.3584 25.9214H58.782L59.3471 19.4292H54.9234ZM30.7248 45.7607C30.7248 49.1104 28.0017 51.8356 24.6546 51.8356C21.3074 51.8356 18.5842 49.1104 18.5842 45.7607C18.5842 42.411 21.3075 39.6858 24.6546 39.6858C28.0017 39.6858 30.7248 42.411 30.7248 45.7607ZM58.3171 51.8356C61.6643 51.8356 64.3875 49.1104 64.3875 45.7607C64.3875 42.411 61.6643 39.6858 58.3171 39.6858C54.9701 39.6858 52.247 42.411 52.247 45.7607C52.247 49.1104 54.97 51.8356 58.3171 51.8356ZM71.3869 35.2053C71.0723 38.534 70.5638 42.8071 70.3363 44.6781H66.4772C65.9458 40.6447 62.4906 37.5208 58.3174 37.5208C54.1445 37.5208 50.6892 40.6448 50.1578 44.6781H32.8142C32.2828 40.6447 28.8277 37.5208 24.6546 37.5208C20.4815 37.5208 17.0262 40.6448 16.4947 44.6781H12.8697L13.7778 35.2991H52.5508V35.2997H52.5524C52.5886 35.2997 52.6245 35.2977 52.6599 35.2941C52.6666 35.2935 52.673 35.292 52.6797 35.2912C52.7079 35.2879 52.736 35.2838 52.7637 35.2783L52.7764 35.2755L52.7872 35.2727L52.7874 35.2727L52.7992 35.2697C52.8208 35.2645 52.8424 35.2594 52.8635 35.2531C52.8725 35.2504 52.8813 35.2473 52.8901 35.2442L52.9056 35.2387L52.9114 35.2366L52.9235 35.2324C52.9357 35.2281 52.9477 35.2237 52.9595 35.2189C52.9746 35.2127 52.9892 35.2058 53.0039 35.1988C53.0199 35.1915 53.0359 35.1841 53.0513 35.176C53.0646 35.169 53.0776 35.1616 53.0906 35.154L53.095 35.1515C53.1099 35.1429 53.1246 35.1341 53.139 35.1248C53.1472 35.1195 53.1551 35.1141 53.163 35.1085L53.1757 35.0995L53.1797 35.0967C53.1939 35.0866 53.2078 35.0762 53.2216 35.0654C53.234 35.0554 53.2463 35.0452 53.2584 35.0346C53.2721 35.0228 53.2855 35.0107 53.2985 34.9981C53.3094 34.9876 53.3204 34.9768 53.331 34.9657C53.344 34.9521 53.3566 34.9381 53.369 34.9238C53.3786 34.9126 53.3881 34.9013 53.3974 34.8898C53.4093 34.8746 53.4207 34.8591 53.432 34.8433C53.4405 34.8315 53.4487 34.8197 53.4568 34.8075C53.4616 34.8001 53.4663 34.7926 53.4709 34.7849C53.4764 34.7759 53.4818 34.7667 53.487 34.7575L53.4982 34.738C53.5018 34.7318 53.5053 34.7255 53.5085 34.7191C53.5176 34.7021 53.5254 34.6848 53.5336 34.6673L53.5419 34.649C53.5455 34.6412 53.549 34.6333 53.5522 34.6252C53.558 34.6112 53.563 34.597 53.568 34.5827L53.5714 34.5732L53.575 34.5629C53.5792 34.5509 53.5834 34.5388 53.5871 34.5265C53.5918 34.5097 53.5957 34.4926 53.6001 34.4755L53.6033 34.4627L53.6033 34.4624C53.6065 34.4497 53.6097 34.4369 53.6122 34.4239C53.6155 34.4069 53.6175 34.3896 53.6201 34.3722C53.6218 34.3606 53.6237 34.3491 53.6252 34.3375C53.6261 34.3312 53.6269 34.3249 53.6275 34.3186L53.6279 34.3155C53.6281 34.314 53.6284 34.3125 53.6285 34.3109L54.1704 28.0851H59.7588C63.0718 28.0851 64.5659 29.8029 66.1477 31.6218C67.4529 33.1225 68.91 34.7969 71.3869 35.2053ZM71.5717 33.0368C71.623 32.3275 71.6533 31.7382 71.6533 31.3326C71.6533 25.3632 67.2393 20.4073 61.5065 19.5588L60.9471 25.9863C64.4523 26.3779 66.2809 28.4794 67.7787 30.2014C68.9763 31.5785 69.9649 32.7089 71.5717 33.0368ZM28.6193 45.7605C28.6193 43.5728 26.8407 41.7927 24.6546 41.7927C22.4685 41.7927 20.6899 43.5726 20.6899 45.7605C20.6899 47.9485 22.4685 49.7283 24.6546 49.7283C26.8407 49.7283 28.6193 47.9485 28.6193 45.7605ZM24.6546 47.5641C25.6482 47.5641 26.4568 46.7551 26.4568 45.7605C26.4568 44.766 25.6484 43.957 24.6546 43.957C23.6608 43.957 22.8525 44.766 22.8525 45.7605C22.8525 46.7551 23.6608 47.5641 24.6546 47.5641ZM62.2818 45.7605C62.2818 43.5728 60.5032 41.7927 58.3171 41.7927C56.131 41.7927 54.3524 43.5726 54.3524 45.7605C54.3524 47.9485 56.131 49.7283 58.3171 49.7283C60.5032 49.7283 62.2818 47.9485 62.2818 45.7605ZM58.3171 47.5641C59.3109 47.5641 60.1192 46.7551 60.1192 45.7605C60.1192 44.766 59.3109 43.957 58.3171 43.957C57.3233 43.957 56.5149 44.766 56.5149 45.7605C56.5149 46.7551 57.3233 47.5641 58.3171 47.5641ZM11.3175 18.3471C11.3175 17.7495 10.8335 17.265 10.2362 17.265H4.95001C4.3527 17.265 3.86872 17.7495 3.86872 18.3471C3.86872 18.9447 4.3527 19.4292 4.95001 19.4292H10.2362C10.8335 19.4292 11.3175 18.9447 11.3175 18.3471Z" fill="#FF7914"/>
</svg>
