<svg width="32" height="44" viewBox="0 0 32 44" fill="none" xmlns="http://www.w3.org/2000/svg">
<path fill-rule="evenodd" clip-rule="evenodd" d="M27.6197 2.90494H28.3459C30.3481 2.90494 31.977 4.53396 31.9771 6.53617V39.9432C31.9771 41.9797 30.3822 43.5745 28.3459 43.5745H0.748674C0.347823 43.5745 0.0224609 43.2491 0.0224609 42.8483V2.17872C0.0224609 0.977532 0.999993 0 2.20118 0H25.4409C26.6421 0 27.6197 0.977532 27.6197 2.17872V2.90494ZM28.3459 42.122C29.5682 42.122 30.5246 41.1648 30.5246 39.9432H30.5245V6.53609C30.5245 5.35523 29.5266 4.35736 28.3458 4.35736H3.65361C3.25276 4.35736 2.9274 4.032 2.9274 3.63115C2.9274 3.2303 3.25276 2.90494 3.65361 2.90494H26.1671V2.17872C26.1671 1.77855 25.8417 1.45251 25.4408 1.45251H2.2011C1.80093 1.45251 1.47489 1.77855 1.47489 2.17872V42.122H28.3459ZM19.6309 10.1674H12.3685C11.9677 10.1674 11.6423 9.84204 11.6423 9.44119C11.6423 9.04034 11.9677 8.71498 12.3685 8.71498H19.6309C20.0325 8.71498 20.3571 9.04034 20.3571 9.44119C20.3571 9.84204 20.0325 10.1674 19.6309 10.1674ZM22.5359 13.0723H9.46357C9.06272 13.0723 8.73735 12.747 8.73735 12.3461C8.73735 11.9453 9.06272 11.6199 9.46357 11.6199H22.5359C22.9375 11.6199 23.2621 11.9453 23.2621 12.3461C23.2621 12.747 22.9375 13.0723 22.5359 13.0723ZM16.7355 22.0777L15.9921 23.8297L15.2375 22.0818L15.6361 21.8768L14.5288 21.4882L14.5098 21.3614L14.8801 21.1602L14.8173 21.0636L14.4966 21.0168L15.0238 20.565H14.3043C14.435 20.4852 14.5601 20.4023 14.6827 20.321C14.9634 20.1349 15.231 19.9575 15.5237 19.8453C15.8002 19.7393 16.1833 19.7429 16.4612 19.8486C16.7484 19.9577 17.0104 20.133 17.2731 20.3088C17.385 20.3837 17.497 20.4587 17.6112 20.5286H16.9281L17.4855 21.0164H17.0702L17.4887 21.4682L16.3604 21.8746L16.7355 22.0777ZM8.07169 30.7882C7.96755 30.573 7.86323 30.3574 7.75861 30.1414L8.5815 30.0111C8.82575 30.8754 8.94984 30.9279 9.69461 30.4743L10.1536 31.2126L11.0106 30.4663L11.4801 30.9057C11.9673 30.7173 12.2381 30.4398 12.2001 29.8655C12.1917 29.737 12.3314 29.5988 12.4862 29.4455C12.5618 29.3707 12.641 29.2923 12.7084 29.2098C13.0904 29.8591 12.9359 30.4174 12.7708 31.0142C12.7552 31.0705 12.7395 31.1271 12.7242 31.1842C12.7255 31.1838 12.598 31.2669 12.4906 31.2461C12.1945 31.1888 11.9763 31.3384 11.768 31.4812C11.7103 31.5208 11.6533 31.5599 11.5957 31.5938C11.1867 31.8351 11.1215 32.2705 11.1973 32.7204C11.2756 33.1854 11.2315 33.2406 10.7757 33.2344C11.0197 33.6778 11.2123 33.7395 11.7677 33.4998L11.6509 34.0634L12.3993 33.9315L12.4394 34.0473C12.3098 34.0984 12.1812 34.1539 12.0526 34.2095C11.7331 34.3474 11.4136 34.4853 11.0799 34.5559C10.8888 34.5963 10.5873 34.3955 10.4263 34.2211C10.3995 34.192 10.3746 34.1626 10.3505 34.1342C10.2191 33.9792 10.1113 33.8521 9.85146 33.9627C9.78158 33.9924 9.60507 33.9304 9.57205 33.8637C9.06676 32.8446 8.57125 31.8206 8.07169 30.7882ZM15.9277 38.917H16.0128L16.7309 38.5113L16.533 38.286C17.1342 38.5321 17.6252 38.4281 17.9533 37.8627C18.6634 38.1952 18.9851 38.078 19.3603 37.3761L19.6812 37.822C19.729 37.7267 19.7827 37.6332 19.8356 37.5411C20.0977 37.085 20.3407 36.6621 19.7513 36.2154C20.0829 35.6313 19.9824 35.3421 19.3952 35.1462L19.2588 35.6107C19.2036 35.5879 19.1473 35.5669 19.0911 35.5459C18.9681 35.4998 18.845 35.4538 18.7322 35.3896C18.2428 35.1111 17.7618 34.8174 17.2901 34.4864L17.6544 34.5985L17.7461 34.5233C17.6945 34.4664 17.6448 34.4074 17.595 34.3484C17.4846 34.2175 17.3743 34.0867 17.2445 33.9792C16.8949 33.6896 16.8514 33.3835 17.1456 32.9986C17.4223 32.6366 17.9015 32.5099 18.1808 32.7693C18.3041 32.8839 18.4091 33.1269 18.3716 33.273C18.3464 33.3715 18.1984 33.4426 18.0599 33.5092C18.0187 33.529 17.9783 33.5484 17.9423 33.568C17.9077 33.5867 17.8606 33.5825 17.806 33.5775C17.7787 33.575 17.7495 33.5724 17.7191 33.5724C17.8124 34.0318 18.1264 34.0831 18.5476 34.0371L18.331 34.6183C18.355 34.6315 18.3772 34.6459 18.3984 34.6597C18.4409 34.6874 18.4795 34.7126 18.5213 34.7198C18.7647 34.7619 19.0091 34.7998 19.2534 34.8376C19.7634 34.9166 20.2732 34.9955 20.7739 35.1137C21.1045 35.1917 21.4178 35.3501 21.7285 35.5071C21.8098 35.5482 21.8909 35.5892 21.9721 35.6286C22.1906 35.7347 22.3628 35.7647 22.6008 35.6359C22.7729 35.5427 22.9665 35.4902 23.1606 35.4376C23.2729 35.4071 23.3853 35.3766 23.4939 35.3382C24.0176 35.1528 24.2651 34.709 24.509 34.2717C24.5435 34.2099 24.5778 34.1483 24.6129 34.0875C24.8069 33.7515 24.3979 32.8846 23.9496 32.6105C23.8598 32.5556 23.7672 32.5053 23.6746 32.455C23.632 32.4318 23.5893 32.4087 23.5469 32.3851L23.6714 32.3338C23.6537 32.2595 23.6401 32.1826 23.6266 32.1057C23.5929 31.9147 23.5592 31.7237 23.4627 31.5729C23.4068 31.4855 22.9774 31.4913 22.9082 31.5892C22.7731 31.7805 22.7718 32.0663 22.7804 32.3423C22.2476 32.5546 21.9069 32.9869 21.7639 33.5654C21.7161 33.7589 21.7208 33.9997 21.7943 34.1812C21.9266 34.5075 21.8922 34.7058 21.5645 34.7191C20.8543 34.7482 20.2337 34.474 19.658 34.101L19.6917 33.9675L20.3344 34.0632L20.1755 33.4659C20.6316 33.7326 20.9578 33.6942 21.2249 33.2392C20.7132 33.308 20.7449 33.0137 20.7781 32.7053L20.7795 32.6921C20.8555 31.9853 20.6579 31.8121 20.0709 31.4218C19.9086 31.314 19.7279 31.3127 19.5715 31.3116C19.4232 31.3105 19.2968 31.3096 19.2292 31.2179C19.1985 31.0832 19.1667 30.9631 19.1376 30.8527C19.0785 30.6292 19.03 30.4455 19.0218 30.2601C19.0127 30.0514 19.0444 29.8411 19.0762 29.6295C19.0901 29.5369 19.1041 29.444 19.1147 29.351C19.7487 29.4743 19.858 29.5577 19.813 30.0869C19.7786 30.4903 20.0165 30.6366 20.2791 30.798C20.3398 30.8353 20.4018 30.8734 20.462 30.9157L20.9819 30.4783L21.8243 31.1948L22.2857 30.4742C23.0922 30.902 23.1981 30.8598 23.3923 30.0095C24.4566 30.1976 24.5844 30.0982 24.3544 29.2943C24.4154 29.275 24.48 29.2601 24.5445 29.2452C24.6967 29.21 24.8481 29.1749 24.9501 29.0842C25.0173 29.0245 25.0038 28.8741 24.9936 28.761C24.9899 28.7199 24.9866 28.6837 24.9879 28.6587C25.0672 28.6066 25.1556 28.5599 25.2431 28.5136C25.4435 28.4076 25.6396 28.3039 25.7129 28.1438C25.7693 28.0207 25.6777 27.8298 25.5814 27.6291C25.5373 27.5371 25.4922 27.4431 25.4599 27.3526C25.4974 27.3303 25.5431 27.306 25.5937 27.279C25.7262 27.2084 25.8925 27.1198 26.0358 27.0029C26.3487 26.748 26.3161 26.5829 25.9559 26.4205C25.8722 26.3828 25.7857 26.3513 25.6992 26.3197C25.659 26.3051 25.6189 26.2905 25.5789 26.2752C25.6589 26.2122 25.7393 26.1526 25.8185 26.0938C25.9935 25.964 26.1629 25.8383 26.3093 25.6899C26.5849 25.4105 26.5318 25.2853 26.1418 25.1991C26.0308 25.1746 25.9186 25.1555 25.7942 25.1344C25.7331 25.1241 25.6692 25.1132 25.601 25.101C25.6872 25.0321 25.7795 24.9691 25.8717 24.9062C26.2129 24.6733 26.5528 24.4412 26.5812 23.9126L25.7617 23.8361C25.8045 23.7454 25.8497 23.6549 25.8951 23.564C25.9974 23.3593 26.1006 23.1528 26.1793 22.9372C26.3298 22.5249 26.2485 22.4429 25.8292 22.5226C25.7415 22.5393 25.6545 22.5599 25.6143 22.5695C25.6046 22.5718 25.5976 22.5735 25.594 22.5743C25.6252 22.4623 25.6582 22.3491 25.6915 22.2348C25.7806 21.929 25.872 21.6155 25.9367 21.2966C25.954 21.2117 25.9023 21.1128 25.8507 21.0139C25.827 20.9684 25.8032 20.923 25.7862 20.8789C25.7469 20.901 25.7058 20.921 25.6647 20.9411C25.5738 20.9855 25.4829 21.0299 25.4114 21.0955C25.3593 21.1432 25.3089 21.1927 25.2584 21.2422C25.1163 21.3817 24.9743 21.5211 24.7968 21.6212C24.8464 21.5015 24.8996 21.3827 24.9528 21.2639C25.0768 20.9871 25.2008 20.7103 25.2784 20.421C25.3601 20.1168 25.3555 19.7743 25.3136 19.459C25.295 19.3191 25.107 19.1658 24.9595 19.0973C24.9032 19.0711 24.7121 19.2446 24.638 19.362C24.4878 19.6002 24.3477 19.8466 24.2076 20.0928C23.9255 20.5888 23.6437 21.0842 23.2806 21.5111C23.1457 21.6698 23.0184 21.8357 22.891 22.0016C22.6551 22.3088 22.4191 22.6163 22.1339 22.8793C22.0782 22.9307 21.9942 22.9515 21.8915 22.9769C21.8379 22.9902 21.7791 23.0048 21.7166 23.0257C21.6381 23.0999 21.5535 23.1781 21.4652 23.2597C21.2444 23.464 21.0005 23.6896 20.7694 23.9276C20.5345 24.1696 20.3126 24.4299 20.1216 24.7074C19.895 25.0366 19.9381 25.3919 20.1861 25.6892C20.212 25.7202 20.2389 25.7506 20.2655 25.7806C20.4485 25.9876 20.6187 26.18 20.3844 26.4863C20.1204 26.8316 19.7633 26.9206 19.3621 26.8234C19.2711 26.8013 19.1887 26.7439 19.0902 26.6753C19.04 26.6403 18.9856 26.6024 18.9238 26.5648C19.4261 26.3139 19.5311 25.9619 19.3939 25.572L18.2644 25.6469L18.9325 25.0291C18.0926 25.0169 17.7109 24.5972 17.9389 23.8556C18.0513 23.4899 18.2668 23.1263 18.5235 22.841C18.9794 22.3345 19.9063 22.5383 20.1687 23.2263L20.3801 22.8039C20.4853 22.8039 20.5902 22.809 20.6939 22.8141C20.9384 22.8262 21.1763 22.8379 21.3962 22.7807C21.5421 22.7428 21.6436 22.5342 21.7337 22.349C21.7495 22.3165 21.765 22.2847 21.7803 22.2547C21.302 22.5109 21.1478 22.4963 20.214 21.9864L21.0863 22.1755C21.3782 21.8911 21.4496 21.5972 21.1479 21.2633C20.9903 21.0889 20.7756 20.9661 20.5596 20.8425C20.463 20.7872 20.3661 20.7318 20.2739 20.6715C20.3609 20.6441 20.4476 20.6194 20.5335 20.5951C20.7206 20.5419 20.9035 20.4899 21.075 20.4128C21.561 20.1943 21.6836 19.9037 21.556 19.3811C21.5161 19.2177 21.4765 19.0543 21.4348 18.8825C21.4168 18.8081 21.3984 18.7322 21.3795 18.6541C22.1834 18.7091 22.4238 19.2628 22.0971 19.8076C21.9875 19.9905 22.0275 20.2822 22.0619 20.5324C22.0652 20.5564 22.0684 20.5799 22.0715 20.6029C22.0956 20.7854 22.1543 20.9633 22.2139 21.1437C22.2402 21.2235 22.2667 21.3038 22.2904 21.3852C22.7034 21.2988 22.8222 21.0395 22.5783 20.4979L23.5111 20.6086C23.5146 20.5881 23.5248 20.5556 23.5367 20.5173C23.5712 20.4065 23.6207 20.2478 23.5669 20.1955C23.4672 20.0988 23.317 20.054 23.1544 20.0056C23.0841 19.9847 23.0115 19.9631 22.9396 19.9362C22.9518 19.9196 22.9651 19.9004 22.9795 19.8795C23.0151 19.8279 23.0574 19.7666 23.1069 19.7115C23.5038 19.2703 23.3832 18.8379 22.835 18.61C22.5772 18.5029 22.3401 18.325 22.1245 18.1427C22.1066 18.1275 22.0889 18.1123 22.0713 18.0972C21.859 17.9145 21.6634 17.7462 21.3478 17.9143C20.6341 18.2943 20.5406 18.4178 20.6571 18.9026C20.6898 19.0391 20.7429 19.1721 20.7995 19.3011C21.1187 20.0274 20.9909 20.2676 20.1182 20.4486C20.1302 20.3899 20.14 20.3335 20.1495 20.2788C20.1692 20.1662 20.1874 20.0616 20.2204 19.9618C20.4654 19.2207 20.3824 19.0635 19.5842 18.8812C19.5896 18.8437 19.5968 18.8056 19.6041 18.7672C19.6208 18.6786 19.6378 18.5882 19.6341 18.4988C19.6289 18.373 19.6186 18.1932 19.5402 18.1394C19.4566 18.0818 19.2484 18.0983 19.1736 18.1678C19.1195 18.218 19.1345 18.3517 19.1475 18.4674C19.1501 18.4904 19.1526 18.5127 19.1544 18.5335C19.1609 18.605 19.1811 18.6754 19.2038 18.7541C19.2144 18.7911 19.2256 18.83 19.2361 18.8717C19.1921 18.8813 19.1521 18.8893 19.1149 18.8968C19.0425 18.9113 18.9806 18.9236 18.9205 18.9417C18.4749 19.0752 18.3796 19.2495 18.4985 19.6981C18.5394 19.852 18.5788 20.0063 18.6227 20.1775C18.6438 20.26 18.6658 20.3463 18.6896 20.4384C18.027 20.3053 17.5282 19.9991 17.1243 19.562C17.0322 19.4624 17.0661 19.1938 17.1174 19.0262C17.1637 18.8748 17.2346 18.7314 17.3057 18.5877C17.3606 18.4768 17.4156 18.3656 17.4593 18.2506C17.5829 17.9255 17.5824 17.5809 17.3104 17.3416C17.021 17.0871 16.6707 16.9195 16.2274 17.0493C16.2417 16.9628 16.2581 16.8774 16.2744 16.7927C16.3127 16.5937 16.3502 16.3988 16.3576 16.2028C16.3638 16.0399 16.3194 15.8181 16.2104 15.7249C16.1132 15.6418 15.8572 15.6387 15.7434 15.7121C15.6398 15.7789 15.5835 15.9997 15.5944 16.1462C15.6101 16.3575 15.655 16.5666 15.7018 16.7843C15.7214 16.8757 15.7414 16.9687 15.7596 17.0639C15.3011 16.9164 14.9245 17.0843 14.6269 17.3696C14.3397 17.6448 14.3924 18.0172 14.5268 18.3647C14.588 18.5229 14.6624 18.6769 14.74 18.828C15.0313 19.3947 15.0242 19.5155 14.4989 19.8811C14.2635 20.0449 14.0052 20.1759 13.7469 20.3068C13.6308 20.3657 13.5148 20.4246 13.4007 20.4864L13.2912 20.3984C13.3082 20.3351 13.3252 20.2718 13.3421 20.2084C13.3807 20.064 13.4193 19.9196 13.4593 19.7756C13.5953 19.2856 13.5105 19.0777 13.0265 18.9467C12.7451 18.8705 12.7384 18.7675 12.8161 18.5297C12.8547 18.4116 12.8052 18.2405 12.74 18.1246C12.7133 18.0772 12.4778 18.071 12.4453 18.119C12.373 18.2261 12.3526 18.3778 12.3413 18.5139C12.3345 18.5963 12.3477 18.6804 12.3606 18.7626C12.3662 18.7984 12.3718 18.8339 12.3756 18.8687C11.5624 19.096 11.4926 19.24 11.7683 20.0272C11.7977 20.1112 11.8128 20.2001 11.8289 20.2948C11.8367 20.3408 11.8448 20.388 11.8548 20.4367C11.0006 20.2997 10.8366 20.004 11.1604 19.2725C11.4966 18.5126 11.3166 18.0904 10.5105 17.8895C10.3385 17.8466 10.0584 17.9621 9.92499 18.0989C9.67435 18.3559 9.4449 18.5766 9.07409 18.6801C8.55086 18.8261 8.46575 19.3086 8.8455 19.6996C8.90405 19.7599 8.9609 19.8223 9.01248 19.8886C9.02652 19.9065 9.01835 19.9418 9.0175 19.9307C8.95182 19.9565 8.88409 19.9784 8.81723 20C8.65502 20.0523 8.4979 20.1031 8.38737 20.2045C8.33845 20.2494 8.39335 20.4074 8.43424 20.525C8.44919 20.5681 8.46227 20.6057 8.46771 20.6304L9.33844 20.5449C9.19044 21.0725 9.29282 21.2802 9.65937 21.4024C9.69009 21.3122 9.72461 21.2231 9.759 21.1342C9.83831 20.9293 9.91697 20.7261 9.94695 20.5159C9.98184 20.2709 9.9512 19.9856 9.85443 19.7588C9.57188 19.0967 9.75231 18.7655 10.47 18.6805C10.47 18.8198 10.4562 18.967 10.4423 19.1142C10.4105 19.4518 10.3786 19.7901 10.5133 20.038C10.6417 20.2745 10.9442 20.4164 11.2418 20.556C11.3712 20.6168 11.4997 20.677 11.6125 20.7445C11.6033 20.7494 11.5892 20.7582 11.5712 20.7696C11.5103 20.808 11.4044 20.8749 11.2889 20.9122C10.6249 21.1269 10.4608 21.6752 10.8767 22.1926L11.8046 21.986L11.8302 22.1396C11.6662 22.1568 11.5053 22.217 11.3444 22.2773C10.9968 22.4075 10.6488 22.5379 10.268 22.2347C10.2415 22.8586 10.722 23.0412 11.5452 22.7006L11.7896 23.2067C12.0606 22.5966 12.2852 22.4941 12.9051 22.6511C13.584 22.8233 14.1109 23.5146 14.0993 24.2178C14.0904 24.755 13.7141 25.0412 13.1695 24.9246C13.1628 25.0747 13.1589 25.1614 13.1928 25.2294C13.2393 25.3227 13.3569 25.3806 13.636 25.5178L13.6282 25.6447L12.6218 25.5766C12.4375 25.9669 12.5035 26.188 12.9758 26.5479C12.6294 26.9635 11.9378 26.958 11.623 26.5345C11.4218 26.2641 11.4543 26.0201 11.6895 25.7757C12.0757 25.3746 12.1081 25.058 11.7913 24.6064C11.6224 24.3658 11.4212 24.1401 11.2014 23.9449C10.956 23.7268 10.6968 23.5241 10.4376 23.3214C10.3287 23.2363 10.2198 23.1511 10.1119 23.0648L10.2058 23.0031C10.1608 22.9868 10.1107 22.9747 10.0606 22.9625C9.95214 22.9363 9.84365 22.91 9.78635 22.8412C9.28312 22.2361 8.78192 21.6266 8.32584 20.9859C8.10994 20.6826 7.9203 20.3608 7.73057 20.0388C7.60356 19.8232 7.4765 19.6076 7.3415 19.3974C7.28568 19.3104 7.19867 19.2435 7.11166 19.1766C7.07172 19.1458 7.03178 19.1151 6.99486 19.0824C6.95812 19.1285 6.91409 19.1733 6.87006 19.218C6.77434 19.3153 6.6786 19.4125 6.65767 19.5239C6.52465 20.2326 6.79554 20.8579 7.14422 21.4555C7.17326 21.5052 7.20345 21.5542 7.23365 21.6033C7.26258 21.6503 7.29152 21.6973 7.31946 21.7449C7.32145 21.7483 7.31757 21.7551 7.297 21.7913C7.28069 21.82 7.25389 21.8672 7.2112 21.9458L6.28848 20.8082C5.85205 21.3144 5.89912 21.6802 6.4655 22.5639L5.62695 22.4939L6.18227 23.8454L5.36141 23.9133C5.46507 24.5555 5.92184 24.8256 6.45427 25.1077C6.36706 25.1247 6.28782 25.1395 6.21398 25.1534C6.06615 25.181 5.93995 25.2047 5.81486 25.2333C5.45665 25.3155 5.41197 25.4397 5.6798 25.7042C5.82251 25.8452 5.98419 25.9671 6.15214 26.0936C6.22858 26.1512 6.30631 26.2098 6.38414 26.2716C6.35925 26.2811 6.33377 26.2905 6.30794 26.3001C6.25331 26.3203 6.19711 26.3411 6.14158 26.3636C5.64448 26.5654 5.60465 26.7128 5.99571 27.0675C6.24005 27.2891 6.2192 27.4212 5.93988 27.5734C5.59844 27.7595 5.5935 28.0935 5.78703 28.3344C5.93946 28.5241 6.14859 28.6684 6.3575 28.8126C6.44333 28.8719 6.52913 28.9311 6.61095 28.9934C6.6343 29.0112 6.66427 29.025 6.69368 29.0385C6.74026 29.0598 6.78542 29.0806 6.80065 29.1156C7.35673 30.3902 7.90533 31.6681 8.45307 32.9462C8.48094 33.0112 8.50898 33.0762 8.53703 33.1413C8.68009 33.4729 8.82325 33.8048 8.94422 34.1444C8.99026 34.2736 8.98703 34.4566 8.92984 34.5793C8.76065 34.9418 8.79035 35.3372 9.07324 35.5817C9.15484 35.6522 9.24588 35.7121 9.3368 35.772C9.44369 35.8424 9.5504 35.9127 9.64141 35.9999C9.72792 36.0827 9.80076 36.1801 9.87352 36.2773C9.95244 36.3828 10.0313 36.4882 10.1274 36.5748C10.2114 36.6504 10.3272 36.6907 10.4431 36.731C10.4951 36.7491 10.5471 36.7671 10.5962 36.7884C10.6048 36.7386 10.6198 36.6863 10.6348 36.6341C10.6673 36.5212 10.6997 36.4082 10.6669 36.3195C10.4181 35.6479 10.8522 35.4091 11.2771 35.1752C11.3275 35.1475 11.3777 35.1198 11.4267 35.0915C11.971 34.7772 12.5685 34.7166 13.1929 34.749C13.8629 34.7835 13.9206 34.6722 13.6439 34.1632L14.3987 33.6539C14.3206 33.6264 14.2685 33.6057 14.232 33.5912C14.1796 33.5704 14.1593 33.5624 14.1407 33.5652C13.8039 33.6156 13.5684 33.5167 13.5644 33.1386C13.5613 32.8529 13.9246 32.6036 14.2421 32.6489C14.6526 32.7075 15.0564 33.1168 15.0263 33.5209C15.0164 33.6533 14.8988 33.7841 14.7902 33.9048C14.7668 33.9308 14.7438 33.9563 14.7224 33.9813C14.6228 34.0978 14.5118 34.2044 14.4008 34.3111C14.3525 34.3576 14.3041 34.4041 14.2567 34.4514L14.337 34.5637L14.7229 34.4717C14.6996 34.5017 14.683 34.5257 14.6696 34.5449C14.6481 34.5759 14.6354 34.5942 14.6179 34.6046C14.5204 34.6627 14.4229 34.721 14.3254 34.7793C13.9383 35.0109 13.5511 35.2424 13.1572 35.4618C13.063 35.5143 12.9536 35.5396 12.8442 35.5648C12.794 35.5764 12.7438 35.588 12.6951 35.6022L12.5867 35.1498C12.0186 35.2971 11.8928 35.6407 12.2418 36.2145C11.6644 36.6098 11.868 37.018 12.1105 37.5042C12.1779 37.6393 12.2483 37.7804 12.3058 37.929L12.6618 37.5137C12.6979 37.5463 12.7371 37.5889 12.7799 37.6353C12.8915 37.7566 13.0273 37.9041 13.195 37.9691C13.3553 38.0311 13.5453 38.0163 13.7353 38.0015C13.8186 37.995 13.902 37.9886 13.9829 37.9886L13.9703 37.8858C14.0367 37.9356 14.1011 37.9911 14.1655 38.0466C14.3129 38.1736 14.4603 38.3005 14.6311 38.3598C14.7912 38.4154 14.9747 38.4033 15.1763 38.39C15.2701 38.3839 15.3677 38.3774 15.4686 38.3774L15.9277 38.917Z" fill="black"/>
</svg>
