<svg width="32" height="37" viewBox="0 0 32 37" fill="none" xmlns="http://www.w3.org/2000/svg">
<path fill-rule="evenodd" clip-rule="evenodd" d="M23.9284 11.396L30.3049 17.7728C31.3444 18.8064 31.9272 20.2131 31.9233 21.679V36.2206C31.9233 36.5597 31.6484 36.8345 31.3094 36.8345H24.5564C21.0671 36.83 18.1547 34.17 17.8345 30.6954H3.06954C1.375 30.6933 0.00209833 29.3204 0 27.6259V3.06954C0.00209833 1.375 1.375 0.00209833 3.06954 0H22.7146C23.0537 0 23.3285 0.27488 23.3285 0.613909V10.9418C23.5462 11.0683 23.7476 11.2209 23.9284 11.396ZM1.22782 3.06954V27.6259C1.22782 28.643 2.05246 29.4676 3.06954 29.4676L17.8034 29.4523C17.8037 28.964 17.6088 28.4961 17.2626 28.152L14.2143 25.0995C14.212 25.0975 14.2095 25.0961 14.2071 25.0948C14.2058 25.0941 14.2045 25.0934 14.2032 25.0927C14.202 25.0919 14.2008 25.091 14.1996 25.0899C14.1977 25.0878 14.1964 25.0854 14.195 25.0829L14.1941 25.0813C14.1935 25.0801 14.1928 25.0789 14.192 25.0778C14.1914 25.0769 14.1906 25.076 14.1897 25.0752L13.4532 24.3348C12.6499 23.5656 12.3255 22.4224 12.6052 21.3459C12.8849 20.2695 13.7245 19.4287 14.8007 19.1478C15.8765 18.8669 17.0204 19.1897 17.7905 19.9919L22.1007 24.3022V1.22782H3.06954C2.05246 1.22782 1.22782 2.05246 1.22782 3.06954ZM14.3195 23.4643C13.9721 23.1199 13.7767 22.6508 13.7767 22.1619C13.7767 21.6727 13.9721 21.2038 14.3195 20.8594C15.0468 20.1643 16.1921 20.1643 16.9194 20.8594L17.241 21.1805L14.6373 23.7842L14.3195 23.4643ZM24.5564 35.6067H30.6954V21.679C30.6981 20.539 30.2452 19.4448 29.437 18.6406L23.3285 12.533V25.53L24.9904 27.1918C25.223 27.4329 25.2197 27.8156 24.9829 28.0525C24.7461 28.2893 24.3633 28.2926 24.1223 28.06L18.1103 22.048L15.506 24.652L18.1337 27.2833C18.7098 27.8579 19.033 28.6385 19.0312 29.4523V30.0815C19.0345 33.1316 21.5063 35.6034 24.5564 35.6067Z" fill="black"/>
<path d="M3.06996 7.36696C3.40899 7.36696 3.68387 7.09208 3.68387 6.75305V4.29742C3.68387 3.95839 3.95875 3.68351 4.29778 3.68351H6.75342C7.09245 3.68351 7.36733 3.40863 7.36733 3.0696C7.36733 2.73057 7.09245 2.45569 6.75342 2.45569H4.29778C3.2807 2.45569 2.45605 3.28033 2.45605 4.29742V6.75305C2.45605 7.09208 2.73093 7.36696 3.06996 7.36696Z" fill="black"/>
<path d="M6.75342 27.0119H4.29778C3.95875 27.0119 3.68387 26.7371 3.68387 26.398V23.9424C3.68387 23.6034 3.40899 23.3285 3.06996 23.3285C2.73093 23.3285 2.45605 23.6034 2.45605 23.9424V26.398C2.45605 27.4151 3.2807 28.2398 4.29778 28.2398H6.75342C7.09245 28.2398 7.36733 27.9649 7.36733 27.6259C7.36733 27.2868 7.09245 27.0119 6.75342 27.0119Z" fill="black"/>
<path fill-rule="evenodd" clip-rule="evenodd" d="M17.8036 10.4365C17.8036 7.04586 15.0551 4.29736 11.6645 4.29736C8.27389 4.29736 5.52539 7.04586 5.52539 10.4365C5.52539 13.827 8.27389 16.5755 11.6645 16.5755C15.0536 16.5719 17.8 13.8255 17.8036 10.4365ZM16.5335 9.82254H15.3302C15.2802 8.63429 14.9834 7.46943 14.4582 6.40258C15.6039 7.19634 16.3584 8.43975 16.5335 9.82254ZM11.0506 9.82254V5.70923C10.1747 6.21283 9.36592 7.74521 9.23043 9.82254H11.0506ZM11.0506 11.0504V15.1637C10.1747 14.6583 9.36592 13.1259 9.23043 11.0504H11.0506ZM12.2784 11.0504V15.1637C13.1543 14.6601 13.963 13.1277 14.0985 11.0504H12.2784ZM12.2784 9.82254V5.70923C13.1543 6.21463 13.963 7.747 14.0985 9.82254H12.2784ZM7.99871 9.82254C8.04877 8.63429 8.34553 7.46943 8.87071 6.40258C7.72503 7.19634 6.97053 8.43975 6.79547 9.82254H7.99871ZM6.79547 11.0504H7.99871C8.04877 12.2386 8.34553 13.4035 8.87071 14.4703C7.72503 13.6766 6.97053 12.4332 6.79547 11.0504ZM15.3302 11.0504C15.2802 12.2386 14.9834 13.4035 14.4582 14.4703C15.6039 13.6766 16.3584 12.4332 16.5335 11.0504H15.3302Z" fill="black"/>
</svg>
