<svg width="58" height="60" viewBox="0 0 58 60" fill="none" xmlns="http://www.w3.org/2000/svg">
<path fill-rule="evenodd" clip-rule="evenodd" d="M57.7372 24.575C57.9904 24.1553 57.8537 23.6115 57.4319 23.3597L48.4205 17.9819C48.4232 17.953 48.4246 17.9237 48.4246 17.894V0.885773C48.4246 0.396423 48.0258 0 47.5336 0H43.6125C43.1207 0 42.7214 0.396423 42.7214 0.885773C42.7214 1.37512 43.1207 1.77155 43.6125 1.77155H46.6425V16.9208L38.6741 12.1655H42.7813C43.2731 12.1655 43.6723 11.7691 43.6723 11.2798C43.6723 10.7904 43.2731 10.394 42.7813 10.394H35.8499C35.8066 10.394 35.7643 10.3981 35.7224 10.4041L32.3405 8.38623H42.7808C43.2731 8.38623 43.6719 7.98935 43.6719 7.5C43.6719 7.01111 43.2731 6.61423 42.7808 6.61423H29.4735C29.4417 6.61423 29.4109 6.61606 29.38 6.61926L24.8336 3.9061C24.4173 3.65753 23.8601 3.79623 23.6105 4.20959L23.2997 4.72458H14.2648C13.773 4.72458 13.3737 5.121 13.3737 5.61035V15.0595C13.3737 15.5484 13.773 15.9453 14.2648 15.9453H16.5235L10.4036 26.0797V1.77155H39.4938C39.9861 1.77155 40.3849 1.37512 40.3849 0.885773C40.3849 0.396423 39.9861 0 39.4938 0H9.5125C9.02024 0 8.62099 0.396423 8.62099 0.885773V29.0309L0.127198 43.0962C-0.126073 43.5155 0.0106935 44.0598 0.432505 44.3115L26.5116 59.8741C26.7115 59.9936 26.9601 60.0302 27.1862 59.9739L37.6196 57.3839C37.8462 57.3276 38.0474 57.1793 38.1676 56.9801L44.1181 47.1272H47.5336C48.0258 47.1272 48.4251 46.7303 48.4251 46.241V39.9953L57.7372 24.575ZM17.5932 14.1737H17.5919H15.1563V6.49612H22.2299L17.5932 14.1737ZM28.8412 57.7368L34.4556 56.3429L35.1007 56.1832L31.1893 53.849L28.8412 57.7368ZM46.6425 42.9469V45.3552H45.1883L46.6425 42.9469ZM37.0983 55.3088L55.7506 24.4226L24.6802 5.88089L2.11422 43.2481L26.6649 57.8993L30.12 52.1777C30.3733 51.7584 30.9208 51.6225 31.3426 51.8742L37.0983 55.3088ZM30.4548 14.9062C30.2015 15.3259 30.3383 15.8702 30.7601 16.122L37.2798 20.0125C37.4234 20.0981 37.5814 20.1389 37.7375 20.1389C38.04 20.1389 38.3352 19.9855 38.5024 19.709C38.7561 19.2892 38.6193 18.7454 38.1971 18.4932L31.6774 14.6027C31.2556 14.3509 30.7081 14.4868 30.4548 14.9062ZM40.5396 21.958C40.1178 21.7062 39.981 21.162 40.2343 20.7422C40.4876 20.3229 41.0351 20.1869 41.4569 20.4387L50.4218 25.7886C50.8054 26.0175 50.9601 26.5118 50.7736 26.9165C50.5549 27.3898 49.9544 27.5757 49.5045 27.3074L40.5396 21.958ZM21.8146 16.3628C21.5613 16.7821 21.6981 17.3264 22.1199 17.5781L29.4546 21.9553C29.5983 22.0409 29.7562 22.0816 29.9123 22.0816C30.2149 22.0816 30.5101 21.9283 30.6772 21.6518C30.9309 21.2325 30.7942 20.6882 30.3719 20.4364L23.0372 16.0593C22.6154 15.8075 22.0678 15.9435 21.8146 16.3628ZM47.4861 30.6496C47.8702 30.8784 48.0249 31.3728 47.8379 31.7775C47.6197 32.2508 47.0187 32.4367 46.5688 32.1684L32.7144 23.9008C32.2926 23.649 32.1559 23.1047 32.4091 22.6854C32.6624 22.2656 33.2099 22.1297 33.6317 22.3814L47.4861 30.6496ZM45.3918 35.8282C45.5788 35.4231 45.4236 34.9292 45.04 34.7003L20.591 20.11C20.1692 19.8582 19.6217 19.9937 19.3684 20.4135C19.1152 20.8328 19.2519 21.3771 19.6737 21.6289L44.1227 36.2192C44.5726 36.4874 45.1735 36.3016 45.3918 35.8282ZM42.5939 38.7506C42.9774 38.9795 43.1326 39.4739 42.9457 39.879C42.7274 40.3523 42.1264 40.5382 41.6766 40.2699L22.9326 29.084C22.5104 28.8322 22.3736 28.288 22.6269 27.8687C22.8806 27.4493 23.4277 27.3134 23.8499 27.5652L42.5939 38.7506ZM14.4762 28.515C14.2229 28.9343 14.3597 29.4786 14.7815 29.7304L29.4509 38.4842C29.5946 38.5698 29.7525 38.6105 29.9087 38.6105C30.2112 38.6105 30.5064 38.4572 30.6735 38.1807C30.9268 37.7614 30.79 37.2171 30.3682 36.9653L15.6988 28.2111C15.2765 27.9593 14.7294 28.0952 14.4762 28.515ZM40.1477 42.8014C40.5313 43.0302 40.686 43.5246 40.4995 43.9293C40.2813 44.4026 39.6803 44.5889 39.2304 44.3202L32.7108 40.4297C32.2885 40.1779 32.1517 39.6336 32.4054 39.2143C32.6587 38.7946 33.2062 38.6591 33.6281 38.9108L40.1477 42.8014ZM12.03 32.5653C11.7767 32.9851 11.9135 33.5294 12.3353 33.7807L18.0399 37.1851C18.1836 37.2711 18.3415 37.3119 18.4976 37.3119C18.8006 37.3119 19.0958 37.1585 19.263 36.8816C19.5163 36.4622 19.3795 35.918 18.9572 35.6662L13.2526 32.2618C12.8308 32.01 12.2833 32.146 12.03 32.5653ZM37.7016 46.8521C38.0852 47.081 38.2399 47.5754 38.0534 47.98C37.8347 48.4534 37.2342 48.6392 36.7843 48.371L21.2997 39.1306C20.8779 38.8788 20.7412 38.3345 20.9944 37.9152C21.2482 37.4959 21.7952 37.3599 22.2175 37.6117L37.7016 46.8521ZM35.6068 52.0308C35.7938 51.6261 35.639 51.1317 35.2554 50.9029L10.8065 36.3126C10.3842 36.0608 9.83715 36.1967 9.58388 36.6161C9.33061 37.0354 9.46738 37.5797 9.88919 37.8314L34.3381 52.4217C34.7876 52.69 35.3885 52.5041 35.6068 52.0308ZM18.1398 46.1993C18.5616 46.4511 18.6984 46.9954 18.4451 47.4147C18.278 47.6917 17.9828 47.845 17.6803 47.845C17.5242 47.845 17.3662 47.8043 17.2225 47.7182L7.44305 41.8822C7.02078 41.6304 6.88401 41.0861 7.13728 40.6668C7.39101 40.2475 7.93808 40.1115 8.36035 40.3633L18.1398 46.1993ZM27.4561 52.6772C27.643 52.2725 27.4883 51.7781 27.1043 51.5492L21.3997 48.1448C20.9774 47.8931 20.4303 48.029 20.1771 48.4483C19.9233 48.8676 20.0601 49.4119 20.4824 49.6637L26.187 53.0681C26.6369 53.3363 27.2378 53.1505 27.4561 52.6772Z" fill="#FF7914"/>
</svg>
