<svg width="54" height="60" viewBox="0 0 54 60" fill="none" xmlns="http://www.w3.org/2000/svg">
<path fill-rule="evenodd" clip-rule="evenodd" d="M54 58.8281C54 51.5943 49.2913 44.7764 42.8035 42.6168L37.2238 40.7605L35.2208 36.7612C37.0253 34.9277 38.2783 32.5017 38.7007 29.9713L38.9506 28.4766H41.087C43.0288 28.4766 44.6087 26.8995 44.6087 24.9609V17.5781C44.6087 7.88555 36.7094 0 27 0C17.2657 0 9.3913 7.86293 9.3913 17.5781V24.9609C9.3913 26.4886 10.3728 27.7913 11.7391 28.275V29.6484C11.7391 31.587 13.319 33.1641 15.2609 33.1641H16.2918C16.8007 34.2676 17.4594 35.2897 18.2609 36.2079C18.4271 36.3987 18.6005 36.5836 18.7781 36.7635L16.7762 40.7605L11.1964 42.6169C4.7088 44.7764 0 51.5943 0 58.8281C0 59.4754 0.525561 60 1.17391 60H52.8261C53.4743 60 54 59.4754 54 58.8281ZM41.087 47.5781C41.087 46.9313 40.561 46.4062 39.913 46.4062C39.265 46.4062 38.7391 46.9313 38.7391 47.5781C38.7391 48.225 39.265 48.75 39.913 48.75C40.561 48.75 41.087 48.225 41.087 47.5781ZM42.2609 24.9609V18.75H39.8789L39.8768 18.8184C39.8754 18.8625 39.8741 18.9066 39.8725 18.9516C39.7926 21.37 39.5937 23.8254 39.2953 26.1328H41.087C41.7343 26.1328 42.2609 25.6071 42.2609 24.9609ZM12.913 26.1327V26.1328C12.2657 26.1328 11.7391 25.6071 11.7391 24.9609V18.75H14.1219C14.1258 18.8722 14.1299 18.995 14.1345 19.1187L14.135 19.1312V19.1323C14.2171 21.4845 14.4134 23.8761 14.705 26.1327H12.913ZM15.2609 30.8203H15.4731C15.4054 30.5391 15.3468 30.2559 15.2991 29.9718L15.0493 28.4766H14.087V29.6484C14.087 30.2946 14.6136 30.8203 15.2609 30.8203ZM25.9495 4.6875C19.4531 4.6875 14.1734 9.93434 14.089 16.4062H11.7837C12.3783 8.55223 18.9443 2.34375 27 2.34375C35.0199 2.34375 41.6147 8.55141 42.2161 16.4062H39.9112C39.8266 9.93434 34.5472 4.6875 28.0508 4.6875H25.9495ZM25.9493 7.03125C21.0193 7.03125 16.9783 10.8034 16.4867 15.5752C18.4816 13.1527 21.4995 11.7188 24.6522 11.7188C24.9635 11.7188 25.262 11.8423 25.4822 12.062C28.3323 14.9071 32.0987 16.787 36.0876 17.3556L37.5559 17.565L37.5561 17.5535C37.5623 17.2614 37.5652 16.9403 37.5652 16.5715C37.5683 11.3263 33.3108 7.03125 28.0507 7.03125H25.9493ZM21.3304 30.8203H17.9069C17.3192 28.8688 16.6468 23.1266 16.4982 19.4469L18.0781 17.3439C19.5292 15.4131 21.7868 14.2134 24.1882 14.0757C27.3481 17.0776 31.4359 19.06 35.7556 19.6757L37.4839 19.9222C37.3684 22.3697 37.1323 24.8257 36.7941 27.0845L36.7937 27.0868C36.7188 27.5928 36.6549 27.9731 36.5499 28.5988L36.5497 28.5995C36.504 28.8717 36.4505 29.1903 36.385 29.5857C35.7633 33.3082 32.9809 36.6744 29.3078 37.5912C27.7961 37.9679 26.2036 37.9678 24.6928 37.5912C22.3993 37.0188 20.2964 35.4347 18.9392 33.1641H21.3323C21.8169 34.528 23.1217 35.5078 24.6522 35.5078H27C28.9458 35.5078 30.5217 33.9347 30.5217 31.9922C30.5217 30.0537 28.9419 28.4766 27 28.4766H24.6522C23.0877 28.4766 21.8021 29.4853 21.3304 30.8203ZM24.5534 39.9628L26.8454 42.2509L28.9197 40.061C28.2846 40.1651 27.6422 40.2188 27 40.2188C26.1796 40.2188 25.3586 40.1321 24.5534 39.9628ZM20.2781 39.0096L25.2315 43.9546L21.5081 47.8853C20.483 45.9266 19.6022 43.8881 18.8798 41.8013L20.2781 39.0096ZM33.523 38.6126L28.5061 43.9088L32.4913 47.887C33.5153 45.9307 34.3964 43.8915 35.12 41.8011L33.523 38.6126ZM24.6522 33.1641C24.0049 33.1641 23.4783 32.6384 23.4783 31.9922C23.4783 31.3452 24.0039 30.8203 24.6522 30.8203H27C27.6473 30.8203 28.1739 31.346 28.1739 31.9922C28.1739 32.6393 27.6481 33.1641 27 33.1641H24.6522ZM2.39478 57.6562H24.8858L23.4416 55.3419C22.2697 53.7776 21.1888 52.1298 20.2284 50.4436L20.2283 50.4434L20.2217 50.4315C18.9073 48.1243 17.7857 45.6954 16.8804 43.1964L11.9389 44.8403C6.73028 46.5742 2.86 51.8509 2.39478 57.6562ZM28.2805 54.559L28.2803 54.5593C28.0505 54.9282 27.663 55.5502 27 56.6116L25.4079 54.0601C25.3901 54.0315 25.3711 54.0037 25.3509 53.9768C24.4003 52.7109 23.5135 51.3871 22.7058 50.032L26.8924 45.6124L31.3037 50.0161C30.4906 51.381 29.6008 52.7104 28.6493 53.9766L28.6389 53.9904C28.6136 54.0245 28.591 54.0606 28.2805 54.559ZM29.1142 57.6562H51.6052C51.14 51.8509 47.2697 46.5742 42.061 44.8403L37.1196 43.1964C36.221 45.6768 35.1112 48.0846 33.8134 50.3698L33.8113 50.3735L33.8015 50.3913L33.794 50.4047C32.824 52.1107 31.7353 53.7717 30.5582 55.342L29.1142 57.6562ZM47.5515 54.4859C48.1314 54.1966 48.3667 53.4928 48.0771 52.9138C47.2926 51.3462 46.1435 49.9535 44.7539 48.8864C44.24 48.4916 43.503 48.5876 43.1077 49.1006C42.7124 49.6137 42.8085 50.3494 43.3223 50.7441C44.4321 51.5964 45.3499 52.7088 45.9767 53.9612C46.267 54.5412 46.9725 54.7746 47.5515 54.4859Z" fill="#FF7914"/>
</svg>
