<svg width="32" height="33" viewBox="0 0 32 33" fill="none" xmlns="http://www.w3.org/2000/svg">
<path fill-rule="evenodd" clip-rule="evenodd" d="M30.3788 14.9909H31.9227V22.8651H30.3788V29.0923C30.3788 30.7951 28.9935 32.1803 27.2908 32.1803H3.15338C1.45065 32.1803 0.0654297 30.7951 0.0654297 29.0923V7.88843C0.0654297 6.18571 1.45065 4.80048 3.15338 4.80048H12.3271L20.5399 0.233417C20.8147 0.0809129 21.1259 0 21.4397 0C22.1129 0 22.7335 0.364973 23.0597 0.952985L25.1997 4.80058H27.2908C28.9935 4.80058 30.3788 6.1858 30.3788 7.88853V14.9909ZM29.1232 7.68279C29.0188 6.75825 28.2419 6.0357 27.2908 6.0357H25.8869L26.8022 7.68279H29.1232ZM21.1407 1.31296C21.4304 1.15056 21.8201 1.26414 21.98 1.55262L25.3892 7.68221H9.68628L21.1407 1.31296ZM27.2907 30.9452C28.3122 30.9452 29.1435 30.1138 29.1435 29.0923V22.8658H24.6271C22.5298 22.8658 20.8228 21.1588 20.8228 19.0614V18.7958C20.8228 16.6985 22.5297 14.9915 24.6271 14.9915H29.1435V8.9181H27.489H4.9228H3.5394C3.19787 8.9181 2.92179 8.64144 2.92179 8.30049C2.92179 7.95954 3.19787 7.68288 3.5394 7.68288H7.14425L10.1062 6.0357H3.15338C2.13188 6.0357 1.30055 6.86703 1.30055 7.88853V29.0923C1.30055 30.1138 2.13188 30.9452 3.15338 30.9452H27.2907ZM30.6875 21.63H30.3787H24.6271C23.2104 21.63 22.0579 20.4776 22.0579 19.0608V18.7951C22.0579 17.3784 23.2103 16.2259 24.6271 16.2259H30.3787H30.6875V21.63ZM25.1552 20.3423C25.9086 20.3423 26.5188 19.7322 26.5188 18.9787C26.5188 18.2258 25.9086 17.615 25.1552 17.6151C24.4018 17.6151 23.7916 18.2253 23.7916 18.9787C23.7916 19.7321 24.4017 20.3423 25.1552 20.3423Z" fill="black"/>
</svg>
