<svg width="35" height="47" viewBox="0 0 35 47" fill="none" xmlns="http://www.w3.org/2000/svg">
<path fill-rule="evenodd" clip-rule="evenodd" d="M0 17.3037C0 7.76246 7.76247 0 17.3027 0C26.8435 0 34.6059 7.76246 34.6069 17.3037C34.6069 19.7924 34.098 22.1686 33.0937 24.3668C28.766 33.8344 20.4716 43.8287 18.0329 46.6657C17.8501 46.8778 17.5836 47 17.3032 47C17.0228 47 16.7563 46.8778 16.5735 46.6657C14.1339 43.8283 5.83941 33.8334 1.51324 24.3668C0.509385 22.1686 0 19.7924 0 17.3037ZM8.31466 17.3032C8.31466 22.259 12.3469 26.2913 17.3027 26.2913C22.259 26.2913 26.2913 22.259 26.2908 17.3032C26.2908 12.3469 22.2585 8.31466 17.3027 8.31466C12.3469 8.31466 8.31466 12.3469 8.31466 17.3032Z" fill="white"/>
</svg>
