<svg width="42" height="42" viewBox="0 0 42 42" fill="none" xmlns="http://www.w3.org/2000/svg">
<path fill-rule="evenodd" clip-rule="evenodd" d="M41.1797 2.78011H36.3024C35.8493 2.78011 35.482 3.14736 35.482 3.60042V4.30868H33.1948C32.7417 4.30868 32.3745 4.67593 32.3745 5.12899V5.36507C31.0411 5.24867 30.6026 4.99585 29.3781 4.28973C28.4364 3.74668 27.0131 2.92596 24.4498 1.7735C24.4379 1.76809 24.426 1.76308 24.4137 1.75832C23.5794 1.43004 21.3927 0.784122 19.0572 1.84257L15.7562 3.02448L12.9738 0.242141C12.6535 -0.0781909 12.1341 -0.0781909 11.8137 0.242141L2.67889 9.37689C2.38342 9.67245 2.32673 10.1849 2.67889 10.5371L18.2884 26.1465C18.5382 26.3964 19.123 26.472 19.4485 26.1465L27.7882 17.8069C28.0051 17.8256 28.2301 17.8357 28.4633 17.8357C30.6064 17.8357 32.5022 16.3655 33.5867 14.7631H41.1797C41.6327 14.7631 42 14.3959 42 13.9428V3.60042C42 3.14736 41.6327 2.78011 41.1797 2.78011ZM12.3937 1.98227L14.2633 3.85193C13.7076 4.19564 13.065 4.37955 12.3937 4.37955C11.7223 4.37955 11.0798 4.19572 10.524 3.85193L12.3937 1.98227ZM4.41911 9.95694L6.28876 11.8267C6.63255 11.2708 6.81639 10.6283 6.81639 9.95694C6.81639 9.28559 6.63247 8.64304 6.28876 8.08728L4.41911 9.95694ZM18.8685 24.4063L16.9992 22.537C18.1405 21.8327 19.5964 21.8327 20.7377 22.537L18.8685 24.4063ZM15.8173 21.3553C17.6301 20.0403 20.1069 20.0403 21.9197 21.3553L23.793 19.4819C22.9316 18.2884 22.6122 16.7688 22.924 15.3244L20.1543 14.3844C19.9462 15.1788 19.5307 15.9077 18.9377 16.5008C18.026 17.4124 16.8285 17.8682 15.6311 17.8682C14.4336 17.8682 13.2362 17.4123 12.3247 16.5008C10.5015 14.6776 10.5015 11.7111 12.3246 9.88787C12.9966 9.21595 13.8533 8.76798 14.7786 8.59661C15.0659 8.00304 15.5272 7.51241 16.1152 7.18477C16.4633 6.99077 16.8367 6.86461 17.2195 6.80809L15.4453 5.03383C14.5642 5.67441 13.506 6.02026 12.3938 6.02026C11.2815 6.02026 10.2233 5.67441 9.34229 5.03383L7.47059 6.90546C8.11125 7.78647 8.45701 8.84468 8.45701 9.95694C8.45701 11.0691 8.11117 12.1274 7.47059 13.0084L15.8173 21.3553ZM16.9441 13.2948L16.9541 13.2982L18.5944 13.855C18.4705 14.414 18.1902 14.928 17.7776 15.3407C16.594 16.5241 14.6683 16.5243 13.4849 15.3407C12.3013 14.1573 12.3013 12.2316 13.4849 11.048C13.7703 10.7624 14.1072 10.5392 14.4743 10.3878C14.6258 11.648 15.5331 12.7713 16.9323 13.2905L16.9441 13.2948ZM24.4509 16.5939C24.4792 17.195 24.6583 17.7839 24.975 18.2998L25.8976 17.3772C25.324 17.1563 24.8438 16.878 24.4509 16.5939ZM32.3744 13.6158C31.5969 14.8904 30.089 16.1949 28.4633 16.1949C28.1591 16.1949 27.8741 16.1733 27.6075 16.1347L27.6043 16.1342C25.8328 15.8769 24.8798 14.87 24.5657 14.4714C24.5563 14.4575 24.5297 14.422 24.5063 14.3908L24.5063 14.3908C24.4951 14.3759 24.4847 14.362 24.4772 14.3519C24.4725 14.3455 24.4689 14.3406 24.4671 14.338C24.3716 14.1672 24.2149 14.0299 24.0151 13.962L17.4929 11.7484C16.4521 11.3578 15.9019 10.4665 16.1541 9.57763L16.1546 9.5759L16.1552 9.57385C16.2724 9.16452 16.5416 8.82499 16.9137 8.6177C17.2833 8.41172 17.7106 8.36061 18.1182 8.47357L25.4676 10.8025C25.8996 10.9396 26.3606 10.7002 26.4974 10.2683C26.6342 9.83643 26.3951 9.37542 25.9632 9.23851L20.1181 7.38624L20.0671 7.33522L20.0655 7.33366L17.0394 4.30753L19.6404 3.37614C19.6492 3.37295 19.66 3.36893 19.6687 3.3654L19.6773 3.36195C19.6885 3.35744 19.6995 3.35268 19.7104 3.34768C21.4688 2.53951 23.1403 3.02325 23.7955 3.27804C26.2714 4.3921 27.5929 5.15409 28.5584 5.71084C29.9008 6.48497 30.5476 6.85796 32.3744 7.00882V13.6158ZM34.0151 13.1224H35.482V5.9493H34.0151V13.1224ZM40.3594 13.1224H37.1227V4.42073H40.3594V13.1224ZM29.4541 10.7906C29.4435 10.7381 29.4279 10.6864 29.4066 10.6364C29.3861 10.5872 29.3614 10.5396 29.3311 10.4953C29.3016 10.4502 29.2671 10.4084 29.2294 10.3706C29.1916 10.3329 29.1498 10.2984 29.1047 10.2689C29.0604 10.2394 29.0128 10.2139 28.9636 10.1934C28.9136 10.1729 28.8619 10.1565 28.8102 10.1467C28.7044 10.1253 28.5953 10.1253 28.4895 10.1467C28.437 10.1565 28.3853 10.1729 28.3361 10.1934C28.286 10.2139 28.2384 10.2394 28.1941 10.2689C28.149 10.2984 28.1072 10.3329 28.0695 10.3706C28.0317 10.4084 27.9973 10.4502 27.9677 10.4953C27.9382 10.5396 27.9128 10.5872 27.8923 10.6364C27.8718 10.6864 27.8554 10.7381 27.8455 10.7906C27.8348 10.8431 27.8291 10.8973 27.8291 10.9506C27.8291 11.0039 27.8348 11.058 27.8455 11.1105C27.8554 11.163 27.8718 11.2147 27.8923 11.2639C27.9128 11.314 27.9382 11.3616 27.9677 11.4059C27.9973 11.451 28.0317 11.4928 28.0695 11.5305C28.1072 11.5683 28.149 11.6027 28.1941 11.6323C28.2384 11.6618 28.286 11.6872 28.3361 11.7077C28.3853 11.7282 28.437 11.7438 28.4895 11.7545C28.542 11.7652 28.5961 11.7709 28.6494 11.7709C28.7027 11.7709 28.7569 11.7652 28.8102 11.7545C28.8619 11.7438 28.9136 11.7282 28.9636 11.7077C29.0128 11.6872 29.0604 11.6618 29.1047 11.6323C29.1498 11.6027 29.1916 11.5683 29.2294 11.5305C29.2671 11.4928 29.3016 11.451 29.3311 11.4059C29.3614 11.3616 29.3861 11.314 29.4066 11.2639C29.4279 11.2147 29.4435 11.163 29.4541 11.1105C29.4648 11.058 29.4697 11.0039 29.4697 10.9506C29.4697 10.8973 29.4648 10.8431 29.4541 10.7906ZM37.7287 32.3881L37.7239 32.3765C36.9689 30.6098 35.1981 29.9568 33.1026 30.6725L27.3876 32.2529C27.0572 31.2523 26.233 30.4008 25.0677 29.9684L25.0676 29.9683L25.0597 29.9655L25.0459 29.9607L18.7639 27.8285C18.241 27.1527 16.6032 25.4233 13.5366 25.4233C11.3936 25.4233 9.49774 26.8934 8.41313 28.4959H0.820312C0.367254 28.4959 0 28.8632 0 29.3162V39.6585C0 40.1115 0.367254 40.4788 0.820312 40.4788H5.69764C6.1507 40.4788 6.51796 40.1115 6.51796 39.6585V38.9502H8.80523C9.25829 38.9502 9.62555 38.583 9.62555 38.1299V37.8938C10.9588 38.0101 11.3974 38.263 12.6218 38.9691L12.622 38.9692C13.5637 39.5122 14.987 40.3329 17.5502 41.4854C17.5621 41.4907 17.5741 41.4958 17.5862 41.5006C18.0781 41.6941 19.0398 41.9981 20.2254 41.9981C21.0506 41.9981 21.9845 41.8507 22.9432 41.4162L35.5752 36.8933C35.5977 36.8853 35.6199 36.8762 35.6415 36.8662C36.8488 36.3108 38.6478 34.7454 37.7338 32.4009L37.7287 32.3881ZM4.87733 38.8381H1.64062V30.1365H4.87733V38.8381ZM6.51796 37.3095H7.98492V30.1365H6.51796V37.3095ZM34.986 35.3615L22.3596 39.8823C22.3539 39.8844 22.3473 39.8869 22.3407 39.8894L22.3226 39.8966L22.3049 39.904L22.2895 39.9109C20.531 40.7191 18.8595 40.2352 18.2044 39.9805C15.7285 38.8665 14.4071 38.1045 13.4416 37.5477L13.4411 37.5475C12.099 36.7736 11.4522 36.4006 9.62555 36.2498V29.6428C10.4031 28.3684 11.911 27.0638 13.5367 27.0638C16.3246 27.0638 17.506 28.8771 17.5524 28.9503C17.6525 29.1132 17.8065 29.236 17.9876 29.2974L24.507 31.5102C25.5482 31.901 26.0985 32.7926 25.8456 33.6819C25.7289 34.0925 25.4591 34.4331 25.0862 34.6409C24.7165 34.8469 24.2891 34.8978 23.8818 34.7851L16.5323 32.4561C16.1002 32.3191 15.6393 32.5583 15.5025 32.9902C15.3656 33.4221 15.6048 33.8832 16.0367 34.0201L23.3989 36.3531L23.4094 36.3564L23.4224 36.3602C23.7163 36.4438 24.0156 36.4851 24.313 36.4851C24.8575 36.4851 25.3961 36.3464 25.8848 36.074C26.6406 35.653 27.187 34.9628 27.4236 34.1306C27.4425 34.0641 27.4592 33.9977 27.4737 33.9312L33.6329 32.225C34.5224 31.9211 35.6902 31.8116 36.2101 33.009C36.7482 34.4148 35.3496 35.1881 34.986 35.3615ZM14.1077 31.994C14.1282 32.044 14.1438 32.0957 14.1545 32.1482C14.1652 32.2007 14.1709 32.2548 14.1709 32.3082C14.1709 32.3615 14.1652 32.4156 14.1545 32.4681C14.1438 32.5206 14.1282 32.5723 14.1077 32.6215C14.0872 32.6716 14.0618 32.7191 14.0323 32.7634C14.0027 32.8085 13.9683 32.8504 13.9305 32.8881C13.8928 32.9259 13.851 32.9603 13.8059 32.9898C13.7616 33.0194 13.714 33.0449 13.6639 33.0654C13.6147 33.0859 13.563 33.1023 13.5105 33.1121C13.458 33.1228 13.4039 33.1286 13.3506 33.1286C13.2973 33.1286 13.2431 33.1228 13.1906 33.1121C13.1381 33.1023 13.0864 33.0859 13.0364 33.0654C12.9872 33.0449 12.9396 33.0195 12.8953 32.9898C12.8502 32.9603 12.8084 32.9259 12.7706 32.8881C12.7329 32.8504 12.6984 32.8085 12.6689 32.7634C12.6386 32.7191 12.6139 32.6716 12.5934 32.6215C12.5729 32.5723 12.5565 32.5206 12.5467 32.4681C12.536 32.4156 12.5303 32.3615 12.5303 32.3082C12.5303 32.2548 12.536 32.2007 12.5467 32.1482C12.5565 32.0957 12.5729 32.044 12.5934 31.994C12.6139 31.9448 12.6386 31.8972 12.6689 31.8529C12.6984 31.8078 12.7329 31.7659 12.7706 31.7282C12.8084 31.6905 12.8502 31.656 12.8953 31.6265C12.9396 31.5969 12.9872 31.5715 13.0364 31.551C13.0864 31.5305 13.1381 31.5141 13.1906 31.5043C13.2956 31.4829 13.4047 31.4829 13.5105 31.5043C13.563 31.5141 13.6147 31.5305 13.6639 31.551C13.714 31.5715 13.7616 31.5969 13.8059 31.6265C13.851 31.656 13.8928 31.6905 13.9305 31.7282C13.9683 31.7659 14.0027 31.8078 14.0323 31.8529C14.0618 31.8972 14.0872 31.9448 14.1077 31.994Z" fill="white"/>
</svg>
