<svg width="44" height="42" viewBox="0 0 44 42" fill="none" xmlns="http://www.w3.org/2000/svg">
<path fill-rule="evenodd" clip-rule="evenodd" d="M39.5056 20.4054C41.3541 21.2823 43.4548 19.8359 43.2944 17.7979L42.4852 7.59618C42.4098 6.63959 41.8473 5.82196 40.9801 5.40879C40.1126 4.99729 39.1235 5.07598 38.333 5.61973L36.4972 6.88301C32.549 2.532 26.933 0.00878906 20.9692 0.00878906C9.40815 0.00878906 0 9.41493 0 20.978C0 32.5407 9.40815 41.9468 20.9692 41.9468C27.5658 41.9468 33.8571 38.7858 37.8 33.4886C38.2698 32.8578 38.467 32.0797 38.3521 31.2995C37.9624 28.6966 34.6239 27.8723 33.067 29.9659C30.1885 33.8298 25.7796 36.0463 20.9692 36.0463C12.6616 36.0463 5.90056 29.2869 5.90056 20.978C5.90056 7.60053 22.1223 0.903432 31.572 10.2721L29.9039 11.4208C28.2221 12.5773 28.4186 15.124 30.2675 16.0045L39.5056 20.4054ZM32.7204 9.48189C29.6555 6.34629 25.4367 4.53792 20.9692 4.53792C11.9039 4.53792 4.52913 11.9127 4.52913 20.978C4.52913 30.0429 11.9039 37.4177 20.9692 37.4177C26.2182 37.4177 31.0286 35.0006 34.1658 30.7852C34.6868 30.0858 35.6776 29.9418 36.3753 30.4611C37.0768 30.9818 37.2208 31.9685 36.6994 32.671C33.0137 37.6203 27.1336 40.5754 20.9692 40.5754C10.1638 40.5754 1.37143 31.7847 1.37143 20.978C1.37143 10.171 10.1638 1.38022 20.9692 1.38022C26.4807 1.38022 31.6748 3.68747 35.3571 7.66816L32.7204 9.48189ZM40.0955 19.1659C40.9875 19.5935 42.0064 18.8884 41.9263 17.906L41.1188 7.706C41.0608 6.9945 40.4675 6.5214 39.8367 6.5214C39.814 6.5214 39.7933 6.52092 39.7736 6.52047C39.7467 6.51985 39.7218 6.51928 39.697 6.52004C39.4002 6.52921 39.1093 6.73029 35.3353 9.33904L35.3352 9.33908C34.158 10.1529 32.6417 11.2009 30.6807 12.5505C29.8708 13.106 29.9592 14.3381 30.8571 14.767L40.0955 19.1659ZM25.8224 11.6489H12.2193C10.8961 11.6489 9.81931 12.7253 9.81931 14.0489V27.9071C9.81931 29.2303 10.8961 30.3071 12.2193 30.3071H25.8224C27.1456 30.3071 28.2224 29.2303 28.2224 27.9071V14.0489C28.2224 12.7253 27.1456 11.6489 25.8224 11.6489ZM16.2492 13.0203V16.9809C16.3478 16.9136 16.4362 16.8517 16.5164 16.7956C16.8613 16.5545 17.0547 16.4192 17.2552 16.4079C17.5114 16.3934 17.779 16.5815 18.3886 17.0099C18.5672 17.1354 18.7752 17.2816 19.0209 17.4493C19.2678 17.2807 19.4765 17.1339 19.6556 17.0079C20.2606 16.5824 20.5275 16.3947 20.7836 16.4084C20.9858 16.4193 21.1813 16.5558 21.5312 16.8001C21.6098 16.855 21.6962 16.9153 21.7922 16.9809V13.0203H16.2492ZM25.8224 13.0203C26.3896 13.0203 26.851 13.4813 26.851 14.0489V27.9071C26.851 28.4743 26.3896 28.9357 25.8224 28.9357H12.2193C11.6521 28.9357 11.1907 28.4743 11.1907 27.9071V14.0489C11.1907 13.4813 11.6521 13.0203 12.2193 13.0203H14.8778V18.2797C14.8778 18.8298 15.4955 19.1562 15.9506 18.8458L17.2922 17.9294C18.2975 18.6159 18.6536 18.9631 19.012 18.9654C19.3708 18.9678 19.732 18.6243 20.7496 17.9294C20.9806 18.0873 21.1791 18.2266 21.3517 18.3479C22.1711 18.9233 22.4097 19.0909 22.798 18.886C23.023 18.7672 23.1636 18.5338 23.1636 18.2797V13.0203H25.8224Z" fill="white"/>
</svg>
