<svg width="34" height="42" viewBox="0 0 34 42" fill="none" xmlns="http://www.w3.org/2000/svg">
<path fill-rule="evenodd" clip-rule="evenodd" d="M33.9231 17.7188C33.9231 18.1718 33.5579 18.5391 33.1076 18.5391C32.6573 18.5391 32.2922 18.1718 32.2922 17.7188V6.23782H11.7426V24.9375V25.9471C11.7426 26.5535 12.2329 27.0469 12.8358 27.0469C13.0695 27.0469 13.3015 26.9695 13.4889 26.8291L18.6392 22.9693C19.1272 22.6037 19.7309 22.4024 20.3392 22.4024C21.4081 22.4024 22.3768 22.9959 22.8673 23.9512C23.3579 24.9066 23.2783 26.0447 22.6597 26.9215L20.0663 30.5977H32.2922V24.5379C32.2922 24.0849 32.6573 23.7176 33.1076 23.7176C33.5579 23.7176 33.9231 24.0849 33.9231 24.5379V34.6046C33.9231 36.2398 32.6005 37.5703 30.9749 37.5703H17.7307V41.1797C17.7307 41.6327 17.3655 42 16.9152 42C16.4649 42 16.0998 41.6327 16.0998 41.1797V35.1914H1.63092V41.1797C1.63092 41.6327 1.26575 42 0.815459 42C0.365162 42 0 41.6327 0 41.1797V35.1914C0 34.2868 0.731629 33.5508 1.63092 33.5508H2.36377V24.9728C2.36377 21.79 3.09801 18.5962 4.48714 15.7367C5.81732 12.9986 7.75787 10.5501 10.1117 8.63002V2.96576C10.1117 1.33038 11.4343 0 13.0599 0H30.9749C32.6005 0 33.9231 1.33038 33.9231 2.96576V17.7188ZM32.2922 34.6046V32.2383H18.9186C18.9077 32.2383 18.897 32.2371 18.8862 32.2366C18.3636 32.879 17.7497 33.43 17.0706 33.8763C17.4702 34.1755 17.7307 34.6529 17.7307 35.1914V35.9297H30.9749C31.7012 35.9297 32.2922 35.3352 32.2922 34.6046ZM12.8358 28.6875C13.4183 28.6875 13.9962 28.4947 14.4633 28.1448L19.6135 24.285C19.8218 24.129 20.0795 24.043 20.3391 24.043C20.8023 24.043 21.2057 24.2902 21.4182 24.7042C21.6307 25.1181 21.5976 25.592 21.3295 25.972L17.8884 30.8499C16.6953 32.5411 14.7522 33.5508 12.6907 33.5508H3.99469V24.9728C3.99469 19.5335 6.20458 14.4584 10.1117 10.7997V24.9375V25.9471C10.1117 27.4582 11.3337 28.6875 12.8358 28.6875ZM11.7426 2.96576V4.5972H32.2922V2.96576C32.2922 2.23511 31.7012 1.64062 30.9748 1.64062H13.0599C12.3336 1.64062 11.7426 2.23511 11.7426 2.96576ZM19.4581 2.28843H24.5767C25.027 2.28843 25.3922 2.65568 25.3922 3.10874C25.3922 3.5618 25.027 3.92905 24.5767 3.92905H19.4581C19.0078 3.92905 18.6426 3.5618 18.6426 3.10874C18.6426 2.65568 19.0078 2.28843 19.4581 2.28843ZM13.0473 37.3242C13.2618 37.3242 13.4722 37.4119 13.6238 37.5646C13.7755 37.7171 13.8628 37.9288 13.8628 38.1445C13.8628 38.3603 13.7755 38.5719 13.6238 38.7244C13.4722 38.8771 13.2618 38.9648 13.0473 38.9648C12.8329 38.9648 12.6225 38.877 12.4708 38.7244C12.3191 38.5719 12.2319 38.3603 12.2319 38.1445C12.2319 37.9288 12.3191 37.7172 12.4708 37.5646C12.6225 37.4119 12.8329 37.3242 13.0473 37.3242ZM22.0174 33.1939C22.2318 33.1939 22.4422 33.2817 22.5938 33.4343C22.7456 33.5868 22.8328 33.7984 22.8328 34.0142C22.8328 34.2307 22.7455 34.4416 22.5938 34.5941C22.4422 34.7475 22.2318 34.8345 22.0174 34.8345C21.8029 34.8345 21.5925 34.7476 21.4409 34.5941C21.2891 34.4416 21.2019 34.2308 21.2019 34.0142C21.2019 33.7984 21.2892 33.5868 21.4409 33.4343C21.5925 33.2816 21.8029 33.1939 22.0174 33.1939ZM26.7691 12.3594C27.312 12.3594 27.8201 12.6022 28.1631 13.0255C28.5061 13.4488 28.64 13.9983 28.5306 14.5332L27.458 19.7746C27.2865 20.6115 26.5457 21.2188 25.6965 21.2188H18.3383C17.4891 21.2188 16.7483 20.6115 16.5769 19.7747L15.5042 14.5332C15.3947 13.9983 15.5287 13.4489 15.8717 13.0255C16.2147 12.6021 16.7228 12.3594 17.2656 12.3594H19.4939L20.1844 11.1562C20.4097 10.7639 20.9081 10.6294 21.2983 10.856C21.6883 11.0825 21.822 11.5842 21.5968 11.9766L21.3771 12.3594H22.6578L22.4381 11.9766C22.2128 11.5842 22.3465 11.0825 22.7365 10.856C23.1266 10.6295 23.6253 10.7639 23.8505 11.1562L24.5409 12.3594H26.7691ZM25.8606 19.4436L26.9332 14.2024C26.9465 14.1377 26.9219 14.0903 26.899 14.062C26.8761 14.0337 26.8349 14 26.7692 14H25.4826L25.9455 14.8066C26.1708 15.199 26.0371 15.7007 25.6471 15.9272C25.5187 16.0018 25.3785 16.0372 25.2402 16.0372C24.9583 16.0372 24.6843 15.8901 24.5332 15.627L23.5994 14V14.0001H20.4356L19.5018 15.627C19.3507 15.8902 19.0766 16.0373 18.7948 16.0373C18.6565 16.0373 18.5163 16.0018 18.3879 15.9273C17.9978 15.7008 17.8642 15.1991 18.0894 14.8067L18.5523 14.0001H17.2657C17.2 14.0001 17.1588 14.0338 17.1359 14.0621C17.1131 14.0904 17.0884 14.1377 17.1017 14.2025L18.1744 19.4438C18.1904 19.5216 18.2593 19.5782 18.3384 19.5782H25.6966C25.7757 19.5782 25.8447 19.5216 25.8606 19.4436ZM33.1076 20.1797C33.3221 20.1797 33.5325 20.2675 33.6841 20.42C33.8358 20.5726 33.9231 20.7843 33.9231 21C33.9231 21.2157 33.8358 21.4274 33.6841 21.5799C33.5325 21.7325 33.3221 21.8203 33.1076 21.8203C32.8932 21.8203 32.6828 21.7325 32.5311 21.5799C32.3793 21.4274 32.2922 21.2157 32.2922 21C32.2922 20.7843 32.3794 20.5726 32.5311 20.42C32.6828 20.2675 32.8932 20.1797 33.1076 20.1797Z" fill="white"/>
</svg>
