<svg width="42" height="42" viewBox="0 0 42 42" fill="none" xmlns="http://www.w3.org/2000/svg">
<path fill-rule="evenodd" clip-rule="evenodd" d="M40.3236 12.8136C38.1092 7.65114 34.3464 3.8966 29.1408 1.67643C26.539 0.566794 23.8132 0 20.9655 0C18.1183 0 15.4126 0.561441 12.8136 1.67643C7.65114 3.8907 3.87162 7.64283 1.65337 12.8136C0.541814 15.4042 0 18.1182 0 20.9654C0 23.8132 0.541814 26.5497 1.65337 29.1408C3.87162 34.3116 7.65162 38.0862 12.8136 40.3011C15.413 41.416 18.1182 41.9769 20.9655 41.9769C23.8128 41.9769 26.539 41.4101 29.1404 40.3011C34.346 38.0808 38.1088 34.3028 40.3236 29.1408C41.4386 26.5414 42 23.8132 42 20.9654C42 18.1182 41.439 15.413 40.3236 12.8136ZM36.9713 30.2431C35.3228 33.0702 33.0644 35.313 30.22 36.9713C27.3929 38.6198 24.2953 39.4511 20.966 39.4511C18.4631 39.4511 16.0749 38.9691 13.8013 37.9814C11.5277 36.9943 9.56468 35.6966 7.92256 34.0549C6.28044 32.4128 4.97343 30.4306 3.99611 28.1532C3.02167 25.884 2.54944 23.4688 2.54944 20.9655C2.54944 17.6357 3.36755 14.5538 5.00678 11.7345C6.65185 8.90489 8.91073 6.65968 11.735 5.00624C14.5587 3.35286 17.6362 2.5259 20.9655 2.5259C24.2953 2.5259 27.3924 3.35774 30.2195 5.00624C33.0639 6.66455 35.3174 8.9097 36.9708 11.7344C38.6241 14.5586 39.4506 17.6357 39.4506 20.9654C39.4506 24.2953 38.6296 27.3982 36.9713 30.2431ZM22.2975 8.88664V20.7818L28.7274 27.2577C29.2207 27.7545 29.2554 28.5207 28.7274 29.0488C28.2683 29.5082 27.4188 29.5082 26.9593 29.0488L20.093 22.1829C19.8176 21.907 19.7025 21.5626 19.7485 21.1492C19.7485 21.1058 19.7301 21.0529 19.7165 21.0141C19.7087 20.9916 19.7025 20.9739 19.7025 20.9654V8.88664C19.7025 8.17483 20.2997 7.6007 20.9654 7.6007C21.6773 7.6007 22.2975 8.17483 22.2975 8.88664Z" fill="white"/>
</svg>
