<svg width="45" height="42" viewBox="0 0 45 42" fill="none" xmlns="http://www.w3.org/2000/svg">
<path fill-rule="evenodd" clip-rule="evenodd" d="M8.01062 1.21658C8.488 0.456846 9.31828 -0.00223395 10.2097 1.64105e-05H34.7903C35.6817 -0.00223395 36.512 0.457296 36.9894 1.21658L44.8746 13.6955C44.8762 13.6976 44.8773 13.6998 44.8784 13.702C44.8792 13.7036 44.8799 13.7052 44.8809 13.7067C44.8965 13.7324 44.9108 13.7589 44.9237 13.7864L44.927 13.7933C44.9283 13.796 44.9296 13.7988 44.9308 13.8017C44.9451 13.8336 44.9572 13.8665 44.967 13.8998L44.9682 13.9044L44.9701 13.9128C44.9781 13.9417 44.9844 13.9714 44.9888 14.0011C44.9902 14.0092 44.992 14.0173 44.9929 14.0258C44.9973 14.06 45 14.0947 45 14.1293V39.3693C44.9987 40.8217 43.832 41.9986 42.3923 42H2.60775C1.16802 41.9986 0.0017846 40.8217 0 39.3693V14.1298C0.00044615 14.0951 0.0026769 14.0605 0.0071384 14.0263L0.0111537 14.0015C0.0156153 13.9718 0.0218613 13.9421 0.0298921 13.9133C0.0312305 13.9088 0.0321228 13.9047 0.033015 13.9002C0.0432765 13.8669 0.0553226 13.8341 0.0691532 13.8021C0.071384 13.7967 0.0740609 13.7918 0.0767378 13.7868C0.0892299 13.7594 0.103507 13.7328 0.119122 13.7072L0.121124 13.7035C0.12252 13.7008 0.123839 13.6984 0.125368 13.6959L8.01062 1.21658ZM10.2097 1.6131C9.86482 1.6122 9.54359 1.78998 9.35888 2.08388L2.25707 13.3228H21.7003V1.6131H10.2097ZM16.8743 14.9359H28.1248V24.8367L27.3664 24.0203C27.2151 23.8578 27.0041 23.7655 26.7828 23.7655C26.562 23.7655 26.3509 23.8578 26.1997 24.0203L24.6422 25.6973L23.0838 24.0203C22.9325 23.8578 22.7215 23.7655 22.5002 23.7655C22.2794 23.7655 22.0683 23.8578 21.9171 24.0203L20.3587 25.6973L18.7999 24.0203C18.6486 23.8578 18.4376 23.7655 18.2167 23.7655C17.9954 23.7655 17.7844 23.8578 17.6336 24.0203L16.8743 24.8372V14.9359ZM2.6073 40.3869H42.3918H42.3923C42.9491 40.3865 43.4006 39.931 43.401 39.3693V14.9359H29.7243V26.876C29.7247 27.2073 29.524 27.5052 29.2188 27.6267C28.9136 27.7487 28.5652 27.6695 28.3412 27.4278L26.7828 25.7513L25.2258 27.4278C25.0745 27.5907 24.8635 27.683 24.6422 27.683C24.4213 27.683 24.2103 27.5907 24.0591 27.4278L22.5007 25.7508L20.9423 27.4278C20.791 27.5903 20.58 27.6825 20.3587 27.6825C20.1379 27.6825 19.9268 27.5903 19.7756 27.4278L18.2167 25.7508L16.6583 27.4278C16.4339 27.6695 16.0859 27.7478 15.7808 27.6263C15.476 27.5048 15.2753 27.2073 15.2753 26.876V14.9359H1.59855V39.3693C1.59945 39.931 2.0505 40.3865 2.6073 40.3869ZM35.6411 2.08388L42.7429 13.3228H23.2993V1.6131H34.7903C35.1352 1.6122 35.4564 1.78998 35.6411 2.08388ZM13.6267 35.9726H6.77388C6.33264 35.9726 5.97438 35.6116 5.97438 35.166V31.2485C5.97438 30.8034 6.33264 30.442 6.77388 30.442H13.6267C14.0684 30.442 14.4262 30.8034 14.4262 31.2485V35.166C14.4262 35.6116 14.0684 35.9726 13.6267 35.9726ZM7.57338 34.3595H12.8272V32.0551H7.57338V34.3595ZM17.51 32.0551H27.9035C28.3452 32.0551 28.703 31.6941 28.703 31.2485C28.703 30.8034 28.3452 30.442 27.9035 30.442H17.51C17.0688 30.442 16.7105 30.8034 16.7105 31.2485C16.7105 31.6941 17.0688 32.0551 17.51 32.0551ZM22.7639 35.0508H17.51C17.0688 35.0508 16.7105 34.6898 16.7105 34.2443C16.7105 33.7991 17.0688 33.4377 17.51 33.4377H22.7639C23.2056 33.4377 23.5634 33.7991 23.5634 34.2443C23.5634 34.6898 23.2056 35.0508 22.7639 35.0508Z" fill="white"/>
</svg>
