<svg width="36" height="42" viewBox="0 0 36 42" fill="none" xmlns="http://www.w3.org/2000/svg">
<path fill-rule="evenodd" clip-rule="evenodd" d="M28.9645 10.7896C30.3821 10.7839 31.591 11.8132 31.808 13.2116L35.9904 36.7781C35.9968 36.8152 36 36.8523 36 36.8897C35.9968 39.7106 33.7065 41.9968 30.8804 42H5.11961C2.29354 41.9968 0.00356912 39.7106 0 36.8897C0 36.8526 0.00321222 36.8152 0.00999365 36.7785L4.19198 13.2116C4.40899 11.8132 5.61786 10.7839 7.03553 10.7896H9.95689V8.02855C9.95689 3.59441 13.5578 0 18 0C22.4422 0 26.0431 3.59441 26.0431 8.02855V10.7896H28.9645ZM18 1.27687C14.2645 1.27687 11.2361 4.29983 11.2361 8.02855V10.7896H24.7639V8.02855C24.7639 4.29983 21.7358 1.27687 18 1.27687ZM5.11961 40.7231C3.02058 40.721 1.31131 39.0387 1.27919 36.9438L5.4519 13.4285C5.45265 13.4258 5.45305 13.4231 5.45346 13.4202L5.4535 13.4199L5.45404 13.4164C5.57325 12.6376 6.24568 12.0633 7.03482 12.0665H9.95618V16.3054C9.95618 16.6581 10.2424 16.9439 10.5958 16.9439C10.9491 16.9439 11.2354 16.6581 11.2354 16.3054V12.0665H24.7639V16.3054C24.7639 16.6581 25.0505 16.9439 25.4035 16.9439C25.7569 16.9439 26.0431 16.6581 26.0431 16.3054V12.0665H28.9645C29.7536 12.0637 30.426 12.6376 30.5452 13.4164L30.5474 13.4285L34.7208 36.9438C34.6887 39.0387 32.9794 40.721 30.8804 40.7231H5.11961ZM9.13706 27.8404C9.13706 32.7266 13.1053 36.6873 18 36.6873C22.8926 36.682 26.8576 32.7241 26.8629 27.8404C26.8629 22.9545 22.8947 18.9935 18 18.9935C13.1053 18.9935 9.13706 22.9545 9.13706 27.8404ZM10.4162 27.8404C10.4162 23.6596 13.8116 20.2704 18 20.2704C22.1866 20.275 25.5791 23.6617 25.5838 27.8404C25.5838 32.0212 22.1884 35.4104 18 35.4104C13.8116 35.4104 10.4162 32.0212 10.4162 27.8404ZM16.9139 31.3336C16.7444 31.334 16.5816 31.2666 16.4617 31.1466L13.3622 28.0527C13.1124 27.8033 13.1124 27.399 13.3622 27.1496C13.6117 26.9002 14.0168 26.9002 14.2667 27.1496L16.9243 29.8024L21.9364 25.0234C22.1013 24.8634 22.3394 24.8039 22.56 24.8677C22.7809 24.9314 22.9504 25.1085 23.0043 25.3315C23.0579 25.5549 22.9875 25.7893 22.8198 25.9465L17.3561 31.1562C17.2373 31.2702 17.0788 31.3336 16.9139 31.3336Z" fill="white"/>
</svg>
