<svg width="48" height="42" viewBox="0 0 48 42" fill="none" xmlns="http://www.w3.org/2000/svg">
<path fill-rule="evenodd" clip-rule="evenodd" d="M5.694 41.8998C4.7976 41.8998 3.9282 41.7558 3.108 41.472L1.2402 40.8258L2.6754 39.4668C4.575 37.668 5.0544 35.5932 5.0856 34.0392C1.8024 30.399 0 25.8576 0 21.1998C-0.0006 9.78596 10.5864 0.499756 23.5992 0.499756C36.612 0.499756 47.1996 9.78596 47.1996 21.1998C47.1996 32.613 36.612 41.8986 23.5992 41.8986C19.725 41.8986 15.903 41.0592 12.4968 39.4644C11.2134 40.3734 8.6208 41.8998 5.694 41.8998ZM12.2154 36.6468L12.9042 36.9954C16.1424 38.6328 19.8408 39.4992 23.5986 39.4992C35.2884 39.4992 44.799 31.29 44.799 21.2004C44.799 11.1096 35.2884 2.90036 23.5986 2.90036C11.9088 2.90036 2.3988 11.1096 2.3988 21.1998C2.3988 25.3932 4.0872 29.493 7.1538 32.7432L7.4658 33.0738L7.4802 33.528C7.533 35.1594 7.2402 37.3716 5.79 39.4986C8.5692 39.4542 11.124 37.5198 11.6124 37.1292L12.2154 36.6468ZM10.0056 26.6538C10.5576 26.7924 11.2722 26.8614 12.1524 26.8614C12.6774 26.8614 13.1928 26.8122 13.6986 26.7156C14.2038 26.6172 14.6538 26.4504 15.0474 26.2128C15.441 25.9782 15.756 25.656 15.993 25.2492C16.2288 24.8418 16.347 24.3294 16.347 23.712C16.347 22.8846 16.0938 22.1988 15.5886 21.654C15.0834 21.1092 14.2986 20.6268 13.2354 20.2068C12.5664 19.9704 12.0738 19.737 11.7588 19.5078C11.4438 19.2786 11.286 18.9732 11.286 18.5922C11.286 18.2376 11.427 17.9556 11.7096 17.7456C11.9916 17.5362 12.5064 17.4306 13.2552 17.4306C13.623 17.4306 13.9998 17.4696 14.3874 17.5488C14.7744 17.6274 15.0798 17.6994 15.303 17.7648C15.3948 17.7912 15.4866 17.7222 15.579 17.5578C15.6702 17.394 15.7428 17.2032 15.795 16.9872C15.8472 16.77 15.8742 16.5666 15.8742 16.3764C15.8742 16.1862 15.828 16.071 15.7362 16.032C15.6312 16.0056 15.5196 15.9732 15.4014 15.9336C15.2832 15.894 15.1284 15.858 14.9388 15.825C14.7474 15.792 14.505 15.7656 14.2098 15.7458C13.9146 15.7266 13.5432 15.7164 13.0974 15.7164C12.4146 15.7164 11.8272 15.792 11.3346 15.9432C10.842 16.0938 10.4382 16.2978 10.1232 16.5534C9.8082 16.809 9.5748 17.1144 9.4242 17.469C9.2736 17.8236 9.1974 18.198 9.1974 18.5916C9.1974 19.0776 9.2766 19.4982 9.4344 19.8522C9.5922 20.2062 9.8082 20.5116 10.0842 20.7672C10.3602 21.0234 10.6776 21.2472 11.0394 21.4368C11.4006 21.6276 11.784 21.801 12.1914 21.96C12.9396 22.2474 13.4586 22.5204 13.7472 22.776C14.0358 23.0316 14.181 23.3622 14.181 23.7708C14.181 24.243 13.9602 24.5712 13.521 24.7554C13.08 24.9402 12.546 25.0308 11.9154 25.0308C11.2986 25.0308 10.7898 24.975 10.3896 24.864C9.9894 24.753 9.6186 24.6378 9.2772 24.5196C9.2106 24.5058 9.1422 24.579 9.0702 24.7362C8.9982 24.8916 8.9388 25.074 8.8932 25.2768C8.847 25.4796 8.817 25.6776 8.8044 25.8666C8.7918 26.0574 8.8116 26.178 8.8644 26.2308C9.0738 26.3748 9.4548 26.5164 10.0056 26.6538ZM26.3502 26.763C26.0748 26.763 25.8942 26.7174 25.8096 26.625C25.7232 26.5338 25.6818 26.3568 25.6818 26.0928V19.2006C25.1568 20.0538 24.7518 20.7132 24.4692 21.1794C24.322 21.4219 24.1961 21.6306 24.0905 21.8056L24.0904 21.8057C23.9929 21.9674 23.9128 22.1001 23.8494 22.2042C23.718 22.4196 23.6388 22.5486 23.6118 22.5876C23.586 22.6272 23.574 22.6542 23.574 22.6674C23.4564 22.8642 23.3736 22.992 23.328 23.0514C23.2812 23.112 23.1858 23.1396 23.0418 23.1396H22.7268C22.5564 23.1396 22.4442 23.1102 22.392 23.0514C22.3398 22.992 22.2606 22.8642 22.1556 22.6674L20.1468 19.2414V26.2128C20.1468 26.3838 20.1174 26.5188 20.058 26.6172C19.9992 26.7156 19.845 26.7648 19.5954 26.7648H18.7692C18.585 26.7648 18.4248 26.7354 18.2862 26.676C18.1488 26.6172 18.0792 26.424 18.0792 26.0946V16.6416C18.0792 16.3788 18.1284 16.2048 18.2268 16.1196C18.3252 16.0344 18.4662 15.9918 18.6504 15.9918H19.635C19.779 15.9918 19.9008 16.011 19.9992 16.0506C20.0976 16.0902 20.199 16.1886 20.3046 16.3458L22.923 20.5206L25.542 16.3854C25.6212 16.2408 25.7154 16.1394 25.8288 16.08C25.941 16.0206 26.0478 15.9918 26.1534 15.9918H27.237C27.4866 15.9918 27.63 16.044 27.6708 16.149C27.7104 16.2546 27.7296 16.425 27.7296 16.6614V26.1912C27.7296 26.388 27.7038 26.5332 27.651 26.6256C27.5982 26.718 27.447 26.763 27.1986 26.763H26.3502ZM30.762 26.6538C31.314 26.7924 32.028 26.8614 32.9088 26.8614C33.4338 26.8614 33.9474 26.8122 34.4544 26.7156C34.9596 26.6172 35.4096 26.4504 35.8032 26.2128C36.1968 25.9782 36.5118 25.656 36.7488 25.2492C36.9846 24.8418 37.1028 24.3294 37.1028 23.712C37.1028 22.8846 36.8496 22.1988 36.3444 21.654C35.8392 21.1092 35.0538 20.6268 33.9912 20.2068C33.3222 19.9704 32.829 19.737 32.5146 19.5078C32.1996 19.2786 32.0412 18.9732 32.0412 18.5922C32.0412 18.2376 32.1828 17.9556 32.4654 17.7456C32.7468 17.5362 33.2622 17.4306 34.011 17.4306C34.3782 17.4306 34.7556 17.4696 35.1432 17.5488C35.529 17.6274 35.8356 17.6994 36.0582 17.7648C36.15 17.7912 36.2424 17.7222 36.3348 17.5578C36.4254 17.394 36.498 17.2032 36.5496 16.9872C36.6024 16.77 36.6294 16.5666 36.6294 16.3764C36.6294 16.1862 36.5832 16.071 36.492 16.032C36.3864 16.0056 36.2742 15.9726 36.1566 15.9336C36.0378 15.894 35.883 15.858 35.694 15.825C35.502 15.792 35.2596 15.7656 34.9644 15.7458C34.6698 15.7266 34.2984 15.7164 33.852 15.7164C33.1704 15.7164 32.5824 15.792 32.0892 15.9432C31.5966 16.0938 31.1934 16.2978 30.8784 16.5534C30.5634 16.809 30.33 17.1144 30.1788 17.469C30.0288 17.8236 29.9526 18.198 29.9526 18.5916C29.9526 19.0776 30.0312 19.4976 30.1896 19.8522C30.3474 20.2062 30.5634 20.5116 30.8388 20.7672C31.1154 21.0234 31.4328 21.2472 31.7946 21.4368C32.1564 21.6276 32.5392 21.801 32.9466 21.96C33.6954 22.2474 34.2138 22.5204 34.503 22.776C34.7922 23.0316 34.9374 23.3622 34.9374 23.7708C34.9374 24.243 34.7154 24.5712 34.2768 24.7554C33.8352 24.9402 33.3018 25.0308 32.6712 25.0308C32.0538 25.0308 31.545 24.9756 31.1454 24.864C30.7458 24.753 30.3744 24.6378 30.033 24.5196C29.9658 24.5058 29.8974 24.5784 29.826 24.7362C29.7534 24.8916 29.6946 25.074 29.649 25.2768C29.6022 25.4796 29.5734 25.6776 29.5608 25.8666C29.5482 26.0574 29.568 26.178 29.6208 26.2308C29.8296 26.3748 30.2112 26.5164 30.762 26.6538Z" fill="white"/>
</svg>
