<svg width="42" height="43" viewBox="0 0 42 43" fill="none" xmlns="http://www.w3.org/2000/svg">
<path fill-rule="evenodd" clip-rule="evenodd" d="M23.408 39.5776C17.7093 36.8154 12.7163 32.9116 8.56863 27.9535C5.15286 23.8494 2.85244 20.0066 1.32755 15.8676C0.334185 13.1925 -0.049217 10.9793 0.116343 8.89668C0.255762 7.23237 0.926716 5.79461 2.11178 4.60954L5.3707 1.35062C6.30306 0.461826 7.36614 0 8.47277 0C9.58813 0 10.6425 0.461826 11.54 1.34191C12.1325 1.89087 12.7338 2.50083 13.3089 3.09336L13.3329 3.11809C13.6207 3.41437 13.9009 3.70285 14.1977 3.99959L16.7944 6.59627C17.7441 7.53734 18.2408 8.62656 18.2408 9.7332C18.2408 10.8398 17.7354 11.929 16.7944 12.8701C16.5242 13.1402 16.2541 13.4104 15.9927 13.6805C15.252 14.4386 14.4852 15.2141 13.6661 15.9548C14.25 17.3054 15.0865 18.6299 16.3325 20.2071C18.7985 23.2307 21.3778 25.5834 24.2184 27.3871C24.506 27.5701 24.8284 27.7357 25.1769 27.91C25.4558 28.0494 25.752 28.1975 26.0396 28.3631L29.1591 25.2436C30.074 24.3286 31.1458 23.8407 32.2612 23.8407C33.3765 23.8407 34.4396 24.3286 35.3284 25.2523L40.5653 30.4892C42.4388 32.3627 42.4388 34.8199 40.5827 36.7544C40.1819 37.1726 39.7636 37.5822 39.3541 37.9743C39.3128 38.0144 39.2715 38.0544 39.2305 38.0942C38.6741 38.6339 38.143 39.149 37.6724 39.717C37.6636 39.7344 37.6462 39.7519 37.6375 39.7606C36.2172 41.3029 34.4744 42.0523 32.3047 42.0523C32.1123 42.0523 31.928 42.0443 31.7362 42.0359L31.7122 42.0349C28.4794 41.8257 25.5778 40.6058 23.408 39.5776ZM3.62796 6.11701C2.79145 6.95353 2.34705 7.92075 2.24248 9.07967C2.10307 10.8311 2.4429 12.7568 3.34041 15.1531C4.78688 19.0568 6.97402 22.6992 10.2242 26.6116C14.1715 31.3344 18.9292 35.0552 24.3491 37.678C26.3446 38.6278 29.0022 39.7432 31.8603 39.9261C32.0085 39.9349 32.1653 39.9436 32.3134 39.9436C33.8558 39.9436 35.0495 39.4382 36.0516 38.3577C36.5953 37.7069 37.1935 37.1262 37.7726 36.5641C37.806 36.5316 37.8394 36.4992 37.8728 36.4668C38.2823 36.0747 38.6657 35.7 39.0317 35.3079C40.0948 34.2012 40.1035 33.0685 39.0578 32.0228L33.8035 26.7772C33.4636 26.4112 32.9234 26.0017 32.2612 26.0017C31.7209 26.0017 31.1719 26.2718 30.6666 26.7772L27.4076 30.0361C27.2595 30.1842 26.8064 30.6286 26.1093 30.6286C25.8305 30.6286 25.5516 30.5589 25.2641 30.4108C25.2466 30.4021 25.2314 30.3934 25.2161 30.3846C25.2009 30.3759 25.1856 30.3672 25.1682 30.3585C24.8807 30.1755 24.5583 30.01 24.2097 29.8357C24.1468 29.8035 24.0831 29.7713 24.019 29.7389C23.7011 29.5781 23.3713 29.4113 23.0595 29.2083C20.0271 27.2826 17.2736 24.7817 14.6595 21.5577C13.2043 19.7278 12.2719 18.1942 11.601 16.5822C11.5966 16.5691 11.5923 16.5582 11.5879 16.5473C11.5836 16.5364 11.5792 16.5255 11.5749 16.5124C11.4006 15.9896 11.2873 15.3012 12.0105 14.578L12.0541 14.5344C12.8275 13.8497 13.5338 13.1351 14.2765 12.3839C14.3371 12.3225 14.3979 12.261 14.4591 12.1992C14.5941 12.0641 14.7292 11.9269 14.8643 11.7896C14.9993 11.6524 15.1344 11.5151 15.2695 11.3801C15.8097 10.8398 16.0885 10.2909 16.0885 9.75062C16.0885 9.21037 15.8097 8.66141 15.2695 8.12116L12.6728 5.52448C12.5214 5.36875 12.37 5.21517 12.2196 5.06267C12.0671 4.90798 11.9157 4.7544 11.7666 4.60083C11.6878 4.52088 11.6097 4.44154 11.5323 4.3628C11.0274 3.84941 10.5474 3.36135 10.0412 2.89295C9.54456 2.38755 9.00431 2.13485 8.47277 2.13485C7.93253 2.13485 7.37485 2.38755 6.86946 2.87552L3.62796 6.11701Z" fill="white"/>
</svg>
