<svg width="51" height="34" viewBox="0 0 51 34" fill="none" xmlns="http://www.w3.org/2000/svg">
<path fill-rule="evenodd" clip-rule="evenodd" d="M5.30211 0H45.5985C48.521 0 50.9006 2.3796 50.9005 5.30221V7.40251L50.9007 7.42304V13.7856L50.9005 13.8063V28.6317C50.9005 31.5542 48.5209 33.9338 45.5984 33.9338H5.30211C2.3796 33.9338 0 31.5542 0 28.6317V13.7856V7.42304V5.30221C0 2.3796 2.3796 0 5.30211 0ZM48.7797 5.30221V6.36257H2.12082V5.30221C2.12082 3.54823 3.54813 2.12092 5.30211 2.12092H45.5984C47.3524 2.12092 48.7797 3.54823 48.7797 5.30221ZM2.12082 12.7251V8.4834H48.7797V12.7251H2.12082ZM2.12082 14.8461H48.7797V28.6316H48.7798C48.7798 30.3856 47.3525 31.8129 45.5985 31.8129H5.30211C3.54813 31.8129 2.12082 30.3856 2.12082 28.6316V14.8461ZM7.42304 21.2086H20.1482C20.7335 21.2086 21.2086 21.6836 21.2086 22.269C21.2086 22.8544 20.7335 23.3295 20.1482 23.3295H7.42304C6.83768 23.3295 6.36257 22.8545 6.36257 22.2691C6.36257 21.6837 6.83768 21.2086 7.42304 21.2086ZM20.1482 25.4503H7.42304C6.83768 25.4503 6.36257 25.9254 6.36257 26.5108C6.36257 27.0961 6.83768 27.5712 7.42304 27.5712H20.1482C20.7335 27.5712 21.2086 27.0961 21.2086 26.5108C21.2085 25.9254 20.7335 25.4503 20.1482 25.4503ZM41.3567 19.0877H39.2359C37.4819 19.0877 36.0546 20.515 36.0546 22.269V24.3898C36.0546 26.1438 37.4819 27.5711 39.2359 27.5711H41.3567C43.1107 27.5711 44.538 26.1438 44.538 24.3898V22.269C44.538 20.5151 43.1107 19.0877 41.3567 19.0877ZM42.4172 24.3899C42.4172 24.9753 41.9421 25.4504 41.3567 25.4504H39.2359C38.6505 25.4504 38.1754 24.9753 38.1754 24.3899V22.2691C38.1754 21.6837 38.6505 21.2086 39.2359 21.2086H41.3567C41.9421 21.2086 42.4172 21.6837 42.4172 22.2691V24.3899Z" fill="white"/>
</svg>
