<svg width="42" height="42" viewBox="0 0 42 42" fill="none" xmlns="http://www.w3.org/2000/svg">
<path fill-rule="evenodd" clip-rule="evenodd" d="M37.8984 3.60938C40.16 3.60938 42 5.44934 42 7.71094V38.8823C42 40.6014 40.6014 42 38.8823 42H3.11719C1.39839 42 0 40.6016 0 38.8828V36.7603C0 36.3072 0.367336 35.9399 0.820312 35.9399H3.03918C1.60576 34.7055 0.695543 32.8794 0.695543 30.8438C0.695543 27.1347 3.71306 24.1172 7.42211 24.1172C11.1311 24.1172 14.1487 27.1347 14.1487 30.8438C14.1487 32.8794 13.2385 34.7055 11.805 35.9399H20.0013C20.4542 35.9399 20.8216 36.3072 20.8216 36.7603C20.8216 37.2133 20.4542 37.5806 20.0013 37.5806H1.64062V38.8828C1.64062 39.697 2.30303 40.3594 3.11719 40.3594H36.1375C35.8998 39.9194 35.7646 39.4164 35.7646 38.8823V37.5806H27.043C26.59 37.5806 26.2227 37.2133 26.2227 36.7603C26.2227 36.3072 26.59 35.9399 27.043 35.9399H36.585C37.0379 35.9399 37.4053 36.3072 37.4053 36.7603V38.8823C37.4053 39.6967 38.0678 40.3594 38.8823 40.3594C39.6968 40.3594 40.3594 39.6967 40.3594 38.8823V7.71094C40.3594 6.35398 39.2554 5.25 37.8984 5.25H33.9883V6.27539C33.9883 7.63235 32.8843 8.73633 31.5273 8.73633C30.1704 8.73633 29.0664 7.63235 29.0664 6.27539V5.25H15.2851V6.27539C15.2851 7.63235 14.1812 8.73633 12.8242 8.73633C11.4672 8.73633 10.3633 7.63235 10.3633 6.27539V5.21965C10.2935 5.23884 10.2204 5.25 10.1446 5.25H6.87611C5.51914 5.25 4.41517 6.35398 4.41517 7.71094V10.418H33.9883C34.4412 10.418 34.8086 10.7852 34.8086 11.2383C34.8086 11.6913 34.4412 12.0586 33.9883 12.0586H4.41517V21.6836C4.41517 22.1366 4.04783 22.5039 3.59486 22.5039C3.14188 22.5039 2.77454 22.1366 2.77454 21.6836V7.71094C2.77454 5.44934 4.6145 3.60938 6.87611 3.60938H10.1446C10.2204 3.60938 10.2935 3.62045 10.3633 3.63973V2.46094C10.3633 1.10398 11.4672 0 12.8242 0C14.1812 0 15.2851 1.10398 15.2851 2.46094V3.60938H29.0664V2.46094C29.0664 1.10398 30.1704 0 31.5273 0C32.8843 0 33.9883 1.10398 33.9883 2.46094V3.60938H37.8984ZM13.6445 6.27539V2.46094C13.6445 2.00862 13.2765 1.64062 12.8242 1.64062C12.3719 1.64062 12.0039 2.00862 12.0039 2.46094V6.27539C12.0039 6.72771 12.3719 7.0957 12.8242 7.0957C13.2765 7.0957 13.6445 6.72771 13.6445 6.27539ZM32.3476 2.46094V6.27539C32.3476 6.72771 31.9796 7.0957 31.5273 7.0957C31.075 7.0957 30.707 6.72771 30.707 6.27539V2.46094C30.707 2.00862 31.075 1.64062 31.5273 1.64062C31.9796 1.64062 32.3476 2.00862 32.3476 2.46094ZM2.33617 30.8438C2.33617 33.6482 4.6177 35.9297 7.42211 35.9297C10.2265 35.9297 12.508 33.6482 12.508 30.8438C12.508 28.0393 10.2265 25.7578 7.42211 25.7578C4.6177 25.7578 2.33617 28.0393 2.33617 30.8438ZM38.6564 11.2383C38.6564 11.0225 38.5686 10.8109 38.416 10.6583C38.2635 10.5057 38.0518 10.418 37.8361 10.418C37.6203 10.418 37.4087 10.5057 37.2561 10.6583C37.1036 10.8109 37.0158 11.0225 37.0158 11.2383C37.0158 11.454 37.1035 11.6657 37.2561 11.8182C37.4088 11.9708 37.6203 12.0586 37.8361 12.0586C38.0518 12.0586 38.2635 11.9708 38.416 11.8182C38.5686 11.6657 38.6564 11.454 38.6564 11.2383ZM24.4986 36.1799C24.6512 36.3333 24.739 36.5441 24.739 36.7598C24.739 36.9756 24.6511 37.1872 24.4986 37.3406C24.3461 37.4932 24.1344 37.5802 23.9187 37.5802C23.7029 37.5802 23.4913 37.4932 23.3387 37.3406C23.1861 37.1872 23.0984 36.9764 23.0984 36.7598C23.0984 36.5441 23.1861 36.3333 23.3387 36.1799C23.4913 36.0273 23.7029 35.9404 23.9187 35.9404C24.1344 35.9404 24.3461 36.0273 24.4986 36.1799ZM21.6763 28.0547C21.6763 26.3359 20.278 24.9375 18.5592 24.9375C16.8404 24.9375 15.442 26.3359 15.442 28.0547C15.442 29.7735 16.8404 31.1719 18.5592 31.1719C20.278 31.1719 21.6763 29.7735 21.6763 28.0547ZM18.5592 29.5312C19.3733 29.5312 20.0357 28.8688 20.0357 28.0547C20.0357 27.2405 19.3733 26.5781 18.5592 26.5781C17.745 26.5781 17.0826 27.2405 17.0826 28.0547C17.0826 28.8688 17.745 29.5312 18.5592 29.5312ZM29.3326 28.0547C29.3326 26.3359 27.9342 24.9375 26.2154 24.9375C24.4966 24.9375 23.0982 26.3359 23.0982 28.0547C23.0982 29.7735 24.4966 31.1719 26.2154 31.1719C27.9342 31.1719 29.3326 29.7735 29.3326 28.0547ZM26.2154 29.5312C27.0295 29.5312 27.6919 28.8688 27.6919 28.0547C27.6919 27.2405 27.0295 26.5781 26.2154 26.5781C25.4012 26.5781 24.7388 27.2405 24.7388 28.0547C24.7388 28.8688 25.4012 29.5312 26.2154 29.5312ZM36.9889 28.0547C36.9889 26.3359 35.5905 24.9375 33.8717 24.9375C32.1529 24.9375 30.7545 26.3359 30.7545 28.0547C30.7545 29.7735 32.1529 31.1719 33.8717 31.1719C35.5905 31.1719 36.9889 29.7735 36.9889 28.0547ZM33.8717 29.5312C34.6858 29.5312 35.3483 28.8688 35.3483 28.0547C35.3483 27.2405 34.6858 26.5781 33.8717 26.5781C33.0575 26.5781 32.3951 27.2405 32.3951 28.0547C32.3951 28.8688 33.0575 29.5312 33.8717 29.5312ZM14.0201 19.5234C14.0201 17.8046 12.6217 16.4062 10.9029 16.4062C9.18414 16.4062 7.78575 17.8046 7.78575 19.5234C7.78575 21.2422 9.18414 22.6406 10.9029 22.6406C12.6217 22.6406 14.0201 21.2422 14.0201 19.5234ZM10.9029 21C11.7171 21 12.3795 20.3376 12.3795 19.5234C12.3795 18.7093 11.7171 18.0469 10.9029 18.0469C10.0888 18.0469 9.42638 18.7093 9.42638 19.5234C9.42638 20.3376 10.0888 21 10.9029 21ZM29.3326 19.5234C29.3326 17.8046 27.9342 16.4062 26.2154 16.4062C24.4966 16.4062 23.0982 17.8046 23.0982 19.5234C23.0982 21.2422 24.4966 22.6406 26.2154 22.6406C27.9342 22.6406 29.3326 21.2422 29.3326 19.5234ZM26.2154 21C27.0295 21 27.6919 20.3376 27.6919 19.5234C27.6919 18.7093 27.0295 18.0469 26.2154 18.0469C25.4012 18.0469 24.7388 18.7093 24.7388 19.5234C24.7388 20.3376 25.4012 21 26.2154 21ZM36.9889 19.5234C36.9889 17.8046 35.5905 16.4062 33.8717 16.4062C32.1529 16.4062 30.7545 17.8046 30.7545 19.5234C30.7545 21.2422 32.1529 22.6406 33.8717 22.6406C35.5905 22.6406 36.9889 21.2422 36.9889 19.5234ZM33.8717 21C34.6858 21 35.3483 20.3376 35.3483 19.5234C35.3483 18.7093 34.6858 18.0469 33.8717 18.0469C33.0575 18.0469 32.3951 18.7093 32.3951 19.5234C32.3951 20.3376 33.0575 21 33.8717 21ZM21.6763 19.5234C21.6763 17.8046 20.278 16.4062 18.5592 16.4062C16.8404 16.4062 15.442 17.8046 15.442 19.5234C15.442 21.2422 16.8404 22.6406 18.5592 22.6406C20.278 22.6406 21.6763 21.2422 21.6763 19.5234ZM18.5592 21C19.3733 21 20.0357 20.3376 20.0357 19.5234C20.0357 18.7093 19.3733 18.0469 18.5592 18.0469C17.745 18.0469 17.0826 18.7093 17.0826 19.5234C17.0826 20.3376 17.745 21 18.5592 21ZM10.3445 30.0047C10.6648 29.6843 10.6648 29.1649 10.3445 28.8446C10.0241 28.5242 9.5048 28.5242 9.1843 28.8446L6.51287 31.5161L5.59995 30.6032C5.27953 30.2828 4.76027 30.2828 4.43978 30.6032C4.11945 30.9235 4.11945 31.4429 4.43978 31.7633L5.93283 33.2562C6.08672 33.41 6.29532 33.4965 6.51287 33.4965C6.73042 33.4965 6.93902 33.41 7.09291 33.2562L10.3445 30.0047Z" fill="white"/>
</svg>
