<svg width="44" height="44" viewBox="0 0 44 44" fill="none" xmlns="http://www.w3.org/2000/svg">
<path fill-rule="evenodd" clip-rule="evenodd" d="M8.51613 6.3871H43.2903C43.6828 6.3871 44 6.70503 44 7.09677V9.93548V35.4839C44 35.8756 43.6828 36.1936 43.2903 36.1936H5.67742V38.3226C5.67742 38.4922 5.6171 38.6561 5.50639 38.7846L1.24832 43.7523C1.11065 43.9127 0.912645 44 0.709677 44C0.627355 44 0.544323 43.9858 0.463419 43.956C0.185226 43.8524 0 43.587 0 43.2903V36.1936V4.96774V2.83871C0 1.27316 1.27316 0 2.83871 0C4.158 0 5.25942 0.908387 5.57665 2.12903H7.80645C8.1989 2.12903 8.51613 2.44697 8.51613 2.83871V6.3871ZM42.5806 9.22581V7.80645H8.51613V9.22581H42.5806ZM1.41935 35.4839V34.0645H4.25806V35.4839H1.41935ZM4.25806 9.93548V7.09677V5.67742H1.41935V32.6452H4.25806V9.93548ZM5.67742 7.80645H7.09677V9.22581H5.67742V7.80645ZM5.67742 6.3871H7.09677V3.54839H5.67742V4.96774V6.3871ZM1.41935 2.83871C1.41935 2.05594 2.05594 1.41935 2.83871 1.41935C3.62148 1.41935 4.25806 2.05594 4.25806 2.83871V4.25806H1.41935V2.83871ZM1.41935 36.9032V41.3721L4.25806 38.06V36.9032H1.41935ZM42.5806 34.7742H5.67742V10.6452H7.09677V12.0645H8.51613V10.6452H42.5806V34.7742ZM8.51613 14.9032C8.51613 16.4688 9.78929 17.7419 11.3548 17.7419C12.9204 17.7419 14.1935 16.4688 14.1935 14.9032C14.1935 13.3377 12.9204 12.0645 11.3548 12.0645C9.78929 12.0645 8.51613 13.3377 8.51613 14.9032ZM11.3548 13.4839C12.1376 13.4839 12.7742 14.1205 12.7742 14.9032C12.7742 15.686 12.1376 16.3226 11.3548 16.3226C10.5721 16.3226 9.93548 15.686 9.93548 14.9032C9.93548 14.1205 10.5721 13.4839 11.3548 13.4839ZM30.5161 16.3226H40.4516C40.8441 16.3226 41.1613 16.0046 41.1613 15.6129V12.7742C41.1613 12.3825 40.8441 12.0645 40.4516 12.0645H30.5161C30.1237 12.0645 29.8065 12.3825 29.8065 12.7742V15.6129C29.8065 16.0046 30.1237 16.3226 30.5161 16.3226ZM31.2258 13.4839H39.7419V14.9032H31.2258V13.4839ZM41.1613 17.7419H29.8065V19.1613H41.1613V17.7419ZM37.6129 21.2903H36.1936V22.7459C34.9928 22.9197 34.0645 23.9459 34.0645 25.1936C34.0645 26.5632 35.1787 27.6774 36.5484 27.6774H37.2581C37.845 27.6774 38.3226 28.155 38.3226 28.7419C38.3226 29.3288 37.845 29.8065 37.2581 29.8065H34.0645V31.2258H36.1936V32.6452H37.6129V31.1896C38.8137 31.0157 39.7419 29.9895 39.7419 28.7419C39.7419 27.3723 38.6277 26.2581 37.2581 26.2581H36.5484C35.9615 26.2581 35.4839 25.7805 35.4839 25.1936C35.4839 24.6066 35.9615 24.129 36.5484 24.129H39.7419V22.7097H37.6129V21.2903ZM20.5806 31.9355H12.0645V33.3548H20.5806V31.9355ZM23.4194 31.9355H31.9355V33.3548H23.4194V31.9355ZM11.3548 19.1613C12.9204 19.1613 14.1935 20.4345 14.1935 22C14.1935 23.5655 12.9204 24.8387 11.3548 24.8387C9.78929 24.8387 8.51613 23.5655 8.51613 22C8.51613 20.4345 9.78929 19.1613 11.3548 19.1613ZM9.93548 22C9.93548 22.7828 10.5721 23.4194 11.3548 23.4194C12.1376 23.4194 12.7742 22.7828 12.7742 22C12.7742 21.2172 12.1376 20.5806 11.3548 20.5806C10.5721 20.5806 9.93548 21.2172 9.93548 22ZM28.3871 13.4839H15.6129V14.9032H28.3871V13.4839ZM15.6129 16.3226H28.3871V17.7419H15.6129V16.3226ZM28.3871 19.1613H15.6129V20.5806H28.3871V19.1613ZM25.5484 26.9677C25.5484 27.3595 25.2312 27.6774 24.8387 27.6774H19.1613C18.7688 27.6774 18.4516 27.3595 18.4516 26.9677V24.129C18.4516 23.7373 18.7688 23.4194 19.1613 23.4194H24.8387C25.2312 23.4194 25.5484 23.7373 25.5484 24.129V26.9677ZM24.129 24.8387H19.871V26.2581H24.129V24.8387Z" fill="white"/>
</svg>
