<svg width="33" height="42" viewBox="0 0 33 42" fill="none" xmlns="http://www.w3.org/2000/svg">
<path fill-rule="evenodd" clip-rule="evenodd" d="M13.7585 41.0062L15.9082 41.9346C16.1091 42.0214 16.3378 42.0219 16.5392 41.9355L18.9614 40.8988C27.4661 37.3588 32.9991 29.1089 33 19.967V9.19763C33 8.90731 32.8385 8.64024 32.5801 8.50385L16.6524 0.0925471C16.4161 -0.0324383 16.1329 -0.0306842 15.8984 0.0969325L0.411521 8.50823C0.157528 8.64637 0 8.91038 0 9.19763V20.1849C0.00929244 29.2168 5.40862 37.3878 13.7585 41.0062ZM1.5859 9.66292L16.2847 1.67877L31.4141 9.66862V19.967C31.4123 28.4787 26.2595 36.159 18.3406 39.4529L18.3348 39.4555L16.2259 40.358L14.3931 39.5656C6.62062 36.1976 1.59431 28.5923 1.58546 20.1849L1.5859 9.66292ZM13.4169 25.5567C13.5674 25.7317 13.7882 25.8325 14.02 25.8321C14.2023 25.8321 14.3789 25.7698 14.5196 25.6558L24.2749 17.7905C24.6147 17.5168 24.666 17.0217 24.3895 16.6849C24.1134 16.3481 23.6138 16.2972 23.2739 16.5713L14.12 23.952L10.4345 19.6745C10.15 19.3447 9.6495 19.3057 9.3163 19.5872C8.98311 19.8692 8.94372 20.3652 9.22825 20.6954L13.4169 25.5567Z" fill="white"/>
</svg>
