<svg width="42" height="42" viewBox="0 0 42 42" fill="none" xmlns="http://www.w3.org/2000/svg">
<path fill-rule="evenodd" clip-rule="evenodd" d="M37.778 0H17.857C15.5263 0.00266967 13.6377 1.89928 13.635 4.23982V4.89775L4.18169 12.8133C4.16423 12.8278 4.14752 12.843 4.13194 12.8594C3.35417 13.6508 2.91895 14.7186 2.9216 15.8304V33.2534H0.680556C0.304579 33.2534 0 33.5593 0 33.9368V41.3166C0 41.6937 0.304579 42 0.680556 42H19.7167C20.0923 42 20.3973 41.6937 20.3973 41.3166V33.9368C20.3973 33.5589 20.0923 33.253 19.7164 33.2534H18.0947V31.0086C20.1353 30.6711 21.6335 28.9007 21.6361 26.8237V19.7106C21.6361 19.6389 21.6251 19.5699 21.6048 19.505H37.778C40.1087 19.5023 41.9973 17.6057 42 15.2652V4.23982C41.9973 1.89928 40.1087 0.00266967 37.778 0ZM1.36111 34.6203H3.60216H17.4142H19.0362L19.0358 40.6331H1.36111V34.6203ZM4.28271 33.2534H16.7336V30.3801C16.7336 30.0029 17.0382 29.6966 17.4142 29.6966C18.9933 29.6951 20.2735 28.4099 20.2754 26.8237V19.7106C20.2754 19.6389 20.2864 19.5699 20.3067 19.505H17.857C17.1058 19.5044 16.3723 19.303 15.7295 18.9268L14.5845 20.0767L14.5533 20.6186C14.5602 21.0358 14.6578 21.4466 14.8389 21.8223C15.6144 23.495 15.5073 25.4461 14.553 27.0232V28.6021C14.553 28.9796 14.2484 29.2855 13.8724 29.2855C13.4964 29.2855 13.1918 28.9796 13.1918 28.6021V26.8241C13.1918 26.6891 13.2317 26.5571 13.3062 26.445C14.0995 25.2421 14.2134 23.7116 13.6069 22.4039C13.3373 21.8409 13.1956 21.2246 13.1918 20.6003C13.1918 20.587 13.1922 20.5736 13.193 20.5606L13.2405 19.738C13.2499 19.5706 13.3206 19.4127 13.4387 19.2941L17.195 15.5222C17.9652 14.7469 17.9652 13.4917 17.195 12.7164L16.9976 12.5181L8.96685 18.9032C8.67215 19.1377 8.24414 19.0878 8.01096 18.7918C7.7774 18.4958 7.82753 18.0657 8.12185 17.8315L13.643 13.4416C13.6377 13.4075 13.635 13.3725 13.635 13.3369V6.67712L5.08024 13.8403C4.56679 14.3746 4.28082 15.0882 4.28271 15.8304V33.2534ZM14.9961 12.3657L16.6277 11.0684C16.8984 10.8526 17.2873 10.8751 17.5315 11.1207L18.1578 11.7496C19.4585 13.0589 19.4585 15.179 18.1578 16.4883L16.7398 17.9122C17.0907 18.0618 17.4706 18.1397 17.857 18.1381H37.778C39.3572 18.1362 40.637 16.851 40.6389 15.2652V9.8137H14.9961V12.3657ZM40.6389 8.44683H14.9958V6.25694H40.6389V8.44683ZM14.9958 4.89007H40.6389L40.6385 4.23982C40.637 2.65403 39.3571 1.36878 37.7777 1.36687H17.857C16.2775 1.36878 14.9977 2.65403 14.9958 4.23982V4.89007ZM34.4577 11.2919C33.9955 11.2908 33.5398 11.4018 33.1296 11.6157C31.9121 10.9842 30.4203 11.2969 29.5559 12.3651C28.6916 13.433 28.6916 14.9631 29.5559 16.0314C30.4203 17.0992 31.9121 17.412 33.1296 16.7804C34.196 17.3334 35.4914 17.1683 36.3862 16.3651C37.2809 15.5619 37.5893 14.2877 37.1613 13.1615C36.7333 12.0356 35.6578 11.2919 34.4577 11.2919ZM30.2688 14.1981C30.2688 13.4742 30.7712 12.848 31.4757 12.6939C32.1802 12.5398 32.896 12.8995 33.1957 13.5581C33.4957 14.2164 33.2979 14.9959 32.721 15.4299C32.4563 15.6305 32.1331 15.7385 31.8015 15.7377C30.9554 15.7366 30.2695 15.0478 30.2688 14.1981ZM34.2617 15.7251C34.3267 15.7335 34.3924 15.7377 34.4577 15.7377H34.4581C35.3046 15.7377 35.9908 15.0485 35.9908 14.1981C35.9908 13.348 35.3046 12.6588 34.4581 12.6588C34.3939 12.6588 34.3301 12.6626 34.2667 12.6706C34.269 12.6744 34.2712 12.6783 34.2734 12.6823C34.2745 12.6845 34.2757 12.6866 34.2769 12.6888L34.2769 12.6889L34.2769 12.6889C34.2799 12.6944 34.2828 12.7 34.286 12.7053C34.3062 12.7385 34.3251 12.7721 34.3438 12.806L34.3506 12.8187L34.3508 12.8191L34.363 12.8421L34.3764 12.8678C34.3958 12.9052 34.4136 12.9429 34.4311 12.9815C34.4395 12.999 34.4478 13.0165 34.4558 13.0345C34.4801 13.0905 34.5029 13.1474 34.5238 13.2053L34.5264 13.2131C34.5273 13.2158 34.5281 13.2185 34.5291 13.221C34.5477 13.274 34.5648 13.3274 34.5803 13.3815C34.5841 13.3935 34.5871 13.4057 34.5901 13.4178L34.5903 13.4183C34.5921 13.4257 34.5939 13.433 34.5959 13.4403C34.6066 13.4811 34.6168 13.5215 34.6259 13.5627L34.6342 13.6022L34.64 13.6309C34.6476 13.6702 34.6544 13.7099 34.6605 13.7499C34.6639 13.7728 34.6673 13.7957 34.6704 13.819C34.6757 13.8613 34.6798 13.9044 34.6836 13.9475L34.6857 13.9718C34.6868 13.9838 34.6879 13.9957 34.6886 14.0078C34.6928 14.0711 34.695 14.1351 34.695 14.1984C34.695 14.2614 34.6928 14.3243 34.6886 14.3868C34.6879 14.3964 34.687 14.406 34.686 14.4156L34.6859 14.4168C34.685 14.4268 34.684 14.4368 34.6833 14.4467C34.6795 14.4891 34.6753 14.5314 34.6696 14.5737C34.6669 14.597 34.6635 14.6199 34.6601 14.6428C34.6536 14.6824 34.6468 14.7217 34.6388 14.761L34.6365 14.7724C34.6327 14.7912 34.6289 14.8102 34.6248 14.8293C34.6157 14.8701 34.6054 14.9105 34.5944 14.9505L34.5899 14.9677L34.5899 14.9679L34.5856 14.9846C34.5833 14.9933 34.5809 15.0019 34.5785 15.0104C34.5625 15.0646 34.545 15.1183 34.5264 15.1713L34.5211 15.187C34.5002 15.245 34.4767 15.3025 34.452 15.359C34.4467 15.3718 34.4409 15.3841 34.435 15.3965L34.4284 15.4105C34.4102 15.4498 34.3916 15.489 34.3722 15.5276C34.3617 15.5477 34.3511 15.5674 34.3405 15.5871L34.3403 15.5874C34.321 15.6225 34.3012 15.6576 34.2807 15.6919L34.2735 15.7048L34.2706 15.7101C34.2677 15.7152 34.2648 15.7202 34.2617 15.7251ZM2.60335 38.5351C2.93528 39.3044 3.69786 39.7949 4.53223 39.7765C5.65332 39.7628 6.55149 38.8406 6.54085 37.7152C6.54085 36.8769 6.03575 36.1222 5.26291 35.8056C4.49007 35.4891 3.6033 35.674 3.01959 36.2728C2.43587 36.8719 2.27143 37.7663 2.60335 38.5351ZM3.85965 37.4173C3.98155 37.1587 4.24816 37.0016 4.53223 37.0203V37.0207C4.90137 37.034 5.19075 37.3441 5.17974 37.7152C5.17974 38.0008 5.00581 38.2575 4.7411 38.3628C4.4764 38.4676 4.17486 38.3994 3.98041 38.1908C3.78597 37.9821 3.73812 37.6755 3.85965 37.4173Z" fill="white"/>
</svg>
