<svg width="25" height="42" viewBox="0 0 25 42" fill="none" xmlns="http://www.w3.org/2000/svg">
<path fill-rule="evenodd" clip-rule="evenodd" d="M3.67459 0H21.325C23.3538 0.00219987 24.9974 1.64404 25 3.66976V38.3299C24.9978 40.356 23.3538 41.9974 21.325 42H3.67459C1.64621 41.9974 0.00220273 40.356 0 38.3299V3.67012C0.00220273 1.64404 1.64621 0.00219987 3.67459 0ZM23.6842 6.95967H1.31579V32.7576H23.6842V6.95967ZM3.67459 1.31406H21.325C22.6272 1.31552 23.6827 2.36926 23.6842 3.67012V5.64561H1.31579V3.66976C1.31726 2.36926 2.37239 1.31552 3.67459 1.31406ZM3.67459 40.6856H21.325C22.6272 40.6841 23.6827 39.6304 23.6842 38.3299V34.0717H1.31579V38.3299C1.31726 39.6304 2.37239 40.6841 3.67459 40.6856ZM12.5 26.8194C9.28175 26.8194 6.67293 24.214 6.67293 21C6.67293 17.786 9.28175 15.1806 12.5 15.1806C15.7183 15.1806 18.3271 17.786 18.3271 21C18.3234 24.2122 15.7168 26.8157 12.5 26.8194ZM12.5 16.4947C10.0083 16.4947 7.98872 18.5116 7.98872 21C7.98872 23.4881 10.0083 25.5053 12.5 25.5053C14.9913 25.5053 17.0113 23.4881 17.0113 21C17.0083 18.5127 14.9902 16.4972 12.5 16.4947ZM11.2363 22.5135C11.3612 22.6598 11.5444 22.7441 11.7371 22.7438C11.8884 22.7438 12.0348 22.6917 12.1523 22.5964L14.8272 20.4229C15.0104 20.2748 15.1007 20.0405 15.0637 19.808C15.0266 19.5756 14.868 19.3805 14.6473 19.2973C14.4271 19.2137 14.1789 19.254 13.9968 19.4033L11.8197 21.172L11.088 20.3166C10.8523 20.0405 10.4371 20.0079 10.1607 20.2436C9.88421 20.4794 9.85153 20.894 10.0876 21.1701L11.2363 22.5135ZM9.83795 36.7496H15.1617C15.5251 36.7496 15.8196 37.0441 15.8196 37.4067C15.8196 37.7696 15.5251 38.0637 15.1617 38.0637H9.83795C9.47449 38.0637 9.18005 37.7696 9.18005 37.4067C9.18005 37.0441 9.47449 36.7496 9.83795 36.7496ZM21.2876 20.343H20.3008C19.9373 20.343 19.6429 20.637 19.6429 21C19.6429 21.3626 19.9373 21.657 20.3008 21.657H21.2876C21.6507 21.657 21.9455 21.3626 21.9455 21C21.9455 20.637 21.6507 20.343 21.2876 20.343ZM5.35714 21C5.35714 21.3626 5.06234 21.657 4.69925 21.657H3.71241C3.34895 21.657 3.05451 21.3626 3.05451 21C3.05451 20.637 3.34895 20.343 3.71241 20.343H4.69925C5.06234 20.343 5.35714 20.637 5.35714 21ZM21.0225 23.238L19.6451 22.7639C19.3014 22.6455 18.9273 22.8277 18.8087 23.1709C18.6905 23.5141 18.873 23.8881 19.2163 24.0061L20.5937 24.4802C20.8162 24.5583 21.0636 24.511 21.2421 24.357C21.4205 24.2027 21.5024 23.9651 21.4568 23.7337C21.4117 23.5027 21.2457 23.3135 21.0225 23.238ZM4.40628 17.5194L5.78338 17.9935C6.12701 18.1116 6.30947 18.4855 6.19126 18.8287C6.07268 19.1719 5.69821 19.3541 5.35457 19.2357L3.97747 18.762C3.75389 18.6865 3.58832 18.4969 3.54279 18.2659C3.49764 18.0346 3.57951 17.797 3.75793 17.6426C3.93635 17.4886 4.18343 17.4417 4.40628 17.5194ZM19.5 19.4836C19.5665 19.4836 19.6322 19.4737 19.6957 19.4539L21.0864 19.0219C21.3122 18.9534 21.4836 18.7693 21.5361 18.5398C21.5886 18.3099 21.5137 18.0698 21.3405 17.9103C21.1668 17.7508 20.9208 17.6962 20.6961 17.7673L19.3051 18.1992C18.9941 18.2953 18.8003 18.604 18.8491 18.9252C18.898 19.2467 19.1748 19.4839 19.5 19.4836ZM3.91323 22.9777L5.30428 22.5458C5.65121 22.438 6.01981 22.6316 6.12775 22.9781C6.23568 23.3249 6.04184 23.693 5.6949 23.8008L4.30385 24.2323C4.0788 24.3035 3.83319 24.2492 3.65954 24.0894C3.48589 23.9299 3.41136 23.6897 3.46349 23.4602C3.51599 23.2303 3.68744 23.0462 3.91323 22.9777Z" fill="white"/>
</svg>
