<svg width="22" height="18" viewBox="0 0 22 18" fill="none" xmlns="http://www.w3.org/2000/svg">
<g id="159841">
<path id="Combined Shape" fill-rule="evenodd" clip-rule="evenodd" d="M2.27755 4.75183C3.53517 4.75183 4.5551 3.68688 4.5551 2.38378C4.5551 1.08068 3.53517 0.0112305 2.27755 0.0112305C1.01993 0.0112305 0 1.07618 0 2.37929C0 3.68239 1.02425 4.75183 2.27755 4.75183ZM2.27755 1.11213C2.95174 1.11213 3.49628 1.6828 3.49628 2.37929C3.49628 3.07577 2.94742 3.64644 2.27755 3.64644C1.60768 3.64644 1.05882 3.07577 1.05882 2.37929C1.05882 1.6828 1.60768 1.11213 2.27755 1.11213ZM2.27755 11.1848C3.53517 11.1848 4.5551 10.1199 4.5551 8.81679C4.5551 7.51368 3.53517 6.44873 2.27755 6.44873C1.01993 6.44873 0 7.50919 0 8.81679C0 10.1244 1.02425 11.1848 2.27755 11.1848ZM2.27755 7.54963C2.95174 7.54963 3.49628 8.1203 3.49628 8.81679C3.49628 9.51327 2.94742 10.0839 2.27755 10.0839C1.60768 10.0839 1.05882 9.51777 1.05882 8.81679C1.05882 8.11581 1.60768 7.54963 2.27755 7.54963ZM4.5551 15.2543C4.5551 16.5574 3.53517 17.6223 2.27755 17.6223C1.02425 17.6223 0 16.5574 0 15.2543C0 13.9512 1.02425 12.8862 2.27755 12.8862C3.53085 12.8862 4.5551 13.9467 4.5551 15.2543ZM3.49628 15.2498C3.49628 14.5533 2.95174 13.9826 2.27755 13.9826C1.60768 13.9826 1.05882 14.5533 1.05882 15.2498C1.05882 15.9463 1.60768 16.5169 2.27755 16.5169C2.94742 16.5169 3.49628 15.9508 3.49628 15.2498ZM20.6319 2.93198H7.60192C7.30804 2.93198 7.07035 2.68484 7.07035 2.37929C7.07035 2.07373 7.30804 1.82659 7.60192 1.82659H20.6319C20.9258 1.82659 21.1635 2.07373 21.1635 2.37929C21.1635 2.68484 20.9258 2.93198 20.6319 2.93198ZM7.60192 9.36948H20.6319C20.9258 9.36948 21.1635 9.12234 21.1635 8.81679C21.1635 8.51123 20.9258 8.26409 20.6319 8.26409H7.60192C7.30804 8.26409 7.07035 8.51123 7.07035 8.81679C7.07035 9.12234 7.30804 9.36948 7.60192 9.36948ZM20.6319 15.8025H7.60192C7.30804 15.8025 7.07035 15.5553 7.07035 15.2498C7.07035 14.9442 7.30804 14.6971 7.60192 14.6971H20.6319C20.9258 14.6971 21.1635 14.9442 21.1635 15.2498C21.1635 15.5553 20.9258 15.8025 20.6319 15.8025Z" fill="#333333"/>
</g>
</svg>
