<svg width="20" height="20" viewBox="0 0 20 20" fill="none" xmlns="http://www.w3.org/2000/svg">
<path fill-rule="evenodd" clip-rule="evenodd" d="M5.48871 0H14.4007C17.4274 0 19.8898 2.46235 19.8896 5.48882V14.4008C19.8896 17.4273 17.4274 19.8896 14.4007 19.8896H5.48871C2.46224 19.8896 0 17.4274 0 14.4008V5.48882C0 2.46235 2.46224 0 5.48871 0ZM14.4008 18.1249C16.4544 18.1249 18.1251 16.4544 18.1251 14.4008H18.1249V5.48882C18.1249 3.43541 16.4542 1.76471 14.4007 1.76471H5.48871C3.43529 1.76471 1.76471 3.43541 1.76471 5.48882V14.4008C1.76471 16.4544 3.43529 18.1251 5.48871 18.1249H14.4008ZM4.81976 9.94506C4.81976 7.11906 7.11882 4.82 9.94482 4.82C12.7708 4.82 15.0699 7.11906 15.0699 9.94506C15.0699 12.7709 12.7708 15.0699 9.94482 15.0699C7.11882 15.0699 4.81976 12.7709 4.81976 9.94506ZM6.58447 9.94494C6.58447 11.7978 8.092 13.3051 9.94482 13.3051C11.7976 13.3051 13.3052 11.7978 13.3052 9.94494C13.3052 8.092 11.7978 6.58459 9.94482 6.58459C8.09188 6.58459 6.58447 8.092 6.58447 9.94494ZM14.3707 3.70247C14.6108 3.46129 14.9448 3.32365 15.2848 3.32365C15.626 3.32365 15.9601 3.46129 16.2001 3.70247C16.4413 3.94247 16.5789 4.27659 16.5789 4.61776C16.5789 4.95776 16.4413 5.29188 16.2001 5.53306C15.9589 5.77306 15.626 5.91188 15.2848 5.91188C14.9448 5.91188 14.6107 5.77306 14.3707 5.53306C14.1295 5.29188 13.9907 4.95788 13.9907 4.61776C13.9907 4.27659 14.1294 3.94247 14.3707 3.70247Z" fill="#333333"/>
</svg>
