<svg width="20" height="20" viewBox="0 0 20 20" fill="none" xmlns="http://www.w3.org/2000/svg">
<path fill-rule="evenodd" clip-rule="evenodd" d="M13.9837 1.05355V4.47504V4.49173H12.0325V2.54132C12.0325 2.26033 11.8211 2.04545 11.5447 2.04545H3.77236L8.14634 4.32644C8.45528 4.49173 8.66667 4.83884 8.66667 5.20247V5.30165V8.52479V13.6157H11.5447C11.8211 13.6157 12.0325 13.4008 12.0325 13.1198V9.18595H13.9837V14.6074C13.9837 15.1531 13.5449 15.5992 13.0081 15.5992H8.65041V19.4008C8.65041 19.7812 8.26016 20.0124 7.93496 19.8471L0.520325 15.9461C0.211382 15.7808 0 15.4337 0 15.0702V14.6238V1.69818V1.05355C0 0.508094 0.439024 0.0618134 0.97561 0.0618134H13.0081C13.5449 0.0618134 13.9837 0.508094 13.9837 1.05355ZM19.6585 6.07818L16.4878 2.85504C16.0813 2.44181 15.4472 2.42545 15.0569 2.82214C14.6667 3.20231 14.7154 3.88 15.0896 4.26016C15.1059 4.26016 16.5203 5.69818 16.5203 5.69818H10.9756C10.813 5.69818 10.6341 5.74776 10.4878 5.83041C9.90244 6.16099 9.78862 7.03702 10.2439 7.53289C10.4228 7.74776 10.6993 7.86347 10.9756 7.86347H16.5202L15.0894 9.30148C14.7153 9.69818 14.6667 10.3595 15.0567 10.756C15.4633 11.1693 16.0813 11.1526 16.4878 10.7393L19.6585 7.51619C20.065 7.10297 20.065 6.4914 19.6585 6.07818Z" fill="#FF7914"/>
</svg>
