<svg width="40" height="15" viewBox="0 0 40 15" fill="none" xmlns="http://www.w3.org/2000/svg">
<path fill-rule="evenodd" clip-rule="evenodd" d="M19.2469 0.0253906H37.1452C37.2672 0.0253906 37.3855 0.0399506 37.5012 0.0610706L27.4775 5.82379L19.0032 0.0498706C19.0227 0.0474756 19.0421 0.0448101 19.0615 0.0421443L19.0615 0.042143C19.1224 0.0337679 19.1833 0.0253906 19.2469 0.0253906ZM5.69141 13.6496V11.1603H13.6788L13.5813 11.9678L13.5634 12.1168V12.2665C13.5634 12.7496 13.6436 13.2139 13.7871 13.6496H5.69141ZM2.99397 8.77467H13.9668L14.2684 6.28475H2.99397V8.77467ZM14.8112 1.79483L14.6568 3.06923H0.573486V0.579311H15.0349C14.9071 0.964431 14.8282 1.37163 14.8112 1.79483ZM18.002 14.2163H35.8999C36.9767 14.2163 37.8493 13.344 37.8504 12.267L39.0954 1.97435C39.0954 1.89012 39.0838 1.80921 39.0722 1.72843C39.0708 1.71883 39.0694 1.70923 39.068 1.69963L28.0613 8.05419C28.0538 8.05927 28.0462 8.06292 28.0387 8.06653C28.0332 8.06918 28.0277 8.07181 28.0223 8.07499C28.0133 8.08045 28.0043 8.08516 27.9953 8.08987C27.9906 8.09234 27.9859 8.09481 27.9812 8.09739C27.908 8.13483 27.8333 8.16475 27.757 8.18459C27.7505 8.18625 27.7444 8.18741 27.7379 8.18862C27.7363 8.18892 27.7347 8.18923 27.733 8.18955C27.6492 8.20955 27.5642 8.22155 27.4799 8.22155H27.4783H27.4775C27.3933 8.22155 27.3082 8.20939 27.2244 8.18955C27.2162 8.18795 27.2087 8.18667 27.2004 8.18459C27.1239 8.16459 27.0492 8.13467 26.9762 8.09739C26.9722 8.09526 26.9682 8.0932 26.9643 8.09116C26.9544 8.08601 26.9446 8.08095 26.9351 8.07499C26.9297 8.07189 26.9243 8.06927 26.9188 8.06667C26.9111 8.06296 26.9034 8.05927 26.896 8.05419L17.6575 1.79307V0.852271C17.5061 1.06683 17.4002 1.31387 17.3442 1.57979C17.3436 1.57935 17.3431 1.57891 17.3425 1.57849C17.3415 1.57769 17.3406 1.57696 17.3396 1.57643C17.3381 1.58292 17.3377 1.58971 17.3373 1.59648C17.337 1.60274 17.3366 1.609 17.3354 1.61499C17.3133 1.73147 17.2984 1.85067 17.2984 1.97387L16.7772 6.28427L16.7165 6.78507L16.0533 12.2665C16.0533 12.4014 16.0671 12.5329 16.0932 12.6608C16.0952 12.671 16.0987 12.6807 16.1022 12.6905C16.1051 12.6985 16.108 12.7067 16.1101 12.7152C16.1354 12.8227 16.1652 12.9286 16.2076 13.0281C16.21 13.0334 16.2129 13.0382 16.2158 13.043C16.2188 13.0481 16.2218 13.053 16.2242 13.0584C16.2714 13.1638 16.325 13.2659 16.3893 13.3609C16.3901 13.3622 16.3913 13.3634 16.3924 13.3647C16.3936 13.3659 16.3948 13.3672 16.3956 13.3684C16.4648 13.4692 16.5429 13.5638 16.6292 13.6497V13.6502C16.9815 14.0001 17.4663 14.2163 18.002 14.2163Z" fill="white"/>
</svg>
