<svg width="20" height="20" viewBox="0 0 20 20" fill="none" xmlns="http://www.w3.org/2000/svg">
<path d="M18.3333 4.00004C18.1493 4.00004 18 3.85079 18 3.66671C17.9989 2.74662 17.2534 2.00118 16.3333 2.00004C16.1493 2.00004 16 1.85079 16 1.66671C16 1.48263 16.1493 1.33337 16.3333 1.33337C17.6214 1.33484 18.6652 2.37862 18.6667 3.66671C18.6667 3.85079 18.5174 4.00004 18.3333 4.00004Z" fill="black"/>
<path d="M17 3.99996C16.8159 3.99996 16.6667 3.85071 16.6667 3.66663C16.6667 3.48254 16.5174 3.33329 16.3333 3.33329C16.1493 3.33329 16 3.18404 16 2.99996C16 2.81588 16.1493 2.66663 16.3333 2.66663C16.8856 2.66663 17.3333 3.11438 17.3333 3.66663C17.3333 3.85071 17.1841 3.99996 17 3.99996Z" fill="black"/>
<path d="M19.6667 4C19.4826 4 19.3333 3.85075 19.3333 3.66667C19.3314 2.01058 17.9894 0.66862 16.3333 0.666667C16.1493 0.666667 16 0.517415 16 0.333333C16 0.149251 16.1493 0 16.3333 0C18.3574 0.00244141 19.9976 1.64258 20 3.66667C20 3.85075 19.8507 4 19.6667 4Z" fill="black"/>
<path d="M1.66634 4.00004C1.48226 4.00004 1.33301 3.85079 1.33301 3.66671C1.33447 2.37862 2.37826 1.33484 3.66634 1.33337C3.85042 1.33337 3.99967 1.48263 3.99967 1.66671C3.99967 1.85079 3.85042 2.00004 3.66634 2.00004C2.74626 2.00118 2.00081 2.74662 1.99967 3.66671C1.99967 3.85079 1.85042 4.00004 1.66634 4.00004Z" fill="black"/>
<path d="M3.00033 3.99996C2.81624 3.99996 2.66699 3.85071 2.66699 3.66663C2.66699 3.11438 3.11475 2.66663 3.66699 2.66663C3.85107 2.66663 4.00033 2.81588 4.00033 2.99996C4.00033 3.18404 3.85107 3.33329 3.66699 3.33329C3.48291 3.33329 3.33366 3.48254 3.33366 3.66663C3.33366 3.85071 3.18441 3.99996 3.00033 3.99996Z" fill="black"/>
<path d="M0.333333 4C0.149251 4 0 3.85075 0 3.66667C0.00244141 1.64258 1.64258 0.00244141 3.66667 0C3.85075 0 4 0.149251 4 0.333333C4 0.517415 3.85075 0.666667 3.66667 0.666667C2.01058 0.66862 0.66862 2.01058 0.666667 3.66667C0.666667 3.85075 0.517415 4 0.333333 4Z" fill="black"/>
<path d="M10 17.3334C11.1045 17.3334 12 16.4379 12 15.3334C12 14.2289 11.1045 13.3334 10 13.3334C8.89551 13.3334 8 14.2289 8 15.3334C8.00114 16.4375 8.89583 17.3322 10 17.3334ZM10 14C10.7363 14 11.3333 14.597 11.3333 15.3334C11.3333 16.0697 10.7363 16.6667 10 16.6667C9.26367 16.6667 8.66667 16.0697 8.66667 15.3334C8.66667 14.597 9.26367 14 10 14Z" fill="black"/>
<path d="M10 7.66663C10.5522 7.66663 11 7.21887 11 6.66663C11 6.11438 10.5522 5.66663 10 5.66663C9.44775 5.66663 9 6.11438 9 6.66663C9 7.21887 9.44775 7.66663 10 7.66663ZM10 6.33329C10.1841 6.33329 10.3333 6.48254 10.3333 6.66663C10.3333 6.85071 10.1841 6.99996 10 6.99996C9.81592 6.99996 9.66667 6.85071 9.66667 6.66663C9.66667 6.48254 9.81592 6.33329 10 6.33329Z" fill="black"/>
<path d="M13.248 6.33337V6.33533H13.2503L13.248 6.33337Z" fill="black"/>
<path d="M6.33301 6.33337H8.33301V7.00004H6.33301V6.33337Z" fill="black"/>
<path d="M11.667 6.33337H13.667V7.00004H11.667V6.33337Z" fill="black"/>
<path d="M9.99993 2C5.78053 1.99951 2.12721 4.9305 1.21282 9.04948C0.29843 13.1686 2.36842 17.37 6.19166 19.1549C8.60523 20.2814 11.3938 20.2814 13.8075 19.1549C17.6308 17.3701 19.7006 13.1689 18.7864 9.0498C17.8722 4.93083 14.2192 1.99984 9.99993 2ZM9.99993 2.66667C14.4701 2.6722 18.1415 6.20019 18.325 10.6667H17.6583C17.4674 6.57585 14.0951 3.35742 9.99993 3.35742C5.90471 3.35742 2.53248 6.57585 2.34156 10.6667H1.67489C1.85833 6.20019 5.52971 2.6722 9.99993 2.66667ZM11.213 12.8957C12.4915 13.3952 13.3331 14.6273 13.3333 16V17.1517C11.255 18.2827 8.74488 18.2827 6.66659 17.1517V16C6.66676 14.8988 7.21087 13.8687 8.12021 13.2477C9.02971 12.6266 10.1873 12.495 11.213 12.8957ZM13.9999 16C13.9999 13.7909 12.2091 12 9.99993 12C7.79078 12 5.99993 13.7909 5.99993 16V16.7389C4.38062 15.6147 3.3121 13.8584 3.0582 11.9036C2.80413 9.94873 3.38844 7.9777 4.66659 6.47705V8C4.66773 8.92008 5.41318 9.66553 6.33326 9.66667H13.6666C14.5867 9.66553 15.3321 8.92008 15.3333 8V6.47705C16.6114 7.9777 17.1957 9.94873 16.9417 11.9036C16.6878 13.8584 15.6192 15.6147 13.9999 16.7389V16ZM5.33326 5.79736C7.98284 3.40088 12.017 3.40088 14.6666 5.79736V8C14.6666 8.55225 14.2188 9 13.6666 9H6.33326C5.78102 9 5.33326 8.55225 5.33326 8V5.79736ZM1.67864 11.3333H2.34531C2.46347 13.8766 3.83163 16.1968 5.99993 17.5314V18.3083C3.44003 16.8978 1.80185 14.2536 1.67864 11.3333ZM6.66659 18.6353V17.9001C8.77092 18.9235 11.2289 18.9235 13.3333 17.9001V18.6364C11.2084 19.5671 8.79143 19.5671 6.66659 18.6364V18.6353ZM13.9999 18.3083V17.5314C16.1684 16.1969 17.5369 13.8768 17.6552 11.3333H18.3219C18.1985 14.2537 16.56 16.8979 13.9999 18.3083Z" fill="black"/>
</svg>
