<svg width="20" height="20" viewBox="0 0 20 20" fill="none" xmlns="http://www.w3.org/2000/svg">
<path d="M6.48141 6.05603L2.4814 8.7227C2.32824 8.82491 2.2869 9.03194 2.38912 9.1851L3.05578 10.1851C3.10559 10.2596 3.18322 10.3111 3.27144 10.3277C3.35966 10.3438 3.45048 10.3241 3.52405 10.273L3.9998 9.93966V13C3.9998 13.1841 4.14905 13.3334 4.33313 13.3334H8.9998C9.18389 13.3334 9.33314 13.1841 9.33314 13V9.94031L9.80872 10.2736C9.86471 10.3129 9.93145 10.3337 9.99981 10.3334C10.0205 10.3334 10.0411 10.3314 10.0615 10.3277C10.1495 10.3111 10.2273 10.2596 10.2771 10.1851L10.9438 9.1851C11.046 9.03194 11.0047 8.82491 10.8515 8.7227L6.85153 6.05603C6.73938 5.98132 6.59339 5.98132 6.48141 6.05603ZM5.9998 12.6667V10.6667H7.33313V12.6667H5.9998ZM8.66647 12.6667H7.9998V10.3334C7.9998 10.1493 7.85055 10 7.66647 10H5.66646C5.48238 10 5.33313 10.1493 5.33313 10.3334V12.6667H4.66646V9.47367L6.66647 8.07377L8.66647 9.47367V12.6667ZM9.91143 9.53145L6.85738 7.39376C6.7428 7.31352 6.59013 7.31352 6.47539 7.39376L3.42151 9.53145L3.1287 9.09233L6.66647 6.73344L10.2041 9.09168L9.91143 9.53145Z" fill="#333333"/>
<path d="M6.66634 4.66663C3.72087 4.66663 1.33301 7.05448 1.33301 9.99996C1.33301 12.9454 3.72087 15.3333 6.66634 15.3333C9.61182 15.3333 11.9997 12.9454 11.9997 9.99996C11.9961 7.05595 9.61035 4.67021 6.66634 4.66663ZM6.66634 14.6666C4.08903 14.6666 1.99967 12.5773 1.99967 9.99996C1.99967 7.42265 4.08903 5.33329 6.66634 5.33329C9.24365 5.33329 11.333 7.42265 11.333 9.99996C11.3302 12.5761 9.24251 14.6639 6.66634 14.6666Z" fill="#333333"/>
<path d="M13.6667 9H13.25C12.9663 7.13542 11.9067 5.47803 10.3333 4.43799V1.66667C10.3322 0.746582 9.58659 0.00113933 8.66667 0H4.66667C3.74658 0.00113933 3.00114 0.746582 3 1.66667V4.43799C1.12744 5.66878 0 7.75928 0 10C0 12.2407 1.12744 14.3312 3 15.562V18.3333C3.00114 19.2534 3.74658 19.9989 4.66667 20H8.66667C9.58659 19.9989 10.3322 19.2534 10.3333 18.3333V15.562C11.9067 14.522 12.9663 12.8646 13.25 11H13.6667C14.2178 10.9972 14.6639 10.5511 14.6667 10C14.6667 9.44775 14.2189 9 13.6667 9ZM3.66667 1.66667C3.66667 1.11442 4.11442 0.666667 4.66667 0.666667H8.66667C9.21891 0.666667 9.66667 1.11442 9.66667 1.66667V4.05469C7.78223 3.0931 5.55111 3.0931 3.66667 4.05469V1.66667ZM9.66667 18.3333C9.66667 18.8856 9.21891 19.3333 8.66667 19.3333H4.66667C4.11442 19.3333 3.66667 18.8856 3.66667 18.3333V15.9453C5.55111 16.9069 7.78223 16.9069 9.66667 15.9453V18.3333ZM6.66667 16C3.35286 16 0.666667 13.3138 0.666667 10C0.666667 6.68636 3.35286 4 6.66667 4C9.98031 4 12.6667 6.68636 12.6667 10C12.6628 13.3122 9.97868 15.9961 6.66667 16ZM13.8979 10.2373C13.8372 10.2995 13.7536 10.3341 13.6667 10.3333H13.3162C13.3219 10.2223 13.3333 10.1126 13.3333 10C13.3333 9.88737 13.3219 9.77767 13.3162 9.66667H13.6667C13.8507 9.66667 14 9.81592 14 10C14.0003 10.0898 13.9634 10.1758 13.8979 10.2373Z" fill="#333333"/>
<path d="M18.9256 7.40777C18.7949 7.28147 18.5869 7.28326 18.4583 7.41184C18.3298 7.54042 18.328 7.74826 18.4543 7.87912C19.6255 9.05051 19.6255 10.9496 18.4543 12.121C18.3677 12.2048 18.3329 12.3287 18.3635 12.4452C18.3939 12.5617 18.4849 12.6527 18.6014 12.6833C18.7181 12.7138 18.842 12.6791 18.9256 12.5923C20.3581 11.161 20.3581 8.83908 18.9256 7.40777Z" fill="#333333"/>
<path d="M17.0813 8.11438C16.9511 8.24443 16.9511 8.45553 17.0813 8.58557C17.8624 9.36666 17.8624 10.6333 17.0813 11.4144C16.9946 11.498 16.9599 11.6219 16.9903 11.7384C17.0208 11.8549 17.1119 11.9461 17.2285 11.9765C17.345 12.0071 17.4689 11.9723 17.5525 11.8857C18.594 10.8442 18.594 9.15572 17.5525 8.11438C17.4225 7.98417 17.2114 7.98417 17.0813 8.11438Z" fill="#333333"/>
<path d="M15.7089 8.81928C15.5779 8.94851 15.5764 9.15961 15.7057 9.29063C16.0976 9.68223 16.0976 10.3176 15.7057 10.7092C15.6144 10.7924 15.5764 10.9192 15.6072 11.0388C15.638 11.1585 15.7324 11.2512 15.8525 11.2799C15.9726 11.3087 16.0987 11.2687 16.1803 11.1759C16.8282 10.5248 16.8282 9.47243 16.1803 8.82123C16.0507 8.69053 15.8396 8.68972 15.7089 8.81928Z" fill="#333333"/>
</svg>
