<svg width="20" height="20" viewBox="0 0 20 20" fill="none" xmlns="http://www.w3.org/2000/svg">
<path d="M18.4375 2.65625H1.5625C0.700938 2.65625 0 3.35719 0 4.21875V5.78062V14.2194V15.7812C0 16.6428 0.700938 17.3438 1.5625 17.3438H18.4375C19.2991 17.3438 20 16.6428 20 15.7812V14.2194V5.78062V4.21875C20 3.35719 19.2991 2.65625 18.4375 2.65625ZM0.625 4.21875C0.625 3.70187 1.04562 3.28125 1.5625 3.28125H18.4375C18.9544 3.28125 19.375 3.70187 19.375 4.21875V5.78062V14.2194C19.375 14.7362 18.9544 15.1569 18.4375 15.1569H1.5625C1.04562 15.1569 0.625 14.7362 0.625 14.2194V5.78062V4.21875ZM18.4375 16.7188H1.5625C1.04562 16.7188 0.625 16.2981 0.625 15.7812V15.4616C0.886875 15.66 1.20938 15.7819 1.5625 15.7819H18.4375C18.7906 15.7819 19.1131 15.6597 19.375 15.4616V15.7812C19.375 16.2981 18.9544 16.7188 18.4375 16.7188Z" fill="black"/>
<path d="M13.4375 13.9059C16.0222 13.9059 18.125 11.8031 18.125 9.21838C18.125 6.6337 16.0222 4.53088 13.4375 4.53088C10.8528 4.53088 8.75 6.6337 8.75 9.21838C8.75 11.8031 10.8525 13.9059 13.4375 13.9059ZM13.4375 5.15588C15.6775 5.15588 17.5 6.97838 17.5 9.21838C17.5 11.4584 15.6775 13.2809 13.4375 13.2809C11.1975 13.2809 9.375 11.4584 9.375 9.21838C9.375 6.97838 11.1975 5.15588 13.4375 5.15588Z" fill="black"/>
<path d="M13.4375 12.9684C15.5053 12.9684 17.1875 11.2862 17.1875 9.21838C17.1875 7.15057 15.5053 5.46838 13.4375 5.46838C11.3697 5.46838 9.6875 7.15057 9.6875 9.21838C9.6875 11.2862 11.3697 12.9684 13.4375 12.9684ZM13.4375 6.09338C15.1606 6.09338 16.5625 7.49526 16.5625 9.21838C16.5625 10.9415 15.1606 12.3434 13.4375 12.3434C11.7144 12.3434 10.3125 10.9415 10.3125 9.21838C10.3125 7.49526 11.7144 6.09338 13.4375 6.09338Z" fill="black"/>
<path d="M13.4375 11.4059C14.6434 11.4059 15.625 10.4243 15.625 9.21838C15.625 8.01245 14.6434 7.03088 13.4375 7.03088C12.2316 7.03088 11.25 8.01245 11.25 9.21838C11.25 10.4243 12.2316 11.4059 13.4375 11.4059ZM13.4375 7.65588C14.2991 7.65588 15 8.35682 15 9.21838C15 10.0799 14.2991 10.7809 13.4375 10.7809C12.5759 10.7809 11.875 10.0799 11.875 9.21838C11.875 8.35682 12.5759 7.65588 13.4375 7.65588Z" fill="black"/>
<path d="M13.4375 8.59338C13.7822 8.59338 14.0625 8.8737 14.0625 9.21838C14.0625 9.3912 14.2022 9.53088 14.375 9.53088C14.5478 9.53088 14.6875 9.3912 14.6875 9.21838C14.6875 8.52901 14.1269 7.96838 13.4375 7.96838C13.2647 7.96838 13.125 8.10807 13.125 8.28088C13.125 8.4537 13.2647 8.59338 13.4375 8.59338Z" fill="black"/>
<path d="M4.6875 12.3438C6.23844 12.3438 7.5 11.0822 7.5 9.53125C7.5 7.98031 6.23844 6.71875 4.6875 6.71875C3.13656 6.71875 1.875 7.98031 1.875 9.53125C1.875 11.0822 3.13656 12.3438 4.6875 12.3438ZM4.6875 7.34375C5.89344 7.34375 6.875 8.32531 6.875 9.53125C6.875 10.7372 5.89344 11.7188 4.6875 11.7188C3.48156 11.7188 2.5 10.7372 2.5 9.53125C2.5 8.32531 3.48156 7.34375 4.6875 7.34375Z" fill="black"/>
<path d="M4.6875 11.0938C5.54906 11.0938 6.25 10.3928 6.25 9.53126C6.25 9.15033 6.11156 8.78314 5.85969 8.49814C5.745 8.36845 5.54781 8.35657 5.41875 8.47032C5.28906 8.58439 5.27687 8.78189 5.39094 8.91126C5.54187 9.08251 5.625 9.30283 5.625 9.53126C5.625 10.0481 5.20438 10.4688 4.6875 10.4688C4.17062 10.4688 3.75 10.0481 3.75 9.53126C3.75 9.30283 3.83312 9.08251 3.98406 8.91157C4.09812 8.7822 4.08594 8.5847 3.95625 8.47064C3.82781 8.35689 3.63 8.36876 3.51531 8.49845C3.26344 8.78314 3.125 9.15033 3.125 9.53126C3.125 10.3928 3.82594 11.0938 4.6875 11.0938Z" fill="black"/>
<path d="M4.6875 8.90594C4.86031 8.90594 5 8.76625 5 8.59344V7.96875C5 7.79594 4.86031 7.65625 4.6875 7.65625C4.51469 7.65625 4.375 7.79594 4.375 7.96875V8.59344C4.375 8.76625 4.51469 8.90594 4.6875 8.90594Z" fill="black"/>
</svg>
