<svg width="20" height="20" viewBox="0 0 20 20" fill="none" xmlns="http://www.w3.org/2000/svg">
<g clip-path="url(#clip0)">
<path d="M8.59375 9.0625C5.83688 9.0625 3.59375 11.3056 3.59375 14.0625C3.59375 16.8194 5.83688 19.0625 8.59375 19.0625C11.3506 19.0625 13.5938 16.8194 13.5938 14.0625C13.5938 11.3056 11.3506 9.0625 8.59375 9.0625ZM8.59375 18.4375C6.18125 18.4375 4.21875 16.475 4.21875 14.0625C4.21875 11.65 6.18125 9.6875 8.59375 9.6875C11.0062 9.6875 12.9688 11.65 12.9688 14.0625C12.9688 16.475 11.0062 18.4375 8.59375 18.4375Z" fill="black"/>
<path d="M17.9685 1.87562C18.1413 1.87562 18.281 1.73594 18.281 1.56312C18.281 1.39031 18.1413 1.25062 17.9685 1.25062H16.7191V0.938125C16.7191 0.765313 16.5794 0.625625 16.4066 0.625625H15.7829V0.3125C15.7829 0.139688 15.6432 0 15.4704 0H12.6572C12.1404 0 11.7197 0.420625 11.7197 0.9375V5.31187C11.7197 5.82875 12.1404 6.24937 12.6572 6.24937H12.9691V10.0622C11.8825 8.875 10.3263 8.125 8.5941 8.125C6.86191 8.125 5.30566 8.875 4.2191 10.0622V6.24937C4.73566 6.24906 5.15598 5.82844 5.15598 5.31187V2.49813C5.15598 2.32531 5.01629 2.18563 4.84348 2.18563V0.313125C4.84348 0.140312 4.70379 0.000625 4.53098 0.000625H2.34473C2.17191 0.000625 2.03223 0.140312 2.03223 0.313125V2.18563C1.85941 2.18563 1.71973 2.32531 1.71973 2.49813V5.31187C1.71973 5.82844 2.14004 6.24906 2.6566 6.24937V14.0625C2.6566 17.3366 5.32004 20 8.5941 20C11.8682 20 14.5316 17.3366 14.5316 14.0625V6.24937H15.4704C15.6432 6.24937 15.7829 6.10969 15.7829 5.93687V3.75062H16.4066C16.5794 3.75062 16.7191 3.61094 16.7191 3.43812V3.12562H17.9685C18.1413 3.12562 18.281 2.98594 18.281 2.81312C18.281 2.64031 18.1413 2.50062 17.9685 2.50062H16.7191V1.87562H17.9685ZM2.65723 1.875H2.9691C3.14191 1.875 3.2816 1.73531 3.2816 1.5625C3.2816 1.38969 3.14191 1.25 2.9691 1.25H2.65723V0.625625H4.21848V1.25H3.9066C3.73379 1.25 3.5941 1.38969 3.5941 1.5625C3.5941 1.73531 3.73379 1.875 3.9066 1.875H4.21848V2.18563H2.65723V1.875ZM2.34473 5.31187V2.81125H4.53098V5.31187C4.53098 5.48437 4.39098 5.62437 4.21848 5.62437H2.65723C2.48473 5.62437 2.34473 5.48437 2.34473 5.31187ZM3.2816 6.24937H3.5941V10.8731C3.48004 11.0512 3.3766 11.2362 3.2816 11.4266V6.24937ZM8.5941 19.375C5.66473 19.375 3.2816 16.9919 3.2816 14.0625C3.2816 11.1331 5.66473 8.75 8.5941 8.75C11.5235 8.75 13.9066 11.1331 13.9066 14.0625C13.9066 16.9919 11.5235 19.375 8.5941 19.375ZM13.9066 11.4266C13.8116 11.2362 13.7082 11.0512 13.5941 10.8731V6.24937H13.9066V11.4266ZM12.6572 5.62437C12.4847 5.62437 12.3447 5.48437 12.3447 5.31187V0.9375C12.3447 0.765 12.4847 0.625 12.6572 0.625H15.1579V0.935C15.1579 0.93625 15.1572 0.936875 15.1572 0.938125C15.1572 0.939375 15.1579 0.94 15.1579 0.94125V3.435C15.1579 3.43625 15.1572 3.43687 15.1572 3.43812C15.1572 3.43937 15.1579 3.44 15.1579 3.44125V5.62437H12.6572ZM16.0941 3.12562H15.7829V1.25062H16.0941V3.12562Z" fill="black"/>
</g>
<defs>
<clipPath id="clip0">
<rect width="20" height="20" fill="white"/>
</clipPath>
</defs>
</svg>
