<svg width="20" height="20" viewBox="0 0 20 20" fill="none" xmlns="http://www.w3.org/2000/svg">
<g clip-path="url(#clip0)">
<path d="M18.8319 3.68054H1.16739C1.05015 3.68054 0.955078 3.77562 0.955078 3.89286V14.6569C0.955078 14.7741 1.05015 14.8692 1.16739 14.8692H18.8319C18.9492 14.8692 19.0443 14.7741 19.0443 14.6569V3.89286C19.0443 3.77557 18.9492 3.68054 18.8319 3.68054ZM18.6196 14.4446H1.37971V4.10517H18.6196V14.4446Z" fill="black"/>
<path d="M19.0682 2.7251H0.93189C0.418047 2.7251 0 3.14314 0 3.65694V14.8927C0 15.4065 0.418047 15.8245 0.93189 15.8245H7.23096L6.89507 16.638H5.54594C5.37006 16.638 5.22747 16.7806 5.22747 16.9564C5.22747 17.1323 5.37006 17.2749 5.54594 17.2749H14.4542C14.6301 17.2749 14.7727 17.1323 14.7727 16.9564C14.7727 16.7806 14.6301 16.638 14.4542 16.638H13.1051L12.7692 15.8245H19.0682C19.5821 15.8245 20.0001 15.4065 20.0001 14.8927V3.65694C20 3.14314 19.582 2.7251 19.0682 2.7251ZM12.4159 16.638H7.58412L7.92004 15.8246H12.08L12.4159 16.638ZM19.3631 14.8927C19.3631 15.0554 19.2308 15.1876 19.0682 15.1876H0.93189C0.769257 15.1876 0.636943 15.0553 0.636943 14.8927V3.65694C0.636943 3.49431 0.769257 3.362 0.93189 3.362H19.0682C19.2308 3.362 19.3631 3.49431 19.3631 3.65694V14.8927Z" fill="black"/>
</g>
<defs>
<clipPath id="clip0">
<rect width="20" height="20" fill="white"/>
</clipPath>
</defs>
</svg>
