<svg width="20" height="20" viewBox="0 0 20 20" fill="none" xmlns="http://www.w3.org/2000/svg">
<path d="M17.7649 14.6673C17.4468 14.1161 16.9775 13.7575 16.3698 13.6017C16.2247 13.5645 16.0784 13.5411 15.9332 13.5319C15.952 13.3231 15.9618 13.1127 15.9618 12.9027C15.9618 12.6362 15.9465 12.3693 15.9162 12.105C16.9962 11.9572 17.8293 11.0595 17.8293 9.97762C17.8293 8.79289 16.83 7.82898 15.6018 7.82898C15.4813 7.82898 15.3624 7.83867 15.2456 7.85668C15.4981 7.24852 15.6371 6.58551 15.6371 5.89191C15.6371 5.44098 15.5787 4.99598 15.4632 4.56406C16.3493 4.18977 16.939 3.34172 16.939 2.3825C16.939 1.06879 15.8302 0 14.4672 0C13.6363 0 12.8673 0.404609 12.4132 1.05664C11.6896 0.736797 10.8949 0.569102 10.0931 0.569102C9.29133 0.569102 8.49668 0.736797 7.77309 1.05664C7.31887 0.404609 6.54984 0 5.71895 0C4.35594 0 3.24703 1.06883 3.24703 2.38258C3.24703 3.34184 3.8368 4.18988 4.72293 4.56418C4.60734 4.99621 4.54891 5.44125 4.54891 5.89199C4.54891 6.58559 4.68797 7.24855 4.94043 7.85676C4.82367 7.83875 4.7048 7.82906 4.58434 7.82906C3.35605 7.82906 2.3568 8.79293 2.3568 9.9777C2.3568 11.0595 3.19 11.9571 4.26984 12.105C4.23957 12.3695 4.22426 12.6365 4.22426 12.9028C4.22426 13.1186 4.23461 13.3346 4.25441 13.5491C4.23934 13.5488 4.2243 13.5484 4.20914 13.5484C4.01797 13.5484 3.82344 13.5734 3.63086 13.6227C3.02324 13.7786 2.55391 14.137 2.23578 14.6883C1.6852 15.6424 1.71398 17.0525 1.98672 18.0268C2.31207 19.1886 3.4109 20 4.65902 20C4.71133 20 4.76371 19.9983 4.81598 19.9954C4.81824 19.9954 4.82047 19.9954 4.82273 19.9952C4.82617 19.9951 4.82961 19.9948 4.83305 19.9946C4.83711 19.9943 4.84113 19.9941 4.84516 19.9938C5.86832 19.9381 6.76906 19.3342 7.19508 18.4626C8.07562 19.0086 9.06773 19.2948 10.093 19.2948C11.0717 19.2948 12.0252 19.0313 12.8776 18.53C12.8913 18.5557 12.9048 18.5815 12.9195 18.6069C13.288 19.2454 13.8946 19.7006 14.6274 19.8886C14.8612 19.9485 15.1015 19.979 15.3416 19.979C16.5897 19.979 17.6885 19.1676 18.0138 18.0058C18.2867 17.0316 18.3155 15.6214 17.7649 14.6673ZM4.02852 2.38258C4.02852 1.49973 4.78684 0.781445 5.71895 0.781445C6.38574 0.781445 6.99219 1.15445 7.26391 1.73176C7.3093 1.8282 7.39215 1.90188 7.49316 1.93578C7.59422 1.96965 7.70469 1.96078 7.7991 1.91125C8.4975 1.54441 9.29074 1.35055 10.093 1.35055C10.8953 1.35055 11.6885 1.54441 12.3869 1.91125C12.4813 1.96082 12.5918 1.96969 12.6929 1.93578C12.7939 1.90188 12.8767 1.82816 12.9221 1.73176C13.1939 1.15445 13.8003 0.781445 14.4671 0.781445C15.3992 0.781445 16.1575 1.49969 16.1575 2.38258C16.1575 3.00723 15.7776 3.56266 15.2018 3.82508C15.109 3.61371 15.0022 3.40789 14.8821 3.2102C14.7701 3.02578 14.5298 2.96715 14.3454 3.0791C14.161 3.19113 14.1023 3.43145 14.2143 3.61586C14.3736 3.87816 14.5059 4.15691 14.6073 4.44445C14.6097 4.45148 14.6126 4.4582 14.6154 4.465C14.7746 4.92379 14.8557 5.40367 14.8557 5.89199C14.8557 8.27066 12.9278 10.2279 10.4837 10.4181V7.51285C11.0493 7.31914 11.4488 6.73156 11.4488 6.21281C11.4488 5.92836 11.3167 5.26672 10.093 5.26672C8.86922 5.26672 8.73711 5.92836 8.73711 6.21281C8.73711 6.73156 9.1366 7.31914 9.70227 7.51285V10.4181C7.2582 10.2279 5.33027 8.2707 5.33027 5.89199C5.33027 5.39652 5.41344 4.90934 5.5775 4.44395C5.61426 4.33965 5.60512 4.22473 5.5523 4.12754C5.49953 4.03035 5.40805 3.96016 5.30055 3.93422C4.5516 3.75367 4.02852 3.11559 4.02852 2.38258ZM10.0931 13.4405C9.8773 13.4405 9.70238 13.6155 9.70238 13.8312V15.0155C8.37875 14.8253 7.35809 13.6843 7.35809 12.3088C7.35809 11.7521 7.52879 11.2107 7.84242 10.756C8.53059 11.0507 9.29223 11.2148 10.0931 11.2148C10.8939 11.2148 11.6556 11.0507 12.3438 10.756C12.6574 11.2107 12.8282 11.7521 12.8282 12.3088C12.8282 13.6842 11.8075 14.8253 10.4839 15.0155V13.8312C10.4838 13.6155 10.3089 13.4405 10.0931 13.4405ZM9.51867 6.21281C9.51867 6.17473 9.51867 6.15895 9.58324 6.12715C9.64312 6.09766 9.78902 6.0482 10.0931 6.0482C10.3971 6.0482 10.543 6.0977 10.6029 6.12715C10.6675 6.15895 10.6675 6.17473 10.6675 6.21281C10.6675 6.43305 10.399 6.79746 10.093 6.79746C9.78711 6.79742 9.51867 6.43305 9.51867 6.21281ZM6.40437 18.2373C6.1418 18.6923 5.70668 19.0174 5.17918 19.1527C5.05148 19.1854 4.92129 19.206 4.79066 19.2143C4.79031 19.2143 4.78996 19.2144 4.78965 19.2144C4.74617 19.2171 4.70266 19.2185 4.65918 19.2185C3.76004 19.2186 2.97062 18.6418 2.73937 17.8161C2.51812 17.0258 2.47801 15.8322 2.91273 15.0788C3.12477 14.7114 3.42316 14.4827 3.82508 14.3796C3.95426 14.3465 4.08352 14.3297 4.20922 14.3297C4.34137 14.3297 4.46961 14.348 4.59355 14.3818C4.59941 14.3836 4.60523 14.3854 4.61121 14.387C5.61773 14.6746 6.34027 15.9856 6.5818 16.8484C6.71324 17.318 6.65023 17.8113 6.40437 18.2373ZM12.6665 16.6167C12.559 17.0005 12.5423 17.3951 12.6126 17.7764C11.8472 18.2589 10.9817 18.5134 10.0931 18.5134C9.13746 18.5134 8.21387 18.2218 7.40867 17.6686C7.45359 17.3277 7.42977 16.9785 7.33437 16.6378C7.04996 15.6219 6.24918 14.2009 5.05945 13.7173C5.02398 13.4484 5.00586 13.1755 5.00586 12.9027C5.00586 12.533 5.03898 12.162 5.10437 11.8003C5.12582 11.6816 5.09129 11.5597 5.01074 11.4699C4.9302 11.3801 4.81266 11.3325 4.69246 11.341C4.65664 11.3436 4.62035 11.3448 4.58453 11.3448C3.78715 11.3448 3.13844 10.7314 3.13844 9.97758C3.13844 9.22371 3.78715 8.61039 4.58453 8.61039C4.96598 8.61039 5.32461 8.74945 5.59656 9.0018C6.01359 9.55606 6.53887 10.0304 7.14242 10.3963C6.7752 10.963 6.57672 11.6272 6.57672 12.3088C6.57672 14.2478 8.15422 15.8253 10.0932 15.8253C12.0321 15.8253 13.6096 14.2478 13.6096 12.3088C13.6096 11.6272 13.4111 10.963 13.0439 10.3963C13.6475 10.0305 14.1728 9.55609 14.5898 9.0018C14.8618 8.74938 15.2204 8.61039 15.6018 8.61039C16.3992 8.61039 17.0479 9.22371 17.0479 9.97758C17.0479 10.7314 16.3992 11.3448 15.6018 11.3448C15.5661 11.3448 15.5297 11.3435 15.4938 11.341C15.3736 11.3325 15.256 11.3801 15.1755 11.4699C15.095 11.5597 15.0604 11.6816 15.0818 11.8003C15.1472 12.1616 15.1804 12.5325 15.1804 12.9027C15.1804 13.1446 15.1661 13.387 15.1382 13.626C13.84 14.0246 12.9664 15.5458 12.6665 16.6167ZM17.2614 17.7952C17.0303 18.6209 16.2409 19.1976 15.3417 19.1976C15.1671 19.1976 14.9921 19.1755 14.8216 19.1317C14.2941 18.9964 13.8589 18.6714 13.5964 18.2164C13.3506 17.7903 13.2875 17.297 13.419 16.8275C13.6734 15.9191 14.4609 14.5138 15.5517 14.3293C15.556 14.3286 15.5602 14.3279 15.5645 14.327C15.6388 14.3151 15.7145 14.3089 15.7916 14.3089C15.9173 14.3089 16.0466 14.3257 16.1757 14.3588C16.5776 14.4619 16.8761 14.6905 17.0881 15.058C17.5228 15.8112 17.4827 17.0049 17.2614 17.7952Z" fill="black"/>
<path d="M12.5493 4.42603C12.1887 4.42603 11.8945 4.70755 11.8945 5.05267C11.8945 5.39782 12.1887 5.67935 12.5493 5.67935C12.9099 5.67935 13.204 5.39782 13.204 5.05267C13.204 4.70755 12.9099 4.42603 12.5493 4.42603Z" fill="black"/>
<path d="M7.63621 4.42603C7.27559 4.42603 6.98145 4.70755 6.98145 5.05267C6.98145 5.39782 7.27555 5.67935 7.63621 5.67935C7.9968 5.67935 8.29094 5.39782 8.29094 5.05267C8.29094 4.70755 7.9968 4.42603 7.63621 4.42603Z" fill="black"/>
<path d="M14.0965 2.21003L14.0874 2.20101C13.9324 2.05085 13.6845 2.0541 13.5343 2.20906C13.3841 2.36398 13.3873 2.61074 13.5423 2.76093C13.5426 2.76117 13.5444 2.76304 13.5447 2.76332C13.6208 2.83941 13.7203 2.87738 13.8198 2.87738C13.9197 2.87738 14.0197 2.83918 14.0961 2.76297C14.2487 2.61078 14.2484 2.36293 14.0965 2.21003Z" fill="black"/>
<path d="M10.0929 12.3088C9.87707 12.3088 9.70215 12.4838 9.70215 12.6995V12.7088C9.70215 12.9245 9.87707 13.0995 10.0929 13.0995C10.3086 13.0995 10.4836 12.9245 10.4836 12.7088V12.6995C10.4836 12.4838 10.3086 12.3088 10.0929 12.3088Z" fill="black"/>
</svg>
