<svg width="20" height="20" viewBox="0 0 20 20" fill="none" xmlns="http://www.w3.org/2000/svg">
<g clip-path="url(#clip0)">
<path d="M15.7129 13.7617C15.5047 13.7059 15.291 13.8292 15.2351 14.0376C15.1793 14.2456 15.3027 14.4598 15.511 14.5157C15.7191 14.5715 15.9334 14.4478 15.9892 14.2398C16.0449 14.0314 15.9213 13.8176 15.7129 13.7617Z" fill="#333333"/>
<path d="M4.48951 14.5157C4.69794 14.4598 4.82123 14.2456 4.76539 14.0376C4.70954 13.8292 4.49576 13.7059 4.28779 13.7617C4.07935 13.8174 3.95561 14.0314 4.01145 14.2398C4.06715 14.4478 4.28153 14.5715 4.48951 14.5157Z" fill="#333333"/>
<path d="M19.5529 13.2721C19.8471 12.3039 19.991 11.3936 19.991 10.4991C19.991 7.90421 18.933 5.45242 17.0116 3.59528C15.139 1.78528 12.6282 0.742188 10 0.742188C4.61611 0.742188 0.00902812 5.09857 0.00902812 10.4991C0.00902812 11.3937 0.152918 12.3042 0.44726 13.2727C0.0898996 13.5548 -0.0837453 14.0337 0.0393931 14.4959L1.04983 18.2652C1.21585 18.8869 1.85473 19.2616 2.4837 19.0936L3.67953 18.773C3.95358 19.1713 4.45742 19.3726 4.94754 19.2416L6.45556 18.8373C7.07904 18.6702 7.45043 18.0269 7.28335 17.4036L5.86932 12.1259C5.70208 11.5022 5.05847 11.1308 4.43514 11.2981L2.92758 11.702C2.76873 11.7445 2.62637 11.8181 2.50506 11.9142C2.42724 11.5509 2.37872 11.1905 2.35995 10.8348C2.79315 10.6985 3.11663 10.3204 3.16256 9.85016C3.48452 6.54968 6.55184 3.86444 10 3.86444C13.4482 3.86444 16.5155 6.54968 16.8375 9.85016C16.8833 10.3204 17.2069 10.6985 17.6401 10.8348C17.6213 11.1905 17.5728 11.5509 17.495 11.9142C17.3735 11.8181 17.2313 11.7445 17.0725 11.702L15.5649 11.2981C14.9411 11.131 14.2978 11.5022 14.1307 12.1259L12.7167 17.4036C12.5496 18.027 12.921 18.6702 13.5445 18.8373L15.0528 19.2416C15.5409 19.3721 16.0454 19.1728 16.3205 18.773L17.5167 19.0938C18.1478 19.2622 18.785 18.884 18.9501 18.2655L19.9607 14.4954C20.0839 14.0331 19.9095 13.5536 19.5529 13.2721ZM3.12945 12.4559L4.63717 12.0519C4.84515 11.996 5.05954 12.1199 5.11538 12.3277L6.52926 17.6054C6.58496 17.8133 6.46121 18.0275 6.25338 18.0833L5.87634 18.1844L5.16955 15.5454C5.11386 15.3372 4.89993 15.2136 4.69165 15.2693C4.48336 15.3252 4.35977 15.5391 4.41561 15.7474L5.12255 18.3865L4.74566 18.4876C4.53799 18.5431 4.32345 18.4192 4.2676 18.2114C4.2676 18.2112 4.2676 18.2111 4.2676 18.2111L2.85327 12.9337C2.79757 12.726 2.92147 12.5116 3.12945 12.4559ZM3.41265 18.0363L2.28198 18.3395C2.074 18.3951 1.85977 18.2726 1.80377 18.0634L0.793482 14.2941C0.740992 14.097 0.84994 13.8908 1.04479 13.8235C1.0538 13.8203 1.06326 13.8176 1.06967 13.8159L2.18447 13.517C2.2983 13.8011 2.09048 13.1499 3.41265 18.0363ZM0.799891 10.8893H1.58114C1.61517 11.5112 1.73007 12.144 1.92416 12.7786L1.17404 12.9799C0.957667 12.2519 0.834376 11.5622 0.799891 10.8893ZM17.6143 9.77417C17.2454 5.99304 13.8133 3.0838 10 3.0838C6.18456 3.0838 2.75439 5.99472 2.38558 9.77432C2.36727 9.96185 2.19927 10.1088 2.00274 10.1088H0.799128C1.01733 5.41565 5.14147 1.52267 10 1.52267C14.8584 1.52267 18.9827 5.41565 19.2008 10.1088H17.997C17.8008 10.1088 17.6326 9.96185 17.6143 9.77417ZM19.2 10.8893C19.1655 11.5622 19.0422 12.2519 18.826 12.9799L18.0757 12.7788C18.2698 12.1439 18.3847 11.5112 18.4188 10.8893H19.2ZM15.7324 18.2112C15.7324 18.2112 15.7324 18.2112 15.7323 18.2112C15.6766 18.419 15.4621 18.5429 15.2547 18.4876L14.8775 18.3864L15.5844 15.7474C15.6403 15.5391 15.5167 15.3252 15.3084 15.2693C15.1003 15.2136 14.8862 15.3372 14.8305 15.5454L14.1236 18.1844L13.7467 18.0832C13.5388 18.0275 13.4149 17.8131 13.4706 17.6054L14.8847 12.3277C14.9314 12.1536 15.0894 12.0384 15.2619 12.0384C15.2951 12.0384 15.3292 12.0428 15.3629 12.0519L16.8704 12.4558C17.0784 12.5114 17.2025 12.7258 17.1468 12.9335L15.7324 18.2112ZM19.2066 14.2937L18.1961 18.0637C18.1403 18.2727 17.9256 18.3951 17.7184 18.3397L16.5874 18.0363C17.91 13.148 17.7016 13.8014 17.8154 13.517C19.003 13.8356 18.9337 13.8159 18.9582 13.8246C19.15 13.8908 19.2591 14.0971 19.2066 14.2937Z" fill="#333333"/>
</g>
<defs>
<clipPath id="clip0">
<rect width="20" height="20" fill="white"/>
</clipPath>
</defs>
</svg>
