<svg width="20" height="20" viewBox="0 0 20 20" fill="none" xmlns="http://www.w3.org/2000/svg">
<path d="M11.6666 1H8.33332C8.14934 1 8 1.14934 8 1.33332C8 1.5173 8.14934 1.66664 8.33332 1.66664H11.6666C11.8506 1.66664 12 1.5173 12 1.33332C12 1.14934 11.8506 1 11.6666 1Z" fill="#333333"/>
<path d="M13.9996 1H13.6663C13.4823 1 13.333 1.14934 13.333 1.33332C13.333 1.5173 13.4823 1.66664 13.6663 1.66664H13.9996C14.1836 1.66664 14.333 1.5173 14.333 1.33332C14.333 1.14934 14.1836 1 13.9996 1Z" fill="#333333"/>
<path d="M10.4143 17H9.58664C9.07965 17 8.66699 17.4127 8.66699 17.9196V18.0807C8.66699 18.5877 9.07965 19 9.58633 19H10.414C10.921 19 11.3336 18.5877 11.3336 18.0807V17.9196C11.3336 17.4127 10.921 17 10.4143 17ZM10.667 18.0807C10.667 18.22 10.5537 18.3333 10.4143 18.3333H9.58664C9.44699 18.3333 9.33363 18.22 9.33363 18.0807V17.9196C9.33363 17.78 9.44695 17.6666 9.58664 17.6666H10.414C10.5537 17.6666 10.667 17.78 10.667 17.9196V18.0807Z" fill="#333333"/>
<path d="M14.4617 0H5.53801C4.87367 0 4.33301 0.540664 4.33301 1.205V18.795C4.33301 19.4593 4.87367 20 5.53801 20H14.4613C15.1257 20 15.6663 19.4593 15.6663 18.7954V1.205C15.6664 0.540664 15.1257 0 14.4617 0ZM14.9997 18.795C14.9997 19.0917 14.7584 19.3333 14.4617 19.3333H5.53801C5.24102 19.3333 4.99969 19.0916 4.99969 18.7953V1.205C4.99969 0.90832 5.24102 0.66668 5.53801 0.66668H14.4613C14.7583 0.66668 14.9996 0.908359 14.9996 1.205V18.795H14.9997Z" fill="#333333"/>
<path d="M15.333 2H4.66633C4.48234 2 4.33301 2.14934 4.33301 2.33332V16.3333C4.33301 16.5173 4.48234 16.6666 4.66633 16.6666H15.333C15.517 16.6666 15.6663 16.5173 15.6663 16.3333V2.33332C15.6663 2.14934 15.517 2 15.333 2ZM14.9996 16H4.99965V2.66668H14.9996V16Z" fill="#333333"/>
</svg>
