<svg width="20" height="20" viewBox="0 0 20 20" fill="none" xmlns="http://www.w3.org/2000/svg">
<g clip-path="url(#clip0)">
<path d="M19.8921 5.7896C19.8875 5.78474 19.8827 5.77999 19.8778 5.77537L15.7493 2.10601C15.7116 2.07167 15.6677 2.04503 15.6198 2.02752L12.6333 0.960069C12.4296 0.886093 12.2045 0.991318 12.1305 1.19505C12.1171 1.23179 12.1094 1.2703 12.1074 1.30935C12.1074 1.39568 11.9779 3.38538 9.98822 3.41678C7.98675 3.38538 7.86117 1.39568 7.85724 1.30935C7.84566 1.09291 7.66082 0.926859 7.44439 0.938436C7.40721 0.940447 7.37046 0.947707 7.33529 0.960069L4.35271 2.03929C4.30483 2.05681 4.26087 2.08344 4.2232 2.11778L0.122144 5.77537C-0.0349817 5.92465 -0.041359 6.17307 0.107917 6.33019C0.112529 6.33505 0.117287 6.33981 0.122144 6.34442L3.38729 9.64489V18.6711C3.38729 18.8879 3.56301 19.0636 3.77973 19.0636H16.2203C16.437 19.0636 16.6127 18.8879 16.6127 18.6711V9.64489L19.8778 6.34442C20.035 6.19514 20.0413 5.94677 19.8921 5.7896ZM16.6009 8.52642V6.70547C16.6009 6.48874 16.4252 6.31302 16.2085 6.31302C15.9918 6.31302 15.816 6.48874 15.816 6.70547V18.2591H4.15648V6.70547C4.15648 6.48874 3.98077 6.31302 3.76404 6.31302C3.54731 6.31302 3.37159 6.48874 3.37159 6.70547V8.53034L0.958052 6.08541L4.69413 2.74177L7.15084 1.85484C7.45518 3.42296 8.97311 4.44749 10.5412 4.14314C11.6993 3.91837 12.6048 3.0129 12.8295 1.85484L15.2862 2.74177L19.0105 6.08541L16.6009 8.52642Z" fill="black"/>
</g>
<defs>
<clipPath id="clip0">
<rect width="20" height="20" fill="white"/>
</clipPath>
</defs>
</svg>
