<svg width="20" height="20" viewBox="0 0 20 20" fill="none" xmlns="http://www.w3.org/2000/svg">
<path d="M17.6835 14.1209L16.8683 10.2481C16.8672 10.2428 16.8633 10.2387 16.862 10.2336L16.8646 10.2329L15.4053 4.6875H16.875C17.1236 4.6875 17.3621 4.58873 17.5379 4.41291C17.7137 4.2371 17.8125 3.99864 17.8125 3.75C17.8125 3.50136 17.7137 3.2629 17.5379 3.08709C17.3621 2.91127 17.1236 2.8125 16.875 2.8125V2.1875C16.8748 2.02181 16.8089 1.86296 16.6917 1.7458C16.5745 1.62863 16.4157 1.56272 16.25 1.5625H15.625C15.4593 1.56272 15.3005 1.62863 15.1833 1.7458C15.0661 1.86296 15.0002 2.02181 15 2.1875V2.81467C14.7659 2.82003 14.536 2.87801 14.3274 2.98433C14.1188 3.09064 13.9368 3.24255 13.7949 3.42881C13.653 3.61506 13.5548 3.83087 13.5077 4.06022C13.4606 4.28958 13.4657 4.52661 13.5226 4.75372L15.0071 10.6913L15.1334 11.2906L11.7301 15.3125H6.5625C6.56223 15.0639 6.46337 14.8256 6.28761 14.6499C6.11186 14.4741 5.87356 14.3753 5.625 14.375H5.52094C5.45329 14.3748 5.3875 14.3528 5.33325 14.3124L4.41681 13.6252C4.25427 13.5038 4.05694 13.438 3.85406 13.4375H2.44629C2.32314 13.4372 2.20114 13.4613 2.08737 13.5085C1.9736 13.5556 1.8703 13.6248 1.78345 13.7122L0.716553 14.7791C0.687528 14.8081 0.664503 14.8425 0.648794 14.8804C0.633085 14.9183 0.625 14.959 0.625 15C0.625 15.041 0.633085 15.0817 0.648794 15.1196C0.664503 15.1575 0.687528 15.1919 0.716553 15.2209L1.37917 15.8836C1.21923 16.2924 1.20805 16.7444 1.34758 17.1606C1.48711 17.5768 1.76846 17.9307 2.14247 18.1605C2.51649 18.3903 2.95936 18.4814 3.3937 18.4177C3.82803 18.3541 4.2262 18.1399 4.5186 17.8125H12.9956C13.1613 17.812 13.32 17.7462 13.4375 17.6294L14.1919 16.875C14.3087 16.7575 14.3745 16.5988 14.375 16.4331V15.9375C14.3746 15.8274 14.3451 15.7195 14.2894 15.6245C14.2337 15.5296 14.1539 15.4511 14.058 15.3971L15.6262 13.6328L15.8189 14.5476C15.4338 14.8576 15.1653 15.289 15.057 15.7713C14.9488 16.2536 15.0073 16.7584 15.2229 17.2032C15.4385 17.6481 15.7986 18.0066 16.2443 18.2204C16.6901 18.4342 17.1951 18.4906 17.677 18.3803C18.1588 18.27 18.5891 17.9997 18.8975 17.6134C19.2059 17.227 19.3742 16.7476 19.375 16.2532C19.3758 15.7589 19.2089 15.2789 18.9017 14.8916C18.5945 14.5043 18.165 14.2327 17.6835 14.1209ZM17.1875 3.75C17.1875 3.81181 17.1692 3.87223 17.1348 3.92362C17.1005 3.97501 17.0517 4.01506 16.9946 4.03871C16.9375 4.06236 16.8747 4.06855 16.814 4.0565C16.7534 4.04444 16.6977 4.01467 16.654 3.97097C16.6103 3.92727 16.5806 3.87158 16.5685 3.81097C16.5564 3.75035 16.5626 3.68751 16.5863 3.63041C16.6099 3.57331 16.65 3.5245 16.7014 3.49017C16.7528 3.45583 16.8132 3.4375 16.875 3.4375C16.9579 3.43756 17.0373 3.4705 17.0959 3.52909C17.1545 3.58768 17.1874 3.66714 17.1875 3.75ZM16.25 2.1875V2.8125H15.6247L15.6244 2.1875H16.25ZM14.2993 3.79791C14.3868 3.68535 14.4989 3.59434 14.627 3.53186C14.7552 3.46938 14.8959 3.4371 15.0385 3.4375H15.9951C15.9183 3.63876 15.9183 3.86124 15.9951 4.0625H15C14.9522 4.06251 14.905 4.07349 14.8621 4.0946C14.8192 4.11571 14.7817 4.14639 14.7525 4.18427C14.7233 4.22216 14.7032 4.26623 14.6937 4.31311C14.6843 4.35998 14.6857 4.40841 14.6979 4.45465L16.1799 10.0862L15.5398 10.2462L14.1287 4.60236C14.0938 4.46414 14.0911 4.31978 14.1206 4.18033C14.1502 4.04088 14.2113 3.91007 14.2993 3.79791ZM1.37939 15L2.22534 14.1541C2.28407 14.0956 2.36346 14.0627 2.44629 14.0625H3.85406C3.92171 14.0627 3.9875 14.0846 4.04175 14.1251L4.95819 14.8123C5.12073 14.9337 5.31806 14.9995 5.52094 15H5.625C5.70786 15.0001 5.78732 15.033 5.84591 15.0916C5.9045 15.1502 5.93744 15.2296 5.9375 15.3125V15.9375H4.89061C4.78198 15.6285 4.5941 15.3534 4.34577 15.1398C4.09744 14.9262 3.79736 14.7816 3.47558 14.7204C3.15379 14.6592 2.82158 14.6836 2.51218 14.7912C2.20278 14.8987 1.92706 15.0856 1.71259 15.3332L1.37939 15ZM3.125 17.8125C2.87777 17.8125 2.6361 17.7392 2.43054 17.6018C2.22498 17.4645 2.06476 17.2693 1.97015 17.0409C1.87554 16.8124 1.85079 16.5611 1.89902 16.3186C1.94725 16.0762 2.0663 15.8534 2.24112 15.6786C2.41593 15.5038 2.63866 15.3847 2.88114 15.3365C3.12361 15.2883 3.37495 15.313 3.60335 15.4076C3.83176 15.5023 4.02699 15.6625 4.16434 15.868C4.30169 16.0736 4.375 16.3153 4.375 16.5625C4.37467 16.8939 4.24287 17.2117 4.00852 17.446C3.77417 17.6804 3.45642 17.8122 3.125 17.8125ZM13.75 16.4331L12.9956 17.1875H4.89061C4.96255 16.987 4.99955 16.7756 5 16.5625H5.9375C6.10319 16.5623 6.26204 16.4964 6.3792 16.3792C6.49637 16.262 6.56228 16.1032 6.5625 15.9375H13.75V16.4331ZM15.571 12.7545L13.2971 15.3125H12.5488L15.7092 11.5775C15.7399 11.5411 15.762 11.4983 15.7736 11.4522C15.7852 11.406 15.7862 11.3579 15.7764 11.3113L15.6802 10.8551L16.3235 10.6943L17.3788 15.7077C17.3969 15.7936 17.3801 15.8832 17.3321 15.9568C17.2841 16.0303 17.2089 16.0818 17.1229 16.0999C17.037 16.1179 16.9474 16.1012 16.8738 16.0532C16.8003 16.0052 16.7488 15.93 16.7307 15.8441L16.1102 12.8976C16.0983 12.841 16.0709 12.7888 16.0311 12.7469C15.9913 12.7049 15.9406 12.6748 15.8847 12.66C15.8288 12.6451 15.7698 12.6461 15.7144 12.6628C15.6591 12.6795 15.6094 12.7113 15.571 12.7545ZM17.1875 17.8125C16.8928 17.8131 16.604 17.7302 16.3545 17.5733C16.1051 17.4165 15.9051 17.1922 15.7779 16.9265C15.6506 16.6607 15.6013 16.3643 15.6356 16.0716C15.6699 15.7789 15.7864 15.502 15.9716 15.2728L16.1191 15.9729C16.1644 16.1872 16.2817 16.3795 16.4516 16.5178C16.6215 16.656 16.8336 16.7319 17.0526 16.7328C17.195 16.7326 17.3355 16.7007 17.4641 16.6395C17.5926 16.5782 17.7058 16.4891 17.7956 16.3786C17.8854 16.2682 17.9495 16.1391 17.9832 16.0007C18.0169 15.8624 18.0194 15.7183 17.9904 15.5789L17.8332 14.8322C18.1583 14.9792 18.4231 15.2333 18.5835 15.5519C18.7439 15.8706 18.7902 16.2346 18.7146 16.5833C18.6391 16.9319 18.4463 17.2442 18.1684 17.4679C17.8905 17.6916 17.5443 17.8132 17.1875 17.8125Z" fill="black"/>
<path d="M3.125 16.875C3.29759 16.875 3.4375 16.7351 3.4375 16.5625C3.4375 16.3899 3.29759 16.25 3.125 16.25C2.95241 16.25 2.8125 16.3899 2.8125 16.5625C2.8125 16.7351 2.95241 16.875 3.125 16.875Z" fill="black"/>
</svg>
