<svg width="20" height="20" viewBox="0 0 20 20" fill="none" xmlns="http://www.w3.org/2000/svg">
<g clip-path="url(#clip0)">
<path d="M9.6084 14.4531C9.6084 14.6687 9.78342 14.8438 9.99902 14.8438C10.2146 14.8438 10.3896 14.6687 10.3896 14.4531C10.3896 14.2375 10.2146 14.0625 9.99902 14.0625C9.78342 14.0625 9.6084 14.2375 9.6084 14.4531Z" fill="#333333"/>
<path d="M11.1224 13.5681C11.255 13.5681 11.3846 13.5004 11.4578 13.3783C11.5687 13.1932 11.5086 12.9534 11.3235 12.8424C10.506 12.3522 9.4908 12.3522 8.67399 12.8424C8.48905 12.9535 8.42909 13.1935 8.54017 13.3785C8.65126 13.5634 8.89112 13.6234 9.07606 13.5123C9.64491 13.1708 10.3522 13.1708 10.9218 13.5124C10.9848 13.5501 11.0541 13.5681 11.1224 13.5681Z" fill="#333333"/>
<path d="M12.9929 11.1342C13.1725 11.2538 13.4149 11.2051 13.5345 11.0255C13.6542 10.8459 13.6055 10.6035 13.4259 10.4838L13.1641 10.3094C11.2415 9.02708 8.75733 9.02693 6.83548 10.3088L6.57257 10.4838C6.39298 10.6033 6.34445 10.8459 6.46393 11.0255C6.5831 11.2045 6.82541 11.2541 7.00562 11.1342L7.26868 10.959C8.92746 9.85258 11.0713 9.85273 12.7307 10.9596L12.9929 11.1342Z" fill="#333333"/>
<path d="M11.95 12.317C12.1301 12.4372 12.3724 12.3879 12.4919 12.2093C12.6116 12.0298 12.5634 11.7872 12.3841 11.6674L12.2965 11.609C10.9008 10.6788 9.09724 10.6788 7.70122 11.6091L7.6141 11.6674C7.43465 11.7872 7.38643 12.0298 7.50637 12.2093C7.6263 12.3887 7.86892 12.4369 8.04821 12.317L8.13488 12.259C9.26738 11.5043 10.7308 11.5043 11.8629 12.2587L11.95 12.317Z" fill="#333333"/>
<path d="M2.57736 1.95312V7.02789L0.388788 9.27902C-0.138098 9.81781 -0.12818 10.6851 0.410761 11.212C0.950464 11.7403 1.81564 11.7305 2.3442 11.19L2.57736 10.9515V12.6953C2.57736 12.9111 2.75222 13.0859 2.96798 13.0859C3.18374 13.0859 3.35861 12.9111 3.35861 12.6953V10.1526L9.99923 3.36227L16.6399 10.1526V17.6562H3.35861V15.8203C3.35861 15.6046 3.18374 15.4297 2.96798 15.4297C2.75222 15.4297 2.57736 15.6046 2.57736 15.8203V17.6562H2.18673C1.5393 17.6562 1.01486 18.1807 1.01486 18.8281C1.01486 19.4743 1.54067 20 2.18673 20H17.8117C18.4592 20 18.9836 19.4756 18.9836 18.8281C18.9836 18.1819 18.4579 17.6562 17.8117 17.6562H17.4211V10.9515L17.6541 11.1897C18.1853 11.7339 19.0506 11.7369 19.5875 11.2122C20.1266 10.685 20.1367 9.81781 19.6106 9.27963L10.977 0.39978C10.7289 0.145721 10.3725 0 9.99923 0C9.626 0 9.26971 0.145721 9.02068 0.400543L5.70236 3.81363V1.95312C5.70236 1.73752 5.52749 1.5625 5.31173 1.5625H2.96798C2.75222 1.5625 2.57736 1.73752 2.57736 1.95312ZM18.2024 18.8281C18.2024 19.0437 18.0273 19.2188 17.8117 19.2188H2.18673C1.97143 19.2188 1.79611 19.0436 1.79611 18.8281C1.79611 18.6125 1.97112 18.4375 2.18673 18.4375H17.8117C18.027 18.4375 18.2024 18.6127 18.2024 18.8281ZM9.58022 0.94574C9.68231 0.841217 9.83505 0.78125 9.99923 0.78125C10.1634 0.78125 10.3162 0.841217 10.4176 0.944977L19.0512 9.82513C19.2769 10.056 19.2725 10.4276 19.0414 10.6535C18.8112 10.8786 18.4405 10.8769 18.2129 10.6438L10.2785 2.53052C10.2051 2.45529 10.1044 2.41302 9.99923 2.41302C9.8941 2.41302 9.79354 2.45529 9.71999 2.53052L1.78558 10.6438C1.55563 10.8791 1.18499 10.8765 0.957178 10.6535C0.726007 10.4276 0.721735 10.056 0.948175 9.82437C1.09603 9.67224 9.45571 1.07513 9.58022 0.94574ZM4.92111 2.34375V4.61716L3.35861 6.22421V2.34375H4.92111Z" fill="#333333"/>
<path d="M2.96777 14.6484C3.18338 14.6484 3.3584 14.4734 3.3584 14.2578C3.3584 14.0422 3.18338 13.8672 2.96777 13.8672C2.75217 13.8672 2.57715 14.0422 2.57715 14.2578C2.57715 14.4734 2.75217 14.6484 2.96777 14.6484Z" fill="#333333"/>
</g>
<defs>
<clipPath id="clip0">
<rect width="20" height="20" fill="white"/>
</clipPath>
</defs>
</svg>
