<svg width="8" height="14" viewBox="0 0 8 14" fill="none" xmlns="http://www.w3.org/2000/svg">
<path d="M7.97797 4.80154C7.93939 4.71939 7.85631 4.66668 7.7648 4.66668H4.97657L7.72832 0.358176C7.7742 0.286316 7.77701 0.195316 7.73562 0.120887C7.69421 0.0462109 7.61513 0 7.52949 0H3.7648C3.67562 0 3.5942 0.0499297 3.55422 0.129035L0.0248109 7.12903C-0.0116689 7.20114 -0.0076707 7.287 0.0351509 7.35582C0.0782207 7.42465 0.153744 7.46665 0.23539 7.46665H2.65491L0.0184414 13.6761C-0.0265034 13.7823 0.0135057 13.9055 0.11255 13.9657C0.150656 13.9888 0.193009 14 0.235141 14C0.302669 14 0.369259 13.9713 0.415389 13.9171L7.9448 5.05047C8.00383 4.98097 8.01654 4.88389 7.97797 4.80154Z" fill="#FF4300"/>
</svg>
