<svg width="20" height="20" viewBox="0 0 20 20" fill="none" xmlns="http://www.w3.org/2000/svg">
<path d="M19.9991 16.2524C19.9989 16.2495 19.9989 16.2466 19.9986 16.2437C19.9976 16.2321 19.9959 16.2207 19.9935 16.2096C19.9933 16.2085 19.9929 16.2074 19.9927 16.2063C19.9904 16.1961 19.9875 16.1861 19.9841 16.1763C19.9832 16.1737 19.9823 16.1711 19.9813 16.1686C19.978 16.1597 19.9743 16.1511 19.9702 16.1427C19.9695 16.1412 19.969 16.1397 19.9683 16.1382L18.4014 13.0476V2.87965C18.4014 2.56691 18.147 2.3125 17.8343 2.3125H2.16566C1.85293 2.3125 1.59852 2.56691 1.59852 2.87965V13.0475L0.0316797 16.1381C0.0309375 16.1396 0.0304688 16.1411 0.0297656 16.1426C0.0256641 16.151 0.0219922 16.1596 0.0186719 16.1685C0.0176953 16.1711 0.0167188 16.1736 0.0158203 16.1763C0.0125 16.1861 0.00960938 16.1961 0.00730469 16.2063C0.00707031 16.2074 0.00671875 16.2084 0.00648437 16.2095C0.00410156 16.2207 0.00242188 16.232 0.00136719 16.2436C0.00109375 16.2465 0.00109375 16.2495 0.0009375 16.2523C0.000546875 16.2584 0 16.2645 0 16.2706V17.0138C0 17.3853 0.302148 17.6874 0.673594 17.6874H19.3264C19.6979 17.6874 20 17.3853 20 17.0138V16.2706C20 16.2645 19.9995 16.2584 19.9991 16.2524ZM2.18449 2.89852H17.8155V12.8247H2.18449V2.89852ZM2.07145 13.4105H17.9285L19.23 15.9776H12.7933L12.4702 14.8062C12.4044 14.5677 12.1857 14.4011 11.9384 14.4011H8.06156C7.81418 14.4011 7.59547 14.5677 7.52973 14.8061L7.20664 15.9776H0.769961L2.07145 13.4105ZM12.1855 15.9777H7.81453L8.0877 14.9871H11.9123L12.1855 15.9777ZM19.4141 17.0138C19.4141 17.0621 19.3747 17.1014 19.3264 17.1014H0.673594C0.625273 17.1014 0.585938 17.0621 0.585938 17.0138V16.5636H19.4141V17.0138Z" fill="#333333"/>
<path d="M16.8976 8.34985C16.7358 8.34985 16.6046 8.48099 16.6046 8.64282V11.6137H3.39551V8.64282C3.39551 8.48099 3.26437 8.34985 3.10254 8.34985C2.9407 8.34985 2.80957 8.48099 2.80957 8.64282V11.7403C2.80957 11.9936 3.01563 12.1997 3.26898 12.1997H16.7312C16.9845 12.1997 17.1906 11.9936 17.1906 11.7403V8.64282C17.1906 8.48106 17.0595 8.34985 16.8976 8.34985Z" fill="#333333"/>
<path d="M16.7312 3.52356H3.26898C3.01566 3.52356 2.80957 3.72961 2.80957 3.98297V7.0804C2.80957 7.24223 2.9407 7.37336 3.10254 7.37336C3.26438 7.37336 3.39551 7.24223 3.39551 7.0804V4.1095H16.6046V7.0804C16.6046 7.24223 16.7358 7.37336 16.8976 7.37336C17.0595 7.37336 17.1906 7.24223 17.1906 7.0804V3.98297C17.1906 3.72957 16.9845 3.52356 16.7312 3.52356Z" fill="#333333"/>
</svg>
