<svg width="20" height="20" viewBox="0 0 20 20" fill="none" xmlns="http://www.w3.org/2000/svg">
<g clip-path="url(#clip0)">
<path d="M5.7598 1.11292H3.54117C2.94336 1.11292 2.45703 1.59928 2.45703 2.19709C2.45703 2.79491 2.94336 3.2812 3.54113 3.2812H5.75976C6.35757 3.2812 6.84386 2.79487 6.84386 2.19709C6.84386 1.59932 6.35757 1.11292 5.7598 1.11292ZM5.7598 2.69526H3.54117C3.26644 2.69526 3.04297 2.47174 3.04297 2.19706C3.04297 1.92233 3.26648 1.69881 3.54117 1.69881H5.7598C6.03453 1.69881 6.258 1.92233 6.258 2.19706C6.25796 2.47174 6.03449 2.69526 5.7598 2.69526Z" fill="black"/>
<path d="M6.61445 4.81335C5.73824 4.81339 5.02539 5.52625 5.02539 6.40242C5.02539 7.27863 5.73828 7.99149 6.61445 7.99149C7.49063 7.99149 8.20352 7.27863 8.20352 6.40242C8.20352 5.52621 7.49063 4.81335 6.61445 4.81335ZM6.61441 7.40563C6.06129 7.40563 5.61129 6.95559 5.61129 6.4025C5.61133 5.84933 6.06133 5.39937 6.61441 5.39937C7.1675 5.39937 7.61754 5.84941 7.61754 6.4025C7.61754 6.95559 7.16754 7.40563 6.61441 7.40563Z" fill="black"/>
<path d="M18.3602 3.28117C18.522 3.28117 18.6531 3.15004 18.6531 2.9882V1.9591C18.6531 0.878945 17.7743 0.00015625 16.6941 0.00015625H10.3893C10.3872 0.00015625 10.3853 0 10.3832 0H2.84469C2.0182 0 1.34578 0.672422 1.34578 1.49891V14.0811V15.3991C1.34578 15.5609 1.47695 15.692 1.63875 15.692C1.80055 15.692 1.93172 15.5609 1.93172 15.3991V14.0811V1.49891C1.93172 0.995469 2.34129 0.585938 2.84469 0.585938C2.92414 0.585938 10.3676 0.585898 10.3866 0.586016C10.8832 0.586016 11.2962 0.996875 11.2962 1.49891C11.2945 19.3019 11.3005 18.5042 11.2915 18.5923C11.2892 18.615 11.2856 18.6393 11.2815 18.6618C11.2812 18.6634 11.2809 18.6649 11.2807 18.6664C11.2171 19.002 10.9635 19.2981 10.5713 19.3929C10.4161 19.4255 10.3464 19.4071 9.77859 19.4124V19.0915C9.77859 18.6715 9.43691 18.3298 9.01687 18.3298H8.59363C8.43184 18.3298 8.30066 18.4609 8.30066 18.6228C8.30066 18.7846 8.43184 18.9157 8.59363 18.9157H9.01687C9.11215 18.9157 9.19266 18.9963 9.19266 19.0915V19.4124H4.03523V19.0915C4.03523 18.9963 4.11574 18.9157 4.21102 18.9157H7.22641C7.3882 18.9157 7.51937 18.7846 7.51937 18.6228C7.51937 18.4609 7.3882 18.3298 7.22641 18.3298H4.21102C3.79102 18.3298 3.4493 18.6715 3.4493 19.0915V19.4124H2.84461C2.34117 19.4124 1.93164 19.0029 1.93164 18.4995C1.93164 18.3228 1.93164 16.9331 1.93164 16.7663C1.93164 16.6045 1.80047 16.4734 1.63867 16.4734C1.47687 16.4734 1.3457 16.6045 1.3457 16.7663C1.3457 16.9351 1.3457 18.3171 1.3457 18.4995C1.3457 19.326 2.01812 19.9984 2.84461 19.9984C11.1023 19.9984 10.4659 20.0103 10.6704 19.9704H16.694C17.7741 19.9704 18.653 19.0916 18.653 18.0115V4.35535C18.653 4.19352 18.5218 4.06238 18.36 4.06238C18.1982 4.06238 18.067 4.19352 18.067 4.35535V18.0114C18.067 18.7685 17.4511 19.3844 16.694 19.3844H11.5934C11.7001 19.2386 11.7777 19.0743 11.8234 18.9157H16.6941C17.1928 18.9157 17.5984 18.51 17.5984 18.0114V1.9591C17.5984 1.46043 17.1927 1.05484 16.6941 1.05484H11.8149C11.7616 0.883359 11.678 0.725195 11.5709 0.586094H16.6941C17.4513 0.586094 18.0671 1.20207 18.0671 1.9591V2.9882C18.0672 3.15004 18.1983 3.28117 18.3602 3.28117ZM11.8821 1.64074H16.6941C16.8697 1.64074 17.0125 1.78355 17.0125 1.9591V18.0114C17.0125 18.187 16.8697 18.3298 16.6941 18.3298H11.8821V1.64074Z" fill="black"/>
</g>
<defs>
<clipPath id="clip0">
<rect width="20" height="20" fill="white"/>
</clipPath>
</defs>
</svg>
