<svg width="15" height="14" viewBox="0 0 15 14" fill="none" xmlns="http://www.w3.org/2000/svg">
<path fill-rule="evenodd" clip-rule="evenodd" d="M14.0351 0.307991C14.4458 0.718646 14.4458 1.38445 14.0351 1.7951L8.83025 7L14.0351 12.2049C14.4458 12.6156 14.4458 13.2814 14.0351 13.692C13.6245 14.1027 12.9587 14.1027 12.548 13.692L7.3424 8.48637L2.13824 13.692C1.72759 14.1027 1.06179 14.1027 0.651131 13.692C0.240476 13.2814 0.240476 12.6156 0.651131 12.2049L5.85528 6.99926L0.651131 1.7951C0.240476 1.38445 0.240476 0.718646 0.651131 0.307991C1.06179 -0.102664 1.72759 -0.102664 2.13824 0.307991L7.34314 5.51289L12.548 0.307991C12.9587 -0.102664 13.6245 -0.102664 14.0351 0.307991Z" fill="white"/>
</svg>
