<svg width="24" height="24" viewBox="0 0 24 24" fill="none" xmlns="http://www.w3.org/2000/svg">
<path fill-rule="evenodd" clip-rule="evenodd" d="M18.1988 15.3625L23.4126 20.5763C24.1958 21.3596 24.1958 22.6294 23.4126 23.4126C22.6293 24.1958 21.3595 24.1958 20.5762 23.4126L15.3622 18.1987C15.3466 18.183 15.3336 18.1658 15.3206 18.1486C15.3107 18.1354 15.3007 18.1221 15.2895 18.1096C13.7332 19.1355 11.8705 19.7343 9.86705 19.7343C4.41759 19.7343 0 15.3165 0 9.86714C0 4.41769 4.41769 0 9.86714 0C15.3166 0 19.7343 4.41769 19.7343 9.86724C19.7343 11.8706 19.1355 13.7334 18.1096 15.2897C18.1221 15.3008 18.1353 15.3107 18.1484 15.3207C18.1657 15.3337 18.183 15.3468 18.1988 15.3625ZM3.42053 9.86714C3.42053 13.4275 6.30672 16.3137 9.86714 16.3137C13.4274 16.3137 16.3137 13.4275 16.3137 9.86714C16.3137 6.30682 13.4274 3.42053 9.86714 3.42053C6.30682 3.42053 3.42053 6.30672 3.42053 9.86714Z" fill="#333333"/>
</svg>
