<svg width="16" height="17" viewBox="0 0 16 17" fill="none" xmlns="http://www.w3.org/2000/svg">
<path d="M15.9859 6.49651C15.9521 6.38771 15.8625 6.30836 15.7545 6.29183L10.5736 5.50165L8.25669 0.574819C8.20857 0.472026 8.10891 0.407104 8.00008 0.407104C7.89125 0.407104 7.7913 0.472026 7.74347 0.574819L5.42625 5.50195L0.245377 6.29213C0.137407 6.30866 0.0480517 6.38771 0.0139707 6.49681C-0.0195374 6.60532 0.00824285 6.72494 0.0864285 6.80459L3.83562 10.6398L2.95037 16.0553C2.93204 16.168 2.97615 16.2819 3.06407 16.3493C3.15257 16.4172 3.2697 16.4259 3.36564 16.3721L8.00008 13.8155L12.6339 16.3721C12.6758 16.3953 12.7219 16.4067 12.7674 16.4067C12.8267 16.4067 12.8857 16.3874 12.9358 16.3493C13.024 16.2819 13.0681 16.168 13.0495 16.0553L12.1645 10.6401L15.9137 6.80459C15.9916 6.72434 16.0197 6.60502 15.9859 6.49651Z" fill="#FF7914"/>
</svg>
