<svg width="28" height="29" viewBox="0 0 28 29" fill="none" xmlns="http://www.w3.org/2000/svg">
<path fill-rule="evenodd" clip-rule="evenodd" d="M27.3444 6.98063L27.3527 7.0139C28.1844 10.8119 28.1844 14.6635 27.3527 18.4617L27.3444 18.4949C26.6717 21.2145 23.6388 24.1328 20.8536 24.7399L20.8222 24.7464C18.5701 25.1761 16.3015 25.3905 14.0338 25.3905C13.3663 25.3905 12.6988 25.3697 12.0317 25.3324L8.95588 28.5296C8.19443 29.3225 6.85542 28.7828 6.85542 27.6841V24.6483C4.17417 23.8826 1.36714 21.0984 0.72222 18.4948L0.714827 18.4616C-0.116856 14.6635 -0.116856 10.8119 0.714827 7.0139L0.72222 6.98063C1.39588 4.26103 4.42875 1.34275 7.21304 0.735618L7.24539 0.729149C11.7494 -0.130257 16.3172 -0.130257 20.8222 0.729149L20.8536 0.735618C23.6388 1.34275 26.6717 4.26103 27.3444 6.98063ZM20.337 22.2984C22.1667 21.8909 24.4695 19.6851 24.9187 17.9108C25.668 14.4778 25.668 10.9977 24.9187 7.56457C24.4695 5.79031 22.1676 3.5845 20.337 3.17698C16.1546 2.38133 11.913 2.38133 7.72961 3.17698C5.89991 3.5845 3.598 5.79031 3.14796 7.56457C2.39945 10.9976 2.39945 14.4777 3.14796 17.9107C3.598 19.685 5.89991 21.8908 7.72961 22.2983L7.731 22.2986C7.8126 22.3146 7.87192 22.3852 7.87192 22.4682V27.4973C7.87192 27.7487 8.17872 27.8725 8.35337 27.6905L10.7422 25.2389L12.988 22.9334C13.0214 22.899 13.0675 22.8805 13.1155 22.8818C15.5274 22.9486 17.9417 22.7539 20.337 22.2984Z" fill="white"/>
<path d="M18.014 20.2323C17.7327 20.1469 17.4646 20.0895 17.2156 19.9862C14.6359 18.9159 12.2618 17.5351 10.3811 15.4185C9.31168 14.2149 8.47464 12.856 7.76706 11.4179C7.43152 10.7359 7.14875 10.0272 6.86053 9.32318C6.59772 8.68112 6.98482 8.01781 7.39243 7.53404C7.77492 7.08004 8.26709 6.73258 8.8001 6.47651C9.21613 6.27663 9.62652 6.39186 9.93036 6.7445C10.5872 7.50687 11.1905 8.30825 11.6791 9.19196C11.9795 9.73551 11.8971 10.3999 11.3526 10.7698C11.2203 10.8598 11.0997 10.9653 10.9764 11.0668C10.8683 11.1558 10.7666 11.2458 10.6925 11.3663C10.557 11.5867 10.5505 11.8468 10.6378 12.0865C11.3092 13.9317 12.4409 15.3666 14.2982 16.1394C14.5954 16.263 14.8938 16.407 15.2362 16.3671C15.8096 16.3001 15.9953 15.6711 16.3971 15.3425C16.7898 15.0214 17.2917 15.0172 17.7147 15.2849C18.1379 15.5527 18.5481 15.8402 18.9558 16.1307C19.356 16.4159 19.7545 16.6948 20.1237 17.0199C20.4786 17.3326 20.6009 17.7427 20.401 18.1669C20.035 18.9439 19.5026 19.5903 18.7345 20.0029C18.5176 20.1193 18.2586 20.157 18.014 20.2323C18.2586 20.157 17.7327 20.1468 18.014 20.2323Z" fill="white"/>
<path d="M14.0408 5.58807C17.4152 5.68261 20.1866 7.92196 20.7805 11.2579C20.8817 11.8263 20.9178 12.4075 20.9628 12.9844C20.9817 13.2271 20.8443 13.4576 20.5824 13.4608C20.3119 13.464 20.1902 13.2377 20.1727 12.9951C20.1379 12.515 20.1138 12.0327 20.0476 11.5565C19.6983 9.04289 17.694 6.96331 15.192 6.51706C14.8155 6.44988 14.4302 6.43223 14.0488 6.39222C13.8077 6.3669 13.4919 6.3523 13.4385 6.05262C13.3937 5.80135 13.6058 5.60129 13.845 5.58844C13.9101 5.58484 13.9755 5.5878 14.0408 5.58807C13.9755 5.5878 17.4152 5.68261 14.0408 5.58807Z" fill="white"/>
<path d="M19.1688 12.2357C19.1632 12.2778 19.1603 12.3769 19.1356 12.4702C19.0461 12.809 18.5325 12.8514 18.4142 12.5095C18.3792 12.408 18.3739 12.2926 18.3737 12.1834C18.3725 11.4687 18.2172 10.7547 17.8568 10.1329C17.4863 9.49379 16.9203 8.95653 16.2564 8.63143C15.855 8.43488 15.4209 8.31271 14.9809 8.23989C14.7886 8.20811 14.5943 8.18879 14.401 8.1619C14.1669 8.12937 14.0418 7.98013 14.0529 7.74939C14.0633 7.53315 14.2213 7.37762 14.4569 7.39093C15.2313 7.43492 15.9793 7.60227 16.6677 7.96682C18.0677 8.70822 18.8674 9.87849 19.1009 11.4411C19.1114 11.5119 19.1284 11.5821 19.1338 11.6531C19.147 11.8286 19.1553 12.0043 19.1688 12.2357C19.1553 12.0043 19.1632 12.2778 19.1688 12.2357Z" fill="white"/>
<path d="M17.07 12.1539C16.7877 12.159 16.6366 12.0027 16.6075 11.7439C16.5872 11.5634 16.5712 11.3806 16.5282 11.205C16.4433 10.8592 16.2595 10.5387 15.9686 10.3268C15.8313 10.2267 15.6757 10.1538 15.5127 10.1068C15.3056 10.047 15.0906 10.0634 14.8839 10.0128C14.6596 9.95782 14.5355 9.77614 14.5708 9.56563C14.6028 9.37407 14.7892 9.22455 14.9985 9.23971C16.3068 9.33415 17.2418 10.0105 17.3752 11.5506C17.3846 11.6593 17.3957 11.7741 17.3716 11.8781C17.3303 12.0561 17.1985 12.1452 17.07 12.1539C17.1985 12.1452 16.7877 12.159 17.07 12.1539Z" fill="white"/>
</svg>
