<svg width="31" height="18" viewBox="0 0 31 18" fill="none" xmlns="http://www.w3.org/2000/svg">
<path d="M30.6852 15.8044C30.6478 15.7244 30.613 15.658 30.5807 15.6048C30.0454 14.6463 29.0226 13.4699 27.5129 12.0752L27.481 12.0432L27.465 12.0276L27.4489 12.0115H27.4326C26.7474 11.3621 26.3135 10.9254 26.1318 10.7018C25.7994 10.2759 25.7249 9.84482 25.9066 9.40803C26.035 9.07801 26.5172 8.38106 27.3521 7.31622C27.7913 6.7519 28.1392 6.29961 28.396 5.95885C30.2486 3.51001 31.0518 1.94518 30.8054 1.26372L30.7097 1.10447C30.6454 1.0086 30.4794 0.920893 30.2121 0.840906C29.9441 0.761087 29.6015 0.747886 29.1838 0.80108L24.5582 0.832852C24.4832 0.80645 24.3762 0.808911 24.2368 0.840906C24.0976 0.872901 24.0279 0.888954 24.0279 0.888954L23.9474 0.928948L23.8835 0.976996C23.83 1.00877 23.7711 1.06465 23.7068 1.14452C23.6428 1.22412 23.5893 1.31753 23.5466 1.42397C23.043 2.71221 22.4704 3.90995 21.8278 5.01713C21.4315 5.67733 21.0677 6.24949 20.7354 6.73394C20.4035 7.21823 20.1251 7.57504 19.9004 7.80375C19.6754 8.0327 19.4723 8.21611 19.2899 8.35466C19.1078 8.49327 18.9688 8.55183 18.8725 8.53041C18.7761 8.50898 18.6852 8.48773 18.5992 8.46647C18.4494 8.3706 18.3289 8.24022 18.238 8.07521C18.1468 7.9102 18.0853 7.70251 18.0532 7.45231C18.0213 7.20195 18.0024 6.9866 17.997 6.80554C17.992 6.6247 17.9943 6.36891 18.0051 6.03889C18.0163 5.70871 18.0213 5.4853 18.0213 5.36818C18.0213 4.96354 18.0292 4.5244 18.0451 4.05063C18.0613 3.57686 18.0744 3.20148 18.0854 2.92493C18.0963 2.64811 18.1014 2.35524 18.1014 2.04647C18.1014 1.73771 18.0825 1.49557 18.0451 1.31982C18.0082 1.1443 17.9516 0.97392 17.8769 0.808744C17.8018 0.643735 17.6919 0.516091 17.5476 0.425477C17.4031 0.334974 17.2234 0.263153 17.0096 0.209791C16.442 0.0820916 15.7193 0.0130118 14.8411 0.00227229C12.8496 -0.018983 11.5699 0.108884 11.0024 0.385707C10.7775 0.502667 10.574 0.662473 10.3921 0.864623C10.1993 1.09893 10.1724 1.2268 10.3116 1.24783C10.9542 1.34354 11.409 1.57248 11.6768 1.93444L11.7733 2.12624C11.8483 2.26462 11.9232 2.50962 11.9982 2.86089C12.0731 3.21216 12.1214 3.60074 12.1427 4.02641C12.1961 4.80373 12.1961 5.46914 12.1427 6.02267C12.0891 6.57643 12.0384 7.00752 11.9901 7.31628C11.9418 7.62504 11.8696 7.87524 11.7733 8.06682C11.6768 8.25845 11.6126 8.37558 11.5804 8.41809C11.5483 8.4606 11.5215 8.48739 11.5002 8.49791C11.3611 8.55093 11.2163 8.57795 11.0665 8.57795C10.9165 8.57795 10.7345 8.50333 10.5204 8.35421C10.3064 8.20509 10.0842 8.00025 9.85395 7.73937C9.62369 7.47844 9.36401 7.1138 9.0748 6.6454C8.78581 6.177 8.48596 5.62341 8.17542 4.98463L7.9185 4.52138C7.75789 4.22335 7.53849 3.78941 7.26007 3.21993C6.98149 2.65024 6.73526 2.09916 6.5212 1.56683C6.43563 1.34326 6.30709 1.17305 6.13579 1.05592L6.0554 1.00787C6.00195 0.965362 5.91616 0.920222 5.79847 0.872118C5.68061 0.82407 5.55764 0.789614 5.42904 0.768414L1.02814 0.800185C0.578429 0.800185 0.273294 0.901484 0.112626 1.1038L0.0483244 1.19951C0.0162019 1.25281 0 1.33794 0 1.45513C0 1.57226 0.0321225 1.71601 0.0964237 1.88622C0.738873 3.38752 1.43752 4.83539 2.19237 6.23008C2.94722 7.62476 3.60317 8.74822 4.15983 9.59944C4.7166 10.4513 5.28412 11.2552 5.86238 12.0109C6.44064 12.7669 6.82341 13.2513 7.01069 13.4642C7.19819 13.6774 7.34547 13.8368 7.45253 13.9432L7.85414 14.3264C8.11112 14.582 8.48849 14.8881 8.98642 15.2447C9.48446 15.6015 10.0358 15.9528 10.6408 16.2991C11.2459 16.6448 11.9498 16.9269 12.753 17.1451C13.5561 17.3636 14.3377 17.4512 15.098 17.4089H16.9451C17.3198 17.3768 17.6036 17.2596 17.7965 17.0575L17.8604 16.9774C17.9034 16.9139 17.9436 16.8152 17.9807 16.6823C18.0183 16.5493 18.037 16.4026 18.037 16.2432C18.026 15.7855 18.061 15.3729 18.1412 15.0057C18.2212 14.6385 18.3125 14.3617 18.4145 14.1753C18.5165 13.989 18.6316 13.8318 18.7597 13.7044C18.8881 13.5767 18.9795 13.4993 19.0332 13.4727C19.0865 13.4459 19.1291 13.4277 19.1613 13.4168C19.4182 13.3317 19.7207 13.4141 20.069 13.6646C20.4171 13.9148 20.7435 14.2237 21.0489 14.5909C21.3541 14.9583 21.7208 15.3706 22.149 15.8284C22.5775 16.2862 22.9522 16.6266 23.2733 16.8505L23.5944 17.0422C23.8088 17.17 24.0872 17.2871 24.43 17.3936C24.7721 17.5 25.0718 17.5266 25.3292 17.4734L29.4408 17.4096C29.8475 17.4096 30.1639 17.3427 30.3884 17.2098C30.6133 17.0768 30.7469 16.9302 30.79 16.7707C30.833 16.6111 30.8353 16.4299 30.7981 16.2275C30.7601 16.0255 30.7225 15.8842 30.6852 15.8044Z" fill="#333333"/>
</svg>
