<svg width="12" height="12" viewBox="0 0 12 12" fill="none" xmlns="http://www.w3.org/2000/svg">
<path fill-rule="evenodd" clip-rule="evenodd" d="M8.00454 3.67553C8.00454 3.67553 10.9588 3.66484 11.0219 3.67553C12.0662 3.85215 12.365 5.2689 11.4712 5.84132C11.7746 6.37785 11.5974 7.07664 11.0794 7.4084C11.3828 7.94493 11.2056 8.64372 10.6876 8.97547C11.1222 9.74401 10.5448 10.7279 9.66373 10.7274H3.1342V4.45904C3.1342 4.45904 5.02371 2.74764 5.63196 2.15441C5.98083 1.81417 6.20611 1.36086 6.29651 0.884098C6.30695 0.829021 6.31345 0.773093 6.31993 0.717277C6.33558 0.582601 6.35115 0.448575 6.42192 0.328723C6.50897 0.181325 6.65501 0.0713092 6.82118 0.0294967C7.11094 -0.0434408 7.47033 0.0255826 7.72755 0.16302C8.51756 0.585083 8.7019 1.77226 8.41718 2.54978L8.00454 3.67553ZM0.391781 3.67553H1.95886C2.17427 3.67553 2.35064 3.85098 2.35064 4.06729V11.1192C2.35064 11.3354 2.17507 11.5109 1.95886 11.5109H0.391781C0.17557 11.5109 0 11.3354 0 11.1192V4.06729C0 3.85098 0.176344 3.67553 0.391781 3.67553Z" fill="#B0B0B0"/>
</svg>
