<svg width="28" height="28" viewBox="0 0 28 28" fill="none" xmlns="http://www.w3.org/2000/svg">
<path fill-rule="evenodd" clip-rule="evenodd" d="M0 14C0 6.31042 6.31042 0 14 0C21.6896 0 28 6.31042 28 14C28 21.6896 21.6896 28 14 28C11.4622 28 8.99161 27.3158 6.83017 26.0182L0 28L1.98178 21.1698C0.684235 19.0084 0 16.5378 0 14ZM22.1017 20.5668L22.753 19.9154C23.1202 19.548 23.1068 18.9644 22.753 18.6121L20.1479 16.007C19.8088 15.6678 19.1808 15.6688 18.8445 16.007L18.1932 16.6581C17.4722 17.3789 16.3071 17.378 15.5872 16.6581L11.2842 12.4117C10.5664 11.6939 10.5664 10.5252 11.2842 9.80573L11.9353 9.15375C12.1092 8.9805 12.2045 8.74979 12.2045 8.50305C12.2045 8.25632 12.1092 8.02582 11.9353 7.85193L9.32956 5.24594C8.97046 4.88705 8.38641 4.88663 8.02689 5.24594L7.37555 5.89728C6.64752 6.62552 6.36917 8.53403 6.87332 10.7292C7.89145 15.1606 13.1707 20.2777 17.6989 21.1523C19.0607 21.4153 21.1801 21.4883 22.1017 20.5668Z" fill="white"/>
</svg>
