<svg width="304" height="290" viewBox="0 0 304 290" fill="none" xmlns="http://www.w3.org/2000/svg">
<path fill-rule="evenodd" clip-rule="evenodd" d="M56.9532 151.309C60.0673 151.309 62.7174 149.029 63.1772 145.942C65.3983 131.031 72.2887 117.273 83.1264 106.415C93.9636 95.5571 107.696 88.6537 122.58 86.4284C125.66 85.9677 127.936 83.3127 127.936 80.1928V29.4445C127.936 25.7231 124.74 22.8259 121.041 23.1595C56.8856 28.9449 5.80028 80.1256 0.0261988 144.401C-0.307284 148.107 2.585 151.309 6.29946 151.309H56.9532ZM56.9532 161.816H6.29946C2.585 161.816 -0.307284 165.018 0.0261988 168.724C5.80028 233 56.8856 284.18 121.041 289.965C124.74 290.299 127.936 287.402 127.936 283.68V232.932C127.936 229.812 125.66 227.157 122.58 226.696C107.696 224.471 93.9636 217.568 83.1264 206.71C72.2887 195.852 65.3983 182.094 63.1772 167.182C62.7174 164.096 60.0673 161.816 56.9532 161.816ZM203.144 167.425C203.613 164.348 206.258 162.078 209.365 162.078H260.037C263.756 162.078 266.651 165.289 266.31 168.999C260.414 233.145 209.383 284.188 145.318 289.965C141.62 290.299 138.423 287.402 138.423 283.68V232.932C138.423 229.812 140.699 227.157 143.78 226.696C158.663 224.471 172.396 217.568 183.233 206.71C194.012 195.911 200.885 182.243 203.144 167.425Z" fill="url(#paint0_angular)"/>
<g filter="url(#filter0_d)">
<path fill-rule="evenodd" clip-rule="evenodd" d="M215.551 154.069H272.409C276.574 154.069 279.819 150.489 279.454 146.34C273.106 74.1631 215.689 16.6517 143.554 10.1586C139.4 9.78476 135.812 13.0316 135.812 17.2022V74.0754C135.812 77.5719 138.367 80.5473 141.825 81.0636C158.537 83.5575 173.956 91.294 186.123 103.462C198.357 115.696 206.109 131.216 208.559 148.032C209.064 151.501 212.045 154.069 215.551 154.069Z" fill="#FF5614"/>
</g>
<defs>
<filter id="filter0_d" x="111.812" y="0.129272" width="191.67" height="191.94" filterUnits="userSpaceOnUse" color-interpolation-filters="sRGB">
<feFlood flood-opacity="0" result="BackgroundImageFix"/>
<feColorMatrix in="SourceAlpha" type="matrix" values="0 0 0 0 0 0 0 0 0 0 0 0 0 0 0 0 0 0 127 0"/>
<feOffset dy="14"/>
<feGaussianBlur stdDeviation="12"/>
<feColorMatrix type="matrix" values="0 0 0 0 0 0 0 0 0 0 0 0 0 0 0 0 0 0 0.22 0"/>
<feBlend mode="normal" in2="BackgroundImageFix" result="effect1_dropShadow"/>
<feBlend mode="normal" in="SourceGraphic" in2="effect1_dropShadow" result="shape"/>
</filter>
<radialGradient id="paint0_angular" cx="0" cy="0" r="1" gradientUnits="userSpaceOnUse" gradientTransform="translate(133.169 156.562) scale(133.169 133.429)">
<stop offset="0.75" stop-color="#14CBFF"/>
<stop offset="0.976219" stop-color="white"/>
</radialGradient>
</defs>
</svg>
